<?xml version="1.0" standalone="no"?>
<!DOCTYPE svg PUBLIC "-//W3C//DTD SVG 1.1//EN" "http://www.w3.org/Graphics/SVG/1.1/DTD/svg11.dtd" >
<svg xmlns="http://www.w3.org/2000/svg" xmlns:xlink="http://www.w3.org/1999/xlink" version="1.1">
<metadata></metadata>
<defs>
<font id="tiza_negraregular" horiz-adv-x="958" >
<font-face units-per-em="2048" ascent="1638" descent="-410" />
<missing-glyph horiz-adv-x="450" />
<glyph horiz-adv-x="0" />
<glyph unicode="&#xd;" horiz-adv-x="450" />
<glyph unicode=" "  horiz-adv-x="450" />
<glyph unicode="&#x09;" horiz-adv-x="450" />
<glyph unicode="&#xa0;" horiz-adv-x="450" />
<glyph unicode="!" horiz-adv-x="755" d="M750 1217q6 -18 6 -39q0 -8 -10.5 -32t-25.5 -51.5t-33.5 -55t-37.5 -46.5l-2 -18q0 -23 -18.5 -59.5t-38.5 -59.5q0 -16 -10.5 -31.5t-21.5 -30t-21.5 -29.5t-10.5 -30l2 -12q0 -16 -16 -30.5t-23 -26.5v-4q0 -12 -10 -19q-8 -6 -16 -23.5t-17.5 -40t-21.5 -47 t-29 -45.5l-2 -4q-14 -20 -17 -43.5t-26 -44.5l2 -8q0 -14 -7 -25.5t-13 -19.5q-4 -8 -8.5 -28.5t-20.5 -32.5q-4 -4 -6 -15.5t-6 -24t-13.5 -22.5t-27.5 -10l-49 2q-20 4 -21 39q0 27 7.5 73t31.5 85q4 25 17.5 41t13.5 26q0 4 -2 6q0 20 7 37t16.5 30t16.5 23.5t9 20.5 q0 25 8 40t17.5 28.5t17.5 25.5t8 29q0 16 11.5 19t15.5 30q2 12 8 25.5t14.5 25.5t14.5 21.5t6 13.5q8 39 28.5 75t32.5 54q8 37 23.5 67.5t32 56t28.5 46t12 35.5v4q0 33 14.5 47t14.5 31v-2l6 11t16.5 23.5t25 23.5t34.5 11q12 0 21 -10l32 -49q4 -4 4 -17v-6 q1 -14 7 -34zM203 20q4 -4 4 -12q0 -12 -12.5 -29.5t-16.5 -33.5l-2 -4q-10 -29 -27.5 -52.5t-52.5 -23.5q-41 0 -69 41q2 -2 -2.5 5t-9.5 18.5t-10 24.5t-5 23q0 12 7 27.5t15.5 32t16.5 32t12 25.5q10 10 21 19q10 8 22 14t29 6q25 0 39 -15.5t22.5 -36t11.5 -38t7 -23.5z " />
<glyph unicode="&#x22;" horiz-adv-x="606" d="M637 1262q2 -2 2 -7q0 -16 -17.5 -27t-17.5 -18q2 -2 2 -6q0 -6 -8 -14l-4 -4q-23 -16 -35 -29.5t-12 -32.5l2 -6q0 -4 -6 -14t-14.5 -20.5t-17.5 -19.5t-15 -11q-6 0 -11 2q-10 -23 -21 -39.5t-26 -32.5q-14 -16 -24.5 -38.5t-14.5 -26.5t-13 -16.5t-23.5 -26t-32 -25.5 t-37.5 -12q-2 10 -6 15t-9.5 8t-8.5 7t-3 15q0 20 12.5 44.5t26.5 47.5l12 20q18 68 48 126.5t65 121.5l6 12q16 16 46 35t46 19h56q35 0 53 -47zM338 1266q4 -8 4 -17q0 -12 -10 -24q-33 -20 -52.5 -58.5t-52.5 -64.5q0 -27 -16 -49.5t-31 -22.5q-6 0 -7 -9t-4 -20.5 t-10 -22.5t-24 -15q-10 -12 -19.5 -28.5t-21.5 -31t-29.5 -25t-39.5 -10.5q-6 0 -15.5 5.5t-9.5 19.5q0 23 6 38t13.5 27.5t13.5 23.5t6 26v12q0 -4 2 17.5t12 31.5q0 -2 -2 -4q23 51 47.5 100t40.5 101q8 8 32 30.5t71 22.5q12 0 35.5 -3t33.5 -9l21 -23q6 -12 6 -18z" />
<glyph unicode="#" horiz-adv-x="1003" d="M1083 877q0 -25 -32.5 -58t-83.5 -33q-6 0 -10.5 2.5t-8.5 4.5q-6 -8 -20 -9q-20 4 -29 4l-57 -12h-6t-5 2q-2 -2 -6 -2q-8 0 -12 2q-2 -2 -8 -2h-4q-16 -18 -32.5 -48t-30 -59.5t-22.5 -53t-11 -29.5l6 -2l17 -8.5t17 -2.5q39 0 77 11.5t79 11.5h12q8 0 17 -2q6 6 12 6 q27 0 35 -19.5t8 -23.5q0 -8 -2 -12t-19.5 -17.5t-39 -28t-40 -25.5t-24.5 -11q-16 0 -26.5 7t-14.5 11q0 -2 -11 -6t-26.5 -8t-32 -7t-26.5 -3h-8q-8 0 -17 8q-6 0 -15 -5t-24 -5q-23 -41 -43 -82t-24 -88q-2 -39 -24.5 -49.5t-41.5 -14.5q-23 -4 -31 -12t-18 -8h-24 q-14 0 -18.5 10t-4.5 25q0 41 24.5 75.5t41.5 50.5q12 25 16 43.5t18 47.5q-16 0 -30.5 1t-38.5 1q-47 0 -71.5 -5.5t-33.5 -5.5q-4 2 -10 2q-12 0 -33.5 -27.5t-42 -65.5t-38 -75.5t-19.5 -56.5q-14 -16 -31 -28q-14 -10 -31.5 -19.5t-39.5 -9.5q-8 0 -11.5 5t-7.5 7 q-2 0 -6 -2q-8 -4 -14 -10q-16 4 -17 20v23q0 20 23 47q18 23 30.5 42t22.5 38.5t20.5 41t26.5 52.5q-10 2 -22 2h-21l-106 -4q-16 0 -22.5 13.5t-6.5 21.5q0 16 9 29.5t11 15.5q0 -4 6.5 7t18.5 25.5t31.5 27t48.5 12.5q23 0 26 -5.5t15 -11.5q12 12 27 12q4 0 11 -1t7 -3 q2 0 14.5 11.5t29.5 36t36.5 62.5t38.5 91q-10 2 -21.5 3t-21.5 1l-115 -16q-23 0 -36 5t-13 28q0 51 43 83.5t121 32.5q2 0 8 -5t16 -5q16 0 29.5 6t34.5 6q10 0 14 -2l4 13q16 49 33.5 98t46.5 90l-2 -2q6 12 19.5 27.5t30 28t32.5 21.5t29 9h41q10 0 16 -9t6 -20 q0 -16 -7 -26.5t-7 -18.5l4 -12q0 -2 -4 -10q-29 -41 -48.5 -90.5t-47.5 -94.5l22 2q14 0 27 -6l24 -4q8 0 13.5 -2t15.5 -2q25 0 52.5 7t35.5 26q4 33 17.5 58.5t29.5 47.5l4 4q12 16 18.5 39t17.5 42.5t33.5 33.5t67.5 14q18 0 36 -5t18 -27q0 -16 -7.5 -29.5t-16.5 -24 t-16 -20.5t-9 -23q0 -2 -17.5 -26.5t-44.5 -97.5h2l4 2q6 0 10 -5q4 2 11 3h14l31 -7q20 0 38.5 4.5t45.5 4.5q16 0 24 -2q-4 0 3.5 -2.5t17.5 -7.5t18 -12t8 -19zM659 791q-4 6 -27.5 9t-37.5 3q-31 0 -42 -6t-28 -6h-35q-10 0 -19 -16.5t-21.5 -39t-26.5 -47t-35 -43.5 q-6 -6 -6 -14q0 -2 1 -5t1 -8q0 -6 -7 -20t-11 -29q0 -8 5 -15t15 -7h92q2 0 10 4l86 8q8 4 15.5 11.5t7.5 15.5l-4 20q6 18 18.5 40t24.5 42.5t21.5 41t9.5 38.5q0 4 -2 6z" />
<glyph unicode="$" horiz-adv-x="1136" d="M1139 1264l4 -41q0 -23 -16.5 -48.5t-39 -49t-46 -39t-40.5 -15.5q-12 0 -26 6t-14 21l2 20q0 12 -2.5 22.5t-18.5 10.5l-16 -4q-14 -4 -15 -8q0 -4 2 -6q-12 -12 -15 -23.5t-7 -28.5q-23 -72 -66 -144.5t-67 -148.5q10 -12 28.5 -19t36 -14t30.5 -19.5t13 -35.5 q8 -4 16.5 -6t16.5 -6q23 0 35 -12t21.5 -28.5t18.5 -34t25 -27.5q12 -6 18.5 -30t6.5 -40q0 -25 -11.5 -54.5t-23.5 -55t-22.5 -43t-10.5 -19.5v-6q0 -8 -8 -17.5t-19 -18.5t-22.5 -17.5t-17.5 -12.5q-2 -18 -14.5 -35.5t-29 -32t-30.5 -24.5t-18 -14l-15 -2 q-6 -10 -23.5 -24.5t-39 -31t-41 -29.5t-27.5 -20q-2 -6 -21.5 -18t-49 -25.5t-63.5 -28t-66 -24.5q-2 -2 -11.5 -5t-20.5 -6t-20.5 -5t-13.5 -4q-2 -14 -8 -29.5t-19 -24.5q2 -2 2 -6t-3 -26.5t-12 -50t-24.5 -49t-37.5 -21.5q-16 0 -29.5 10t-23 24.5t-15.5 29t-6 20.5v6 q-8 10 -8 24q0 10 6 28t16 22l-3 9t-1 9v6q-47 0 -87 16.5t-69.5 45t-46 65.5t-16.5 80q0 39 5 79t15.5 76t26.5 64.5t41 44.5l29 49q4 8 10 9.5t14 1.5q6 0 20.5 17t35 38.5t47 40t57.5 18.5q41 0 48 -20.5t7 -54.5q0 -41 -13 -76t-67 -45q-10 0 -17 -9.5t-15 -20.5 t-18.5 -20.5t-24.5 -9.5h-6q-4 -6 -11.5 -9t-16.5 -13t-20.5 -35t-25.5 -76q4 -8 4 -12q0 -6 -2 -10q4 -4 7 -6t7 -5q4 0 5 1.5t3 1.5q16 -6 33 -15q14 -6 26.5 -14t18.5 -15h10q10 10 20.5 12.5t22.5 2.5l33 -2q8 12 12.5 23.5t8.5 23.5t9 24.5t15 24.5q0 20 7.5 39.5 t29.5 42.5q-2 2 -2 8q0 14 8.5 46t32.5 40q2 8 5 24.5t8.5 33t12.5 30t13 19.5q14 12 14 34q0 25 19 46q0 18 10 28t20 23v2q0 6 7 12v6q0 14 13 23.5t17 23.5l-10 11q4 0 -6 3t-25.5 10t-31 17.5t-21.5 24.5q-10 20 -23.5 30.5t-25.5 20.5t-20.5 28.5t-8.5 55.5 q0 14 4.5 40t13.5 50.5t23.5 43t36.5 18.5q0 25 17.5 43t42 33.5t51 30.5t45.5 34q4 4 8 4q25 10 40 19.5t33.5 18.5t44 18.5t72.5 19.5q6 20 14.5 37.5t18.5 35.5q8 16 17.5 43t21.5 52.5t28.5 44t41.5 18.5q10 0 22.5 -11t22.5 -27.5t17 -35t7 -34.5q0 -18 -9 -43t-17 -41 l22 4q8 4 13 4l18 -2l35 4q14 0 28.5 -8t14.5 -23zM762 1120q-25 -4 -48.5 -17t-46 -29.5t-47 -33t-49.5 -26.5q-4 -2 -14 -18.5t-18 -22.5q0 -12 11 -21.5t23.5 -18.5t22.5 -19.5t10 -22.5q10 -6 19 -10q8 -4 14 -7.5t8 -5.5q4 10 12.5 24.5t15.5 29t13 24.5l6 10v15 q0 12 7.5 32.5t18.5 41t22.5 38t19.5 27.5l-2 8l2 2v0zM846 438q-2 2 -2 11q0 12 -10.5 28.5t-24.5 30.5l-26.5 26.5l-16.5 16.5q-14 16 -25 16q-10 0 -18 8l-2 3q-10 12 -21.5 24t-25.5 25q-12 -25 -24.5 -46.5t-20.5 -43.5q-4 -14 -15.5 -35t-23.5 -44.5t-21.5 -48 t-9.5 -44.5v-5q0 -2 -8 -20t-17.5 -42t-18.5 -43t-11 -24q-2 -6 -12 -10q-6 -4 -11.5 -15t-9.5 -24.5t-6 -25t-2 -13.5q96 18 182 72.5t150 126.5q2 12 11 19.5t19 11.5q-4 12 -4 18q0 14 6.5 23.5t14.5 19.5z" />
<glyph unicode="%" horiz-adv-x="1331" d="M774 1180q0 -2 -1 -3t-1 -6q0 -4 2 -10t2 -16t-8 -43t-18 -51v-4q0 -10 -3.5 -15.5t-7.5 -9.5v-2l-5 -16q-5 -15 -17 -37.5t-32.5 -47t-49.5 -42.5l2 -5q0 -10 -13.5 -28.5t-33 -37t-41 -33.5t-37.5 -21q0 2 -3 -4.5t-10 -14.5t-17.5 -15t-20.5 -7l-21 -17 q-18 -14 -32 -18l-19 -8q-4 -4 -15.5 -5t-17.5 -1h-8q-12 -4 -22 -5q-27 0 -48.5 16.5t-37 44t-23.5 62.5t-8 70q0 51 15.5 101t31.5 85l6 15q2 18 8 28.5t17.5 22.5t25 29.5t29.5 50.5l8 12t20.5 26.5t27 28t26.5 17.5q-4 0 7 11t26.5 25.5t32 25.5t24.5 11l6 4 q16 10 34.5 18.5t43.5 8.5h10t10 -4l13 -6q4 -4 14 -10.5t27 -12.5q27 -6 47 -24.5t33.5 -42t19.5 -46t6 -34.5q0 -6 -4 -10zM1337 1335q0 -16 -29.5 -45.5t-60.5 -52.5q-25 -18 -49 -49t-53 -58q-10 -8 -22.5 -22t-24 -27.5t-21.5 -25t-14 -13.5q-25 -14 -42 -31.5 t-34 -39.5q-10 -12 -26.5 -27.5l-33 -31t-28.5 -32t-14 -30.5q-2 -4 -2 -6l-4 -4l-23 -25q-23 -23 -44 -48.5t-38 -49.5v2q-2 0 -11 -12.5t-23.5 -28.5t-30 -31.5t-29.5 -21.5q-10 -23 -19.5 -33t-19.5 -27q0 2 -4 -3t-11.5 -13t-14.5 -15.5t-11 -9.5q-8 -2 -16.5 -14 t-19.5 -26.5t-25.5 -27t-34.5 -16.5q-14 -35 -38 -62.5t-50.5 -53t-52 -50t-46.5 -53.5h-2q-10 -12 -21 -23.5t-28 -17.5q-6 -27 -25.5 -47t-37.5 -35q8 -8 8 -18q0 -14 -18.5 -25.5t-36.5 -23.5l-6 -4q-6 -4 -17 -4q-6 0 -20.5 -14.5t-38.5 -14.5h-21q-10 0 -31.5 4 t-21.5 18q0 25 9 44.5t22.5 35t28 28.5t22.5 26q25 18 50.5 48.5t51 63.5t52 62.5t55.5 48.5l41 43q37 39 70.5 75.5t62.5 75.5q16 25 38.5 37t37.5 33q0 8 29.5 44t75.5 87t100.5 112.5t101.5 125.5q2 4 10 8l72 71l-2 -2q27 27 53.5 66t65.5 63q25 29 49 65t47 64l6 11 q10 23 33.5 33t31.5 10l54 -4q4 0 8 -2q8 4 12 4q10 0 27.5 -14.5t21.5 -43.5zM1194 557q0 -2 -1 -3t-1 -5t2 -11.5t2 -17.5q0 -8 -8 -41t-19 -53v-4q0 -10 -8 -23l-2 -2q-2 -2 -9 -21.5t-19.5 -43t-32 -46t-43.5 -32.5l2 -4q0 -10 -15.5 -30.5t-37.5 -31.5q-10 -27 -30 -40 t-42 -21q-8 -8 -17.5 -19.5t-25.5 -19.5q-8 0 -23.5 -15.5t-38.5 -21.5l-18 -8l-33 -6h-8q-12 -4 -23 -4q-29 0 -50 18.5t-35.5 46t-22.5 62.5t-8 67q0 51 15 101.5t32 83.5l6 16q2 14 8 25.5t15 21.5l2 2q0 -2 5 8.5t12 23.5t16.5 25.5t15.5 16.5q-4 0 6 12t25.5 26.5 t31 27t19.5 12.5v-2q2 0 16 25.5t61 47.5q14 10 13.5 11.5t5.5 5.5l6 4q16 10 35.5 18.5t42.5 8.5h10t10 -5l13 -8q4 0 14 -10t27 -10q49 -18 77.5 -62.5t28.5 -85.5q0 -6 -4 -10zM694 1190q-2 35 -28 53l-13 -2q-4 0 -7 1t-7 1h-4q-18 0 -31.5 -10t-26 -21.5t-22.5 -21.5 t-23 -10h-4q-2 4 -1 5t1 -1t-3 -11.5t-19 -17.5l-17 -6q-10 -10 -24 -31.5t-31.5 -44t-34 -40t-28.5 -17.5q-4 0 -12.5 1t-8.5 5q-10 -23 -30.5 -66t-20.5 -84q0 -10 4 -20t4 -21q0 -4 -3 -8t-3 -8q6 -6 20.5 -10t30.5 -10q25 12 42.5 9t27.5 9q6 6 25.5 10t48.5 33l8 8 q4 10 14 10q-2 0 -2 3q0 2 14.5 14t35 32.5t41 46t32.5 56.5q0 2 9 16.5t19.5 38t18.5 51t8 58.5zM1114 567q-2 35 -29 54l-12 -3l-18 3q-25 0 -42.5 -13.5t-32.5 -30t-28.5 -31t-25.5 -16.5l-17 -4q-8 -8 -22.5 -30.5t-31.5 -45t-33.5 -41t-30.5 -18.5q-12 0 -21 6 q-12 -23 -31.5 -68.5t-19.5 -80.5q0 -10 4 -20.5t4 -20.5q0 -4 -4 -9t-2 -5q4 -4 16.5 -10.5t20.5 -10.5q6 2 16 3t23 1q12 0 21 1t13 5q2 4 15.5 12.5t68.5 36.5l7 11q2 4 15 14t17 12q2 12 16.5 25.5t32 31t34 37t22.5 41.5q2 2 10 17.5t18.5 38t18.5 51t8 57.5z" />
<glyph unicode="&#x26;" horiz-adv-x="993" d="M997 1229q2 -2 2 -8t-3 -10.5t-3 -8.5q0 -10 4 -22.5t4 -28.5q0 -23 -14 -39q0 -35 -22.5 -69.5t-51 -66.5t-57.5 -56.5t-43 -38.5h-2q-4 2 -7 -11.5t-26 -21.5q-6 -6 -24.5 -21.5t-39 -35t-36.5 -38t-16 -30.5v-6q0 -2 2 -4v-21l14 -151q0 -6 -4 -19q6 -4 6 -10 q0 -8 -6 -14q4 -4 9 -9.5t5 -13.5l-4 -20q0 -23 11.5 -44.5t11.5 -50.5q0 -12 -2 -18q16 -18 19 -47t11 -45q4 6 13.5 14t25.5 8q4 10 13.5 21.5t31.5 13.5l78 72q6 6 14 6h15q14 -4 21 -14.5t7 -22.5q0 -18 -7 -35.5t-19 -17.5q-8 -2 -15.5 -11.5t-14.5 -20.5t-18.5 -22.5 t-27.5 -15.5q0 -18 -14.5 -31.5t-30.5 -23.5t-30.5 -18.5t-14.5 -16.5q0 -2 3 -7t13 -15q-2 0 6.5 -14.5t18.5 -34t19 -40t9 -30.5q0 -8 12.5 -21.5t12.5 -31.5q10 -10 22.5 -25.5t23.5 -32t18.5 -31t7.5 -22.5q0 -16 -13.5 -21.5t-21.5 -5.5q-10 0 -24.5 3.5t-20.5 13.5 q-6 8 -19.5 11t-31 7t-33.5 13.5t-29 33.5q-4 10 -22 21q-16 12 -28.5 33.5t-22 43t-16.5 39t-15 21.5v2q-16 -12 -37 -26.5t-55 -14.5q-20 -18 -49 -29.5t-58 -17.5t-54.5 -8t-41.5 -2q-10 0 -17 6l-8 -2q-8 -4 -20 -4q-14 0 -23 8l-32 6q-16 0 -23.5 6t-11.5 6h-25 q-8 0 -14 7q-2 0 -4 -3q-16 0 -25 17q-59 20 -97 80.5t-38 138.5v16t2 17l8 37q12 59 41 112l-2 8q0 4 1 6.5t1 4.5t7 10t15.5 17.5t17.5 16.5t13 7v8q0 -4 19.5 20.5t49.5 57.5t65.5 63.5t70.5 38.5l2 2q14 14 36 26.5t46.5 26l49 27t42.5 27.5q2 12 9.5 19t11.5 12l4 2 l10 125q0 10 10.5 22t10.5 39q0 18 10 46t25.5 57.5t33 56t33.5 41.5q20 18 40.5 40.5t49.5 44t69 38t99 26.5q23 0 39 -13t26.5 -28.5t14.5 -29t4 -11.5q0 -6 -2 -8q12 0 16 -12zM838 1182q-2 6 -12.5 14t-18.5 12l-2 -2q-10 -8 -21.5 -22.5t-22.5 -32.5t-20.5 -36.5 t-15.5 -33.5q0 -4 1 -8t1 -8q0 -25 -7 -51.5t-20 -44.5v-6q0 -23 -10 -39.5t-10 -28.5q0 -2 1 -3t1 -5q18 10 28.5 22.5t26.5 28.5l8 8q41 37 72 76t31 96q0 27 -10 64zM578 162q0 35 -18.5 74.5t-18.5 80.5q-31 59 -32 144.5t-11 181.5q-14 -8 -22.5 -17.5t-15.5 -17.5 t-15.5 -14t-20.5 -6h-10q0 -4 -2 -4l-4 -6q-8 -10 -21.5 -23.5t-32.5 -17.5l-11 -15q-11 -14 -25.5 -31.5t-31 -32t-24.5 -14.5h-4q0 -6 -11 -24.5t-25.5 -42t-26 -49t-11.5 -45.5l2 -13v-16t-4 -16q14 -12 18.5 -23.5t4.5 -19.5v-7q0 -16 8 -19t14 -9l11 -4 q23 -10 42 -26.5t37 -16.5l74 10l4 -2l23 2q8 0 12 -2q6 2 17.5 7t17.5 5l4 -2q2 0 17.5 3t34 7t35 9.5t22.5 11.5z" />
<glyph unicode="'" horiz-adv-x="327" d="M410 1266q4 -8 4 -17q0 -12 -11 -24q-33 -20 -52 -58.5t-52 -64.5q0 -27 -16.5 -49.5t-30.5 -22.5q-6 0 -7 -9t-4 -20.5t-10.5 -22.5t-23.5 -15q-10 -12 -19.5 -28.5t-21.5 -31t-29.5 -25t-40.5 -10.5q-6 0 -15 5.5t-9 19.5q0 23 6 38t13 27.5t13.5 23.5t6.5 26v12 q0 -4 2 17.5t12 31.5q0 -2 -2 -4q23 51 47.5 100t40.5 101q8 8 31.5 30.5t70.5 22.5q12 0 36 -3t34 -9l20 -23q7 -12 7 -18z" />
<glyph unicode="(" horiz-adv-x="481" d="M780 1532q0 -10 -14 -21.5t-30.5 -22.5t-31 -21.5t-14.5 -14.5q-6 -10 -19.5 -15t-27.5 -28l-4 -4q0 -4 -4 -4q-43 -33 -85 -73t-82 -95t-78 -127t-75 -166q-16 -31 -18 -38t-4 -16t-12.5 -35t-42.5 -97q-8 -23 -14.5 -54.5t-14.5 -64.5t-17.5 -64.5t-21.5 -52.5 q6 -29 6 -65q0 -35 -8 -64t-8 -51l2 -23q0 -16 -1 -31.5t-5 -31.5q6 -23 8 -58.5t5 -70.5t8 -60.5t16 -25.5h-3q6 -4 11.5 -15.5t10.5 -25.5t11 -27.5t15 -21.5q-2 2 5 -4t16 -16.5t16.5 -23t7.5 -22.5l12 -16q0 -16 -10.5 -21.5t-18.5 -5.5q-43 0 -85 31t-76.5 81 t-58 113.5t-28.5 131.5q-10 23 -14 45t-4 45l8 118q0 23 -2 33q2 86 20.5 168t39.5 156l8 31q0 18 8 34.5t14 28.5q10 12 28.5 62.5t61.5 127.5q20 20 27.5 59.5t32.5 67.5q12 12 25.5 34t29.5 44.5t34.5 42t37.5 29.5q23 12 32 27.5t35 27.5q4 2 14.5 15.5t24 28t30.5 27.5 t36 17q18 0 43.5 24.5t66.5 39.5q0 -2 21.5 15.5t58.5 17.5q18 0 24.5 -4.5t14.5 -14.5z" />
<glyph unicode=")" horiz-adv-x="880" d="M799 999q0 -12 -8.5 -18t-12.5 -8q14 -55 15 -113q0 -55 -10.5 -117.5t-29 -127t-44 -127t-58.5 -117.5l2 -13q0 -20 -9 -33.5t-21.5 -23.5t-21.5 -19.5t-9 -21.5v-4q0 -12 -10 -18q-20 -12 -37 -37t-33 -50.5t-37.5 -47t-52.5 -29.5q-4 -16 -20.5 -38t-36 -42.5 t-38 -33.5t-24.5 -13h-6q-4 -4 -19.5 -17.5t-21.5 -15.5q-12 -4 -32.5 -18.5t-44 -30t-47 -27.5t-44.5 -12l-63 -4q-6 0 -15.5 5t-9.5 13q0 2 6 13.5t12 15.5q12 4 24.5 16.5t27 25.5t29 24.5t28.5 15.5q8 2 10 8t5 12t9.5 11.5t22.5 5.5q6 0 11 9t12.5 21.5t18.5 22.5 t30 12q20 35 43.5 61.5t48.5 51.5l16 18q6 27 16.5 41.5t20.5 26.5l8 8q8 8 16.5 7t12.5 9q0 4 -1 6.5t-1 4.5q0 23 15.5 35t15.5 22v2q0 14 6 30.5t14 31.5q8 16 23 30q14 8 20 25.5t10.5 37t11.5 41t23 38.5q12 72 36 154.5t24 164.5q0 6 4 14l2 5l-2 28q0 12 2 19l12 69 q-4 8 -4 21q0 10 4 17t4 9t-2 5.5t-2 7.5l2 18q0 59 -17.5 116.5t-21.5 117.5q-8 14 -18 51t-15 53q-2 4 -17 29.5t-15 50.5q0 6 8 16t26 10q29 0 47.5 -20t28.5 -41q8 0 18.5 -19.5t19.5 -43t16.5 -46l9.5 -28.5q6 -2 14 -16.5t15.5 -36t13.5 -46t6 -47.5l4 -2q0 -2 4 -6 q16 -29 18.5 -58.5t2.5 -60.5v-10q0 -18 1 -38t5 -38z" />
<glyph unicode="*" horiz-adv-x="749" d="M758 1182q2 -2 2 -8q0 -16 -7.5 -23.5t-22.5 -10.5t-39.5 -5t-59.5 -11q-4 0 -8 2q-4 0 -6.5 1t-6.5 1q-18 0 -32.5 -13t-30.5 -13h-4l-6 -15q16 -35 34.5 -55t49.5 -41q4 -6 8 -14l-6 -27q0 -12 -10.5 -27.5t-25 -28.5t-29.5 -21.5t-26 -8.5q-16 0 -33.5 16.5t-32.5 37 t-27.5 40t-18.5 27.5l-27 39q-12 6 -18 6q-4 -2 -14.5 -16.5t-26.5 -26.5q-8 -6 -13.5 -14t-14.5 -19.5t-23.5 -29t-38.5 -41.5q-14 -14 -27.5 -36t-27 -42.5t-25.5 -34.5t-23 -14q-25 0 -31 16t-6 27l4 11q3 11 8 27.5t8 33t3 26.5l-4 12q0 29 10 39t23 15q14 8 15 20 t13 16q-2 0 8.5 9.5t23.5 21.5t24.5 23.5t11.5 15.5v4q-12 -4 -27.5 -9t-31 -9t-26.5 -7.5t-13 -3.5t-4.5 1.5t-6.5 1.5t-11 -5.5t-30 -11.5q4 0 -19.5 -11t-59.5 -11q-23 0 -23 32q0 57 26.5 101.5t71.5 44.5l17 -2q12 6 30.5 8t36.5 2h94l7 2q4 0 8 -1t6 -1h8v6 q0 2 -6 15.5t-13 34t-12.5 43t-5.5 42.5q0 12 7.5 30.5t18.5 36t24.5 30t25.5 12.5q49 0 49 -39q0 -8 3 -30.5t8.5 -47t14.5 -43t21 -18.5q6 0 16.5 14t21.5 31.5t23.5 32t22.5 14.5l6 -2l9 4q0 20 10 37.5t24.5 34t29.5 31t24 26.5l2 4q10 10 24 10q27 0 41.5 -24.5 t14.5 -57.5q0 -39 -15 -53v-2q4 -8 4 -14l-2 -6q0 -2 -22.5 -16.5t-48 -34t-48 -39t-22.5 -27.5q0 -4 10 -4h19q18 0 24 -8q14 8 39 12t27 4h2q10 0 37 -8t45 -43z" />
<glyph unicode="+" horiz-adv-x="968" d="M983 803q-2 -35 -21.5 -53.5t-35.5 -28.5q-8 -6 -15.5 -14.5t-20.5 -16.5t-36 -14t-61 -6q-35 0 -64 14q-20 -8 -55 -14t-76 -6h-25q-10 0 -22 2l-10 -9q-20 -23 -33.5 -42t-18.5 -50q-35 -96 -56 -132t-34 -44q8 -8 9 -22q0 -14 -7.5 -26.5t-13.5 -23.5l-4 -4 q0 -10 -8 -17t-19.5 -13.5t-21.5 -9.5t-17 -5q-14 -4 -21 -8t-13.5 -9t-12.5 -8t-18 -3q-27 0 -34 19.5t-9 35.5q0 12 6 32.5t15.5 42t21.5 43t24 33.5v23q0 6 5 10l4 8q29 35 47 67t26 79q0 6 3.5 11t5.5 7l-7 4q-2 2 -8 2l-243 -18q-14 0 -33 1t-36 4t-28.5 10.5 t-11.5 17.5q6 49 41 86t88 37l39 -9q10 0 28.5 1t51.5 6h4q10 0 18 -9h4q14 0 27.5 5.5t30.5 5.5l80 -7q18 0 30 7l-2 2v6q0 16 15.5 39.5t19.5 27.5q12 16 20.5 39t17.5 48.5t20.5 51t27.5 46.5q0 2 2 13t8.5 23.5t17.5 21.5t27 9h2q4 8 19.5 18.5t34.5 10.5l10 4 q6 0 14.5 -1t20.5 -5q6 2 16 2l4 -2l6 2q20 0 23.5 -17.5t3.5 -21.5q0 -12 -7 -24.5t-16.5 -23.5t-18.5 -19.5t-11 -8.5v-2q2 -4 2 -12q0 -12 -8 -23q-33 -47 -56.5 -93t-48.5 -95q6 -2 21 -2q18 0 39.5 4t46.5 4q14 0 22 -2h2q18 0 43 -10l181 16q2 0 4 2q6 0 12 -8t6 -12z " />
<glyph unicode="," horiz-adv-x="471" d="M420 256q4 -8 4 -14q0 -10 -5 -16.5t-9 -10.5q0 -6 -2 -8q-20 -57 -57.5 -111.5t-74.5 -95.5q-10 -16 -32.5 -42t-47 -48.5t-45 -38.5t-26.5 -16q-10 -2 -18.5 -9.5t-19.5 -16.5t-24.5 -16.5t-31.5 -7.5q-31 0 -31 25q8 31 32.5 61.5t51.5 57.5v6q0 14 8 26.5t17.5 21.5 t17.5 16.5t8 13.5q0 4 -4 11t-4 17q0 16 7 29.5t14.5 25t14.5 23t7 23.5v10q0 6 2 8q14 20 26.5 41t31 37t48 27.5t82.5 11.5q8 0 17.5 -1t13.5 -7q8 -4 13.5 -10.5t9.5 -10.5l6 -12v0z" />
<glyph unicode="-" horiz-adv-x="788" d="M799 801q0 -2 2 -4q0 -6 -6 -13q-4 -6 -12.5 -20t-23 -28.5t-36 -26t-51.5 -11.5q-8 0 -13.5 5.5t-9.5 5.5q-6 0 -18.5 -7.5t-30.5 -7.5q-14 0 -31 8q-8 -4 -10 -4l-8 2q-6 -2 -19 -2l-38 4q-10 0 -13.5 -7t-13.5 -7l-6 2h-19q-20 0 -30 8q-16 -2 -37 -2h-39h-131 q-10 -6 -21.5 -7t-21.5 -1l-12 2l-5 -2q-4 0 -6 2q-8 -4 -14 -4l-8 2l-58 -4q-23 0 -41 7t-18 28l2 14q2 10 5 26.5t11.5 33t19.5 27.5t28 11h14q8 0 14 -6q16 -2 35 -2h39h41q20 0 43 -2q0 6 6 8t10 2l56 -10q29 0 57.5 6.5t62.5 6.5q12 0 25.5 -1.5t24.5 -7.5q2 6 12 6h12 q12 0 34.5 -5t39.5 -5q16 0 23.5 6.5t15.5 6.5q6 0 10 -5l6 2q6 0 10 -4q8 4 13 4l28 -2l60 5q12 0 22.5 -2.5t14.5 -14.5l4 -16v0z" />
<glyph unicode="." horiz-adv-x="466" d="M240 125q4 -16 4 -21q0 -10 -5.5 -24t-11.5 -28.5t-14 -25t-14 -12.5q-4 0 -12.5 -7t-20.5 -16t-27.5 -16.5t-34.5 -7.5q-23 8 -42 13.5t-32.5 14.5t-21.5 28.5t-8 54.5q0 6 6 24.5t20.5 40t38 41t60.5 27.5q8 -6 16 -6h6q2 0 3 2l6 -2q12 4 18 4q23 0 33 -19.5t10 -35.5 q0 -10 3 -13.5t6 -4.5t7.5 -3t6.5 -8z" />
<glyph unicode="/" horiz-adv-x="1519" d="M1530 1415q0 -10 -11.5 -24.5t-26.5 -29.5t-33.5 -30.5t-31.5 -25.5q-29 -23 -55 -58t-61 -65q-12 -10 -25.5 -25.5t-28 -31t-24.5 -29t-16 -15.5q-25 -12 -42.5 -30.5t-34 -38t-32.5 -40t-39 -38.5l-24.5 -24.5t-14.5 -15.5t-9 -13.5t-9 -18.5q-4 -8 -6 -14l-19 -19 q-10 -10 -25.5 -30.5t-32 -41t-29.5 -36.5t-21 -21q-16 -10 -25.5 -23t-20 -26.5t-23.5 -28t-34 -22.5q-8 -16 -25.5 -46t-35.5 -34q-10 0 -14.5 -14t-14.5 -19q-10 -2 -20.5 -16t-22.5 -30.5t-28.5 -31t-39.5 -18.5q-35 -74 -95 -129t-118 -121l-6 -6q-10 -12 -23.5 -24.5 t-29.5 -18.5q-2 -8 -11 -24.5t-19.5 -32t-22.5 -26.5t-21 -11l2 -2q8 -12 9 -21q0 -16 -26 -30.5t-38 -24.5l-8 -4q-4 -4 -10 -4t-8 2l-23.5 -23.5t-40.5 -13.5l-27 4h-10q-12 0 -30.5 3t-18.5 22q0 25 12.5 48t27.5 43.5t31.5 36t26.5 25.5q20 18 53 59.5t69 84.5 t66.5 75.5t47.5 32.5l47 49q41 45 80 87t71 88q20 29 45 43t44 36v7q0 10 34.5 43.5t100.5 111.5q43 49 101 119t114 143q23 12 42 42t52 48l-4 -2q35 29 63.5 73t75.5 73q27 35 55.5 74.5t53.5 74.5l8 11q4 12 15 22t22.5 16.5t20.5 9.5t11 3l5 -2l59 -2l10 -4q8 4 10 4 q14 0 35 -14.5t25 -49.5z" />
<glyph unicode="0" horiz-adv-x="1050" d="M1057 997q-6 -12 -6 -22q0 -12 4 -25.5t4 -29.5q0 -27 -19 -48q-2 -72 -34 -133q2 -4 2 -10q0 -23 -15.5 -34t-15.5 -25q0 -4 -17.5 -37t-40 -71t-45 -68.5t-30.5 -30.5q-10 0 -21.5 -20.5t-38.5 -26.5q2 -4 2 -17q0 -6 -7 -20t-19 -30.5t-29.5 -32t-38.5 -23.5 q-16 -51 -56 -75.5t-79 -41.5q-16 -16 -28.5 -29.5t-26 -23.5t-29.5 -19.5t-39 -17.5q2 0 -17.5 -14.5t-29.5 -16.5q-23 -6 -18.5 -14t-10.5 -10l-36 -17l-52 -12q-8 0 -20 4q-16 -8 -39 -8q-49 0 -88 31.5t-66.5 82t-42 114t-14.5 124.5q0 100 30.5 194.5t59.5 157.5l14 31 q2 35 26 70t36 51q2 2 11 19.5t21.5 36t23.5 33.5t16 18q2 2 12 14t25.5 28.5t35 35t43.5 30.5q4 10 14.5 22.5t20.5 21.5t19 15l8 7q2 0 18.5 18t41 43t53 49.5t53.5 36.5l10 6q31 18 65.5 34.5t75.5 16.5q8 0 14.5 -1t16.5 -5l20 -14q12 -10 24.5 -11t25.5 -18 q0 -4 32.5 -13t70.5 -31.5t70.5 -63.5t32.5 -105q4 -23 12.5 -44t8.5 -25q0 -7 -4 -11zM936 1010q-2 80 -70 120q-8 -2 -26 -2q-16 0 -25 2q-4 -2 -10 -2q-27 0 -53.5 -9t-49.5 -21q-6 -6 -20 -22.5t-31.5 -34t-37 -30t-35.5 -12.5q-10 0 -12.5 -18t-18.5 -25l-33 -12 q-23 -20 -41 -47t-36.5 -54.5t-39 -53t-47.5 -46.5q-10 -10 -15 -21t-8 -20.5t-8.5 -14.5t-15.5 -5q-4 0 -22.5 5t-18.5 24l-4 22q-6 -12 -16 -22q-2 -20 -18.5 -54t-36 -77t-36 -91.5t-16.5 -93.5q0 -20 8.5 -40.5t8.5 -39.5l-11 -30q0 -16 31 -27.5t53 -30.5q6 2 21 2 q10 0 14 -2q16 8 34.5 10.5t35.5 4.5h4q29 2 54.5 16t31.5 14q8 2 21.5 10.5t26.5 16.5t25.5 14t18.5 6t5 7.5t34 21.5l14 23q6 10 17 10q12 0 17 11t11 24.5t17.5 25t36.5 13.5q25 45 61.5 76.5t56.5 76.5q2 6 20.5 28.5t28.5 47.5q4 12 21.5 41t36 71t33 94t14.5 107v13z " />
<glyph unicode="1" horiz-adv-x="645" d="M764 1217q0 -6 12 -19.5t12 -34.5q0 -10 -6 -18q-20 -23 -26 -50.5t-33 -43.5q-10 -23 -23.5 -41.5t-29.5 -36.5q-2 -20 -25 -35q-8 -16 -16 -31.5t-19 -32.5q-12 -20 -22 -40.5t-17 -42.5l-6 -11q-12 -10 -18 -23.5t-17 -25.5q-16 -23 -28.5 -49.5t-23.5 -52t-24.5 -51 t-31.5 -46.5q-12 -39 -34.5 -72.5t-45.5 -66.5l-6 -8l-17 -37q-10 -20 -20 -37.5t-20 -36.5l-56 -96q-6 -14 -10 -25.5t-20 -17.5q-12 -41 -20.5 -81t-25.5 -81v-28q0 -14 -11 -18.5t-21 -4.5q-16 0 -35 13.5t-34 32t-25.5 39t-12.5 36.5q-10 14 -10 25l4 24q0 2 -1 5t-1 7 l4 10q4 9 9 20t9.5 21.5t6.5 14.5q10 25 21 48.5t34 41.5q8 29 23.5 54.5t31.5 50.5q16 20 27.5 43.5t26.5 46.5q8 10 11 21t13 22q4 16 25.5 46.5t31.5 51.5q6 14 14.5 26.5t20.5 22.5q0 14 6.5 25.5t14.5 21.5q0 12 6 21.5t13 16.5t13.5 15.5t6.5 20.5q0 8 6 12 q10 10 15 23.5t11 27.5q6 20 14.5 38t24.5 32q10 29 25.5 57.5t32.5 57.5q12 23 26.5 42t24.5 42v2q4 8 4 12q0 6 -2 10q-12 -4 -16 -4q-2 0 -13 -10q-20 -23 -35.5 -31t-44.5 -18l-4 -2q-16 -6 -29.5 -11.5t-25.5 -15.5q-4 -4 -21.5 -11t-27.5 -13q-20 -14 -47 -25 q-12 -18 -36 -23.5t-28 -15.5t-19.5 -22.5t-34.5 -23.5t-37.5 -22.5t-27.5 -19.5q-4 -4 -16 -13.5t-16 -9.5q-12 0 -25.5 19.5t-17.5 30.5q-4 10 -6.5 32.5t-2.5 34.5q0 20 3.5 42t13.5 40q4 6 14 10q8 4 22.5 17.5t24.5 21.5q4 2 18.5 9.5t31 14.5t31 13t18.5 6 q45 6 72.5 22.5t66.5 39.5q4 4 10 4l21 -6q10 0 20 3t21 5q6 6 14 6h4q6 8 14 29q6 12 19 12q23 4 38 16.5t42 14.5q6 10 23.5 21t27.5 11h2q12 10 19 12.5t24 2.5q10 0 23.5 10t25.5 14q12 23 29.5 28t27.5 17q6 8 17 9l12 12t16 6q25 0 29 -20.5t4 -38.5v-4q0 -12 2 -19 q12 -14 21.5 -28.5t9.5 -32.5q0 -10 -4 -23.5t-19 -13.5q-16 0 -32.5 -4t-32.5 -8v-2z" />
<glyph unicode="2" horiz-adv-x="1185" d="M1192 1190q0 -16 -5 -32.5t-11 -33.5q-4 -12 -6.5 -23t-4.5 -24q0 -8 -5 -26.5t-9 -26.5q-2 -6 -21.5 -26.5t-29.5 -51.5q-4 -10 -13 -12q-16 -8 -16 -16q0 -6 -10 -15q-33 -29 -59.5 -55.5t-45.5 -67.5q-6 -10 -20 -10l-12 2q-6 0 -10.5 -8t-10.5 -19.5t-16 -20.5 t-25 -11q-10 -18 -24.5 -30.5t-24.5 -29.5q-4 -6 -11 -11t-14 -9q-8 -4 -13 -12.5t-11 -12.5q-27 -18 -48.5 -39.5t-45.5 -44.5l-25 -16q-14 -8 -20.5 -16.5t-16.5 -18.5q-4 -4 -8 -6q-27 -20 -49.5 -40.5t-44.5 -43.5q-16 -16 -38 -17t-28 -14q-4 -6 -7 -7t-7 -3 q-8 -4 -20.5 -27.5t-38.5 -25.5l-17 -13q4 -4 12.5 -6t14.5 -2l61 6q6 0 14.5 -2t14.5 -8l250 8l53 -8q2 0 17.5 2t33 5t31.5 5l14 3q6 4 15 4q18 0 34.5 8t38.5 8h4q4 2 13 2h12q8 0 14.5 3t12.5 3q2 0 4 -2q6 -2 6 -12t-7 -29.5t-16.5 -40t-19.5 -39t-16 -26.5 q-4 -6 -10.5 -9.5t-10.5 -11.5q-6 -10 -18 -10q-4 0 -13 4l-12 -4t-12 -2q-6 -10 -12.5 -21.5t-18.5 -11.5q-10 0 -20.5 9.5t-20.5 13.5q-12 -10 -33 -11l-55 7q-8 0 -14 -5.5t-23 -5.5l-35 6q-10 -4 -16 -4h-16l-121 -12h-21q-10 0 -20 4q-16 -6 -25 -6l-31 2q-10 0 -17 -2 t-17 -2q-18 0 -36 -5t-38 -5q-14 0 -27.5 -5t-29.5 -5q-6 0 -10.5 2t-8.5 2l-31 -7q-10 0 -14 3q-8 -4 -24 -5l-70 5q-10 0 -17 2q-41 12 -52 36.5t-11 65.5t14.5 84t36.5 78q4 10 21 10l16 -2q12 16 30.5 24.5t24.5 24.5q2 8 11 12q6 2 16 2q10 2 17.5 9.5t19.5 7.5 q8 0 12 -2q35 31 70 53.5t78 32.5q8 12 42.5 37.5t72.5 53.5t70 49.5t38 21.5q16 4 24.5 18t30.5 25q2 6 8 6q8 4 28.5 20.5t42 34.5t41 36.5t28.5 27.5q10 10 31.5 30.5t31.5 22.5q4 10 10 15t15 9q23 16 35 41t40 37q12 20 31 33q12 8 16.5 13t5.5 9.5t2 8.5t5 10 q10 16 16 27.5t10 29.5q-16 20 -45 21l-59 -4q-10 0 -16 6h-11q-25 0 -39 -10.5t-22 -10.5q-35 0 -62.5 -12t-60.5 -12q-12 0 -29 -8q-8 -8 -18 -9q-10 -10 -21.5 -14t-23.5 -8h-2q-14 -2 -19.5 -5t-6.5 -6.5t-3 -6.5t-8 -5l-10 -4q-27 -10 -47.5 -22.5t-38.5 -36.5 q-2 -2 -3 -4t-5 -4l-78 -56q-6 -6 -12.5 -21.5t-13.5 -30.5t-14 -27.5t-16 -12.5q-29 0 -50 17.5t-21 46.5q0 6 1 20t3 30.5t5 30t7 17.5q6 39 21.5 68.5t39 52t51 42t56.5 42.5l11 5q10 5 22 10t23.5 10t17.5 10q12 6 24.5 13t26.5 11q6 2 10 2q6 0 10 2l23 10q12 12 35 13 h22q6 0 19 4q23 10 46 18t46 11q37 4 76 4q41 0 78 6l14 2q10 0 17 -2t16 -4q4 2 7 3t7 1t24.5 -5t24.5 -10q6 2 16 2q16 0 32 -6t32 -10q10 -4 14 -14l6 -13q10 -14 15.5 -32.5t5.5 -34.5zM8 119l-2 2z" />
<glyph unicode="3" horiz-adv-x="1079" d="M1083 1151q-12 -25 -19 -54.5t-17.5 -59t-26.5 -58.5t-43 -49l-31 -27q-6 -6 -14 -6h-10q-23 0 -51.5 -17.5t-77.5 -31.5q4 -4 19 -10.5t32.5 -15.5t33 -21.5t19.5 -30.5l2 -6q0 -2 4 -6q16 -29 31.5 -66t15.5 -78q0 -39 -20 -67q-8 -12 -12.5 -28.5t-10.5 -36t-17 -41 t-34 -42.5q-8 -6 -14 -20t-15.5 -28.5t-20.5 -29t-28 -20.5l-12 -12q-18 -16 -41 -47t-33 -35q-100 -18 -164 -53q-16 -10 -36.5 -14.5t-34.5 -18.5q-10 -10 -37 -13.5t-47 -19.5q-25 -23 -53.5 -30t-57.5 -10t-56.5 -5t-49.5 -12l-78 -13q-18 0 -31.5 7.5t-21.5 7.5 q-4 0 -9.5 -4t-15.5 -4q-6 0 -10 4q-14 0 -26.5 -3t-29.5 -3q-27 0 -46 20t-19 57q0 29 10 50.5t10 46.5l-2 14q0 -4 4.5 7t13.5 24.5t25.5 26t40.5 12.5q20 0 29 -13q4 -8 17.5 -11t31 -4t34.5 -4t30 -9q16 4 38.5 6t41.5 2q12 0 18 -2q6 4 12 4h13q8 0 13 -1t9 -1l21 12 q16 0 17 -7t11 -7q6 0 15.5 6t25.5 6l21 -2q31 0 41 14.5t24 14.5h10q8 0 17.5 7t21 15t24.5 15.5t30 7.5q8 0 12 -2q20 6 37.5 19t34.5 30q6 6 18 20.5t47 14.5q8 8 21.5 22.5t29 29.5t30.5 28.5t28 19.5q10 10 14 25.5t4 23.5q0 10 -13.5 20.5t-19.5 16.5q-6 8 -10 12 t-9 5t-10.5 3.5t-15.5 6.5q-29 25 -70.5 35t-80.5 10h-21q-12 0 -18 8l-10 -2l-11 2q-12 -6 -28 -6q-12 0 -35 1t-31 5q-23 -6 -46.5 -12.5t-49.5 -6.5q-23 0 -31 19.5t-8 32.5q0 20 5 39.5t5 35.5q0 4 -1 6.5t-1 6.5q2 37 27.5 57.5t64.5 31.5t87 17t93 17q25 39 84 43 q14 0 27.5 14t38.5 14q8 0 15.5 -1t11.5 -1q2 0 14 8.5t25.5 18.5t24.5 19.5t15 11.5q20 6 31.5 9t21 8t18.5 13t26 21q-10 10 -28.5 16t-27.5 6q-6 0 -12 -3t-14 -3q-20 0 -43 9.5t-45 9.5h-109q-8 -4 -32.5 -9.5t-30.5 -5.5l-21 2q-23 0 -67.5 -18.5t-98.5 -28.5 q-16 0 -19 -4t-5 -4l-49 -27q-2 -2 -9 -2q-14 0 -23 10.5t-15.5 24.5t-8.5 28.5t-2 24.5q0 14 1 33t5 23q18 35 46 56.5t59 34.5t63.5 19t61.5 11q10 0 13 -1.5t7 -1.5q8 0 15.5 2.5t17.5 2.5t16 -2q6 6 23 6l8 -4q20 4 35 4q29 0 59 -11q18 6 35 7q23 0 41.5 -7.5 t42.5 -7.5l53 10q10 0 17 -2l16 -2q25 0 56.5 -11t59.5 -29.5t47 -43t19 -53.5q0 -6 -2 -8z" />
<glyph unicode="4" horiz-adv-x="1144" d="M1165 553q0 -23 -14 -48.5t-33.5 -47t-40 -35.5t-33.5 -14q-8 0 -19 11l-15 15h-6q-8 0 -15 2q-8 -8 -21.5 -11t-23.5 -3q-20 0 -36.5 7t-35.5 7l-43 -6h-32q-20 0 -28.5 -9t-25.5 -13q-2 -18 -9 -28.5t-15 -18t-15.5 -14.5t-7.5 -19v-6q-4 -23 -10 -46.5t-10 -46.5 q-6 -29 -18.5 -51t-26 -44.5t-22.5 -48.5t-9 -60q0 -8 -8 -17q-10 -18 -19.5 -26.5t-16.5 -14.5t-12 -13t-5 -24q0 -8 -9 -16l-2 -2q2 -2 2 -6v4q-2 0 -6 -13.5t-11 -28.5t-17.5 -27.5t-22.5 -12.5q-27 0 -44 19.5t-27.5 45t-14.5 52t-4 43.5q0 20 9 49t22.5 55.5t27 48 t21.5 29.5l-6 -10q18 25 29.5 56.5t35.5 51.5q4 29 19.5 50.5t21.5 50.5v6q4 12 12.5 22.5t12.5 20.5h-19q-29 0 -53 -11.5t-53 -11.5t-54.5 -6t-52.5 -6h-14q-4 -4 -20.5 -7t-37 -5t-40 -4t-27.5 -2l-9 -4.5t-11 -2.5q-4 0 -13 4h-18q-29 0 -58.5 -10t-60.5 -10h-14 q-8 0 -13 2h-6q-18 0 -42.5 12.5t-24.5 28.5q0 4 4 12q-4 2 -9 15.5t-8.5 30t-5.5 30.5t-2 21q0 27 16.5 57.5t45.5 38.5q4 6 16 16t25 21q14 10 32 22q35 12 63 38t62 42q14 27 38 33t32 24q2 6 15.5 15.5t27.5 18.5t28.5 17.5t20.5 10.5q6 16 18.5 21t23.5 7.5t19.5 6.5 t8.5 16q0 16 20.5 22.5t32.5 10.5q2 6 14.5 15t29.5 21.5t33.5 26t26.5 25.5q4 6 18.5 15t24.5 9q14 23 42 30t57 30q12 10 41.5 31.5t60.5 43t55.5 38t26.5 16.5l17 -2q4 0 15 12t23.5 27.5t23.5 29t15 13.5t8.5 -2t8.5 -4q6 4 8 9l4 10t7 8t18 3q12 0 26.5 -9t26.5 -23.5 t20 -29.5t8 -28l-4 -41q0 -12 6.5 -15t6.5 -13t-4.5 -13.5t-4.5 -11.5l7 -41q0 -10 -3.5 -20.5t-11.5 -16.5q-20 -18 -38.5 -42.5t-34 -48t-27.5 -42t-18 -20.5q-6 -18 -15.5 -30.5t-21 -24t-19.5 -22.5t-10 -26q-4 -10 -6 -10q-18 -23 -28.5 -49.5l-21 -53t-23.5 -52 t-36 -44.5l-4 -18q4 4 12 4t19.5 -7t28.5 -7q33 0 63.5 11t61.5 11l14 -2q8 4 35 4h39q4 0 16 -4t24.5 -10t22.5 -16.5t10 -22.5zM858 999q-16 -10 -32.5 -14t-26.5 -18q2 0 2 2q-8 -16 -21.5 -21.5t-25.5 -11.5l-4 -2q-23 -6 -32 -19.5t-34 -21.5q-23 -4 -38 -18.5 t-30.5 -31t-33 -29.5t-39.5 -13l-4 2q-6 0 -16.5 -18.5t-30.5 -18.5h-3q2 0 -9 -11.5t-32.5 -27.5t-50 -34.5t-59.5 -33.5q-14 -23 -40 -36l-34 -17l17 -18q8 4 12 4l24 -2l21 2l86 -4q10 2 18.5 3t18.5 1q29 0 55.5 -7t54.5 -7q23 0 47 6q14 0 21 -6q4 0 11 1t14 5h-2 q0 10 8 18q16 10 26.5 39t20.5 62.5t23.5 66.5t37.5 49v8q0 18 9.5 28.5t9.5 21.5q0 2 9 15t21.5 31.5t21.5 39t9 36.5z" />
<glyph unicode="5" horiz-adv-x="1038" d="M1159 1210q-2 -4 -3 -7t-5 -7q-10 -8 -17.5 -32.5t-19.5 -52.5t-30.5 -49.5t-49.5 -21.5q-6 0 -13 4.5t-7 12.5q0 6 -8.5 9t-19.5 5t-21.5 4t-14.5 4q-16 -4 -32.5 -7t-32.5 -3l-25 2q-12 0 -27.5 -8t-35.5 -8q-10 0 -25 6l-33 -12q-31 -10 -45 -11l-14 2q-6 0 -9 -7 t-14 -9l-59 -8l-68 -80q-4 -4 -12 -8q-4 0 -8 -6.5t-12.5 -20.5t-21.5 -36.5t-38 -55.5h2q33 2 70 3t76 1q10 0 14 -5t25 -5l16 2q10 0 46 -11.5t74 -25.5t67.5 -30.5t29.5 -24.5q14 -20 25.5 -32.5t19.5 -27t13.5 -35t5.5 -59.5t-6.5 -82t-19.5 -86t-34.5 -83t-54.5 -72v-5 q-4 -14 -23.5 -34.5t-41 -39t-40 -31.5t-24.5 -13v-2q-2 -2 -3 -4.5t-5 -4.5q-16 -8 -31 -16q-29 -14 -49 -14h-6l-6 -9q-6 -6 -17.5 -16t-28.5 -10l-12 2q-16 -20 -45 -43t-59.5 -41t-56 -29.5t-31.5 -11.5t-10.5 2t-8.5 4q-18 -10 -52 -22.5t-60 -12.5q-10 0 -22.5 5.5 t-20.5 5.5q-6 0 -20.5 -8.5t-31.5 -8.5q-4 0 -16 4h-2q-8 -4 -16 -4q-4 0 -20.5 3t-27.5 7l-10 2q-10 -8 -22 -8q-16 0 -24.5 7.5t-14.5 7.5q-4 -2 -12 -2q-20 4 -41 21t-25 46l2 25l-4 53q0 33 17.5 67.5t31.5 36.5h4l6 7q10 0 20.5 -8.5t18.5 -19.5t14.5 -21.5t6.5 -12.5 q2 -16 6 -16h8q18 0 30.5 -6.5t16.5 -6.5t7 3.5t10 3.5l18 2l4 2l6 -2l6 2q16 4 35 4q16 0 25 -4q33 10 77 11t76 17q10 4 27.5 15.5t40.5 11.5q12 0 18 -2q23 20 51.5 29.5t57.5 15.5l6 2q16 16 43 33.5t61 17.5q23 47 76 64q18 18 40 40.5t39.5 49t29.5 55.5t12 60 q0 25 -18.5 44t-44 31.5t-56 19.5t-55.5 7q-6 0 -15.5 -2t-19.5 -2q-8 0 -28 4q-6 -2 -13 -2q-8 0 -14 2h-4q-16 -4 -41 -7t-49 -3h-17q-14 -10 -27.5 -14.5t-27.5 -8.5q-12 -12 -31.5 -16t-41 -8.5t-40 -12.5t-26.5 -26l-17 -15q-6 -6 -20 -6q-10 0 -19 6h-6 q-16 0 -39.5 28t-27.5 91v23q0 74 57 100q6 16 17.5 25.5t21.5 13.5q10 14 23.5 34.5t26.5 42t28.5 41t32.5 29.5h2q-2 2 -2 9q0 10 16 23t16 28l13 12v4q0 18 10 26.5t10 16.5q-12 31 -12 60q0 78 31.5 101t85.5 30q4 0 6 -1t4 -1l10 4h6q29 4 40 13t28 9q14 0 26 -8h2 q0 -2 5.5 7t21.5 9q10 -2 16.5 -3t10.5 -3h2q8 0 25.5 4t37.5 4q12 0 23.5 -1t21.5 -3q20 4 45 4h54l45 -2q16 0 29.5 3.5t23.5 3.5q6 0 12 -7q12 4 30.5 11.5t35.5 7.5q18 0 24 -12q20 8 31 8q-2 0 6 0t18.5 -3t19.5 -10.5t9 -19.5q0 -15 -4 -25z" />
<glyph unicode="6" horiz-adv-x="909" d="M918 1182q0 -8 -1.5 -22.5t-4.5 -28t-10 -22.5t-19 -9l-47 10q-4 0 -8.5 -3t-8.5 -3l-16 4q-12 0 -26.5 -8t-30 -18.5t-28.5 -19.5t-26 -11l-51 -33q-25 -35 -56.5 -56.5t-62.5 -52.5l2 2q-16 -18 -36.5 -31.5t-41.5 -25.5q-14 -33 -43.5 -62.5t-52.5 -74.5h15q0 2 9 8 t22.5 12t27.5 11.5t25 5.5q10 0 17 -4.5t15 -4.5q10 0 16.5 12.5t30.5 12.5q4 0 7.5 -1t7.5 -1q14 4 28 4h29h66q10 0 16 -5t23 -5q20 0 38.5 -11.5t33 -26.5t25.5 -34.5t21 -34.5q14 -4 11 -13t6 -17q25 -23 33 -48.5t8 -54.5v-82q0 -23 -8.5 -43t-19.5 -38.5t-23.5 -39 t-18.5 -43.5q-2 -6 -17.5 -24.5t-34 -38.5t-34.5 -36.5t-23 -16.5q-16 -2 -24 -11.5t-16.5 -20.5t-17.5 -22.5t-26 -17.5q0 -16 -28.5 -34.5t-50.5 -28.5q-4 -8 -16.5 -19.5t-28 -22t-29.5 -17.5t-21 -7q-2 0 -10 4l-4 -2q-18 -14 -37.5 -24.5t-44.5 -10.5h-117 q-35 0 -60.5 20.5t-46 50.5t-34.5 63.5t-24 60.5q-20 41 -24.5 93t-4.5 99q0 35 2 69t6 69q-12 10 -28.5 41.5t-16.5 46.5q0 2 7 19t19.5 35.5t30 34t37.5 15.5q4 0 8 -2q6 6 10.5 12t10.5 11q0 20 10 30.5t20.5 15.5t19.5 10t9 17v-2q2 0 6.5 12.5t12.5 28t17 29.5t20 18 q16 6 27 25.5t22.5 41t24 41t30.5 25.5q8 2 23.5 22.5t34 44.5t38 46.5t39.5 30.5q6 2 15.5 14t21.5 27.5t28.5 31t35.5 23.5q10 29 28 29q6 0 10 -2q2 4 21.5 24.5t46.5 44t56.5 43t54.5 19.5l16 -6l43 6q20 0 33.5 -18.5t19.5 -45t8.5 -56t2.5 -52.5zM776 530 q-37 29 -62.5 41.5t-64.5 14.5l-24 -2q-27 0 -51.5 8t-49.5 8q-12 0 -20 -4t-19 -8q-35 -12 -73.5 -18.5t-77.5 -6.5h-17q-23 -14 -45 -29.5t-49 -27.5q0 -6 -7 -18.5t-15 -25.5t-16.5 -25.5t-12.5 -16.5q-6 -35 -6 -70q0 -16 3 -33.5t15 -29.5q6 -8 8.5 -20.5t8.5 -27 t18 -28.5t39 -23q16 -4 32.5 -5t33.5 -1q16 0 30.5 -1t24.5 -7l23 7q24 7 51.5 15.5t54.5 15.5t33 7q4 0 19 19.5t24 23.5q37 23 62.5 48.5t47.5 58.5q25 35 53.5 71.5t28.5 83.5v6z" />
<glyph unicode="7" horiz-adv-x="786" d="M1053 1155q-10 -27 -25.5 -47.5t-32.5 -20.5h-4q-4 0 -24.5 -12t-45 -31.5t-46 -43t-27.5 -46.5q0 -2 -10.5 -13t-25.5 -26.5t-31.5 -35t-28.5 -39.5q0 -4 -9.5 -14.5t-19.5 -21.5t-20.5 -24.5t-12.5 -23.5q-2 -8 -10 -17q-6 -8 -15.5 -17t-19.5 -17q-18 -12 -39.5 -39 t-44 -59t-45 -63.5t-41.5 -56.5q-20 -20 -35.5 -43.5t-33.5 -40.5q-18 -14 -29.5 -36.5t-22 -45t-23 -45t-30.5 -36.5q0 -18 -13.5 -54t-31.5 -51q-16 -14 -25.5 -43t-29.5 -49q-2 -18 -10.5 -28.5t-17.5 -17.5t-16 -14.5t-7 -19.5v-4l-13 -25q0 -14 -17.5 -18t-21.5 -4 q-18 0 -28.5 11t-14.5 22q0 2 -2 4q-6 12 -12 16t-11 6t-8.5 4t-3.5 13v8q0 18 -9 37.5t-9 46.5t8 49.5t20.5 43t25 38.5t20.5 39v-2l5 8t11 17.5t12.5 18.5t10.5 11l22 6q6 25 17.5 37t24.5 21.5t25.5 19.5t16.5 31q0 4 2 6q37 61 81 108.5t83 104.5l2 2q10 10 28.5 29.5 t22.5 21.5l2 6q2 6 5.5 14.5t11.5 12.5q35 27 52 54.5t26 29.5l-3 -2l14 10q13 10 28.5 24.5t27.5 27t12 16.5v8q0 8 2 10q14 20 30 33.5t30 28t24.5 31t12.5 44.5q0 12 10 19l7 9q7 9 16.5 19.5t17.5 20.5t8 14l-2 15q-41 0 -96.5 -10.5t-106.5 -10.5q-10 0 -19 2t-18 2 l-2 -2q-6 -10 -18 -10q-4 0 -6 2l-4 -4q-8 -4 -15 -4l-24 2q-43 0 -80 -11.5t-70 -23.5l-30 2q-10 0 -17 -2q-16 0 -33.5 4t-31 16.5t-22.5 35t-9 59.5t12.5 72.5t42.5 35.5q16 0 26.5 -3t20.5 -3q4 0 9.5 2t11.5 2l28 -8q6 0 16.5 1t22.5 1q16 0 25 -4q27 6 43 6 q10 0 18.5 -3t14.5 -3q45 14 100 14q14 0 27.5 -1t27.5 -3q8 4 27 4q16 0 33 -6q41 10 78 10q39 0 79 7q10 0 31 -4.5t39 -4.5h10l11.5 11.5t19.5 7.5h-2q16 -2 31 -8q12 -4 22.5 -14.5t10.5 -24.5q0 -6 -5 -19l5 -8q0 -4 4 -8l6 2q12 0 26.5 -17.5t14.5 -44.5q0 -10 -2 -16 z" />
<glyph unicode="8" horiz-adv-x="1101" d="M1110 1090q2 -6 2 -15v-12q0 -23 -8 -45q2 -2 2 -8q-2 -27 -26.5 -61t-59.5 -60q-18 -14 -30.5 -26.5t-25 -24t-32 -23.5t-53.5 -24l-19 -9q-29 -12 -48 -22t-34 -25q2 -2 12.5 -9t22.5 -21.5t25.5 -38t23.5 -56.5l6 -4q10 -6 13.5 -32.5t3.5 -38.5q0 -29 -9.5 -69 t-23.5 -77t-28.5 -62.5t-22.5 -25.5v-6q0 -18 -15.5 -35.5t-37 -35t-43 -34t-33.5 -30.5q-12 -12 -35 -21.5t-33 -36.5q-8 -10 -15 -11t-28 -15l-6 -10q-4 -6 -10 -11l-19 -6q-12 -4 -28.5 -11t-31.5 -15.5t-28.5 -13.5t-15.5 -5q-6 0 -10 2q-14 -4 -27.5 -18.5t-42.5 -14.5 q-12 0 -18 2q-16 -10 -33 -10l-39 2l-4 2q-8 -2 -23 -2q-23 0 -41 5t-34 5l-5 -2q-4 0 -10 7q-49 25 -93 73.5t-44 130.5v129l-2 37q14 66 47 116t74 88t86 65.5t86 50.5l12 6q4 4 8 4q29 2 47.5 16.5t44.5 30.5l-22 14q-4 0 -21.5 8.5t-39 21.5t-38 31.5t-16.5 43.5l-2 10 v43q0 47 11.5 92t54.5 66q14 27 33.5 38t40 17t40 12.5t31.5 22.5q2 2 34 17.5t74 31.5t84 30.5t64 14.5q4 0 6 -2l15 4q20 8 52 18.5t54 10.5q23 0 26 5t13 5h16q16 0 34 3t36 3q25 0 41 -8l27 -10q10 0 18 -9.5t13 -21.5t8.5 -23.5t3.5 -17.5q0 -12 -3.5 -24.5t-3.5 -16.5 q0 -6 7 -8q16 -6 16 -29q0 -20 2 -32zM764 469q-16 47 -28.5 64.5t-16.5 33.5h-4q-6 0 -10 2q-6 4 -28 19.5t-47.5 33t-50 31t-36.5 13.5q0 -10 -28 -30t-63.5 -40.5t-70.5 -40.5t-51 -33q-10 -16 -27.5 -40.5t-34.5 -39.5q-49 -47 -92 -100t-55 -125q6 -8 9 -14t7 -10 q8 -12 11.5 -14.5t13.5 -8.5q4 0 8 -4h-2q4 -2 10 -2h19q18 0 31.5 3t17.5 3q8 0 17 -6t20 -6q18 0 40.5 7t47.5 7q14 0 22 -2q8 8 18.5 11t14.5 3q4 2 23.5 11.5t33.5 13.5q14 2 18.5 5t6.5 6t3 6t7 5q33 16 72 40t74.5 53.5t62.5 65.5t37 79zM975 1079l-3 9q-3 8 -9.5 17 t-13.5 16t-13 7q-16 0 -32.5 -8t-41.5 -8q-4 0 -8 1t-8 1q-74 -12 -126 -29.5t-90 -37t-66.5 -38t-53.5 -34.5q0 -6 10 -20.5t27.5 -30t40 -27.5t47.5 -12h6q8 0 31.5 4t75.5 22l14 4q18 18 35 19q8 0 10 -2q23 12 47 29q10 6 30.5 15t40 23.5t35 33t15.5 42.5q0 2 -1 3 t-1 3v2z" />
<glyph unicode="9" horiz-adv-x="968" d="M969 1057q-2 -16 -3 -34.5t-5.5 -36t-13.5 -32t-27 -20.5q-6 -12 -22.5 -28.5t-16.5 -26.5q0 -4 3 -9.5t3 -11.5q0 -10 -13 -16q-16 -10 -26 -40t-23 -52l-125 -244q-4 -8 -12 -10q2 6 -9 -14.5t-27.5 -47t-33 -51.5t-22.5 -27l-12 -20q-11 -21 -27 -47.5t-34.5 -53 t-33.5 -40.5q-2 -6 -6 -16.5t-8 -22t-10 -20.5t-12 -11l-33 -39q2 -6 4 -14.5t2 -14.5q0 2 -12.5 -16t-29.5 -44t-36.5 -51.5t-34.5 -37.5l-4 -8q-10 -23 -24.5 -48.5t-29.5 -50t-31.5 -43t-35.5 -26.5q-4 -8 -21 -17.5t-35.5 -17.5t-33.5 -13l-16 -6q-18 0 -27 21h-4 q-16 0 -21 14.5t-6 31.5t-2.5 33.5t-9.5 20.5q-10 4 -13 18.5t-3 24.5q0 41 37 41q14 0 20 -2q10 25 31.5 30t26.5 15v-2q2 0 8 12.5t17 29t26.5 30.5t36.5 18q14 14 19 29.5t15 24.5l-2 -2q16 25 46 57.5t40 62.5q0 2 11.5 20.5t25 39t24.5 37t15 16.5q0 14 24.5 46 t41.5 61q14 14 20 30.5t11.5 32.5t12.5 31.5t25 25.5q2 12 11.5 36t25.5 28q-2 -2 1 4t8.5 16.5t10.5 20.5t5 16q0 4 -4 4q-10 0 -29.5 -14t-42 -33.5t-47.5 -38t-45 -24.5q-35 -10 -62.5 -31t-56.5 -31q-10 -4 -33.5 -6t-29.5 -10q-8 -8 -41 -11t-58 -3q-29 0 -53.5 21.5 t-42.5 52t-29.5 64.5t-11.5 58q0 29 11.5 58.5t29.5 57t39.5 51.5t42.5 42q27 23 46.5 53.5t49.5 55.5q18 14 30.5 31.5t26 36t28 33.5t34.5 26q4 6 19.5 24.5t41.5 24.5l-2 4q0 6 12.5 17t28 23.5t30.5 24t22 17.5q-2 -2 8 4t25.5 15t31.5 18.5t29 13.5q14 16 31.5 22.5 t33.5 20.5q-4 -4 14.5 5t44 21.5t52.5 22.5t43 12h10q10 0 26.5 -2t32 -13t26.5 -33.5t11 -61.5q0 -6 -2 -10.5t-6 -8.5q23 -16 31 -40.5t22 -34.5q4 -2 8.5 -11.5t7.5 -22t5 -24.5t2 -20q0 -23 -12 -41zM795 1192q-16 -4 -24.5 -8t-14.5 -9.5t-13.5 -8.5t-19.5 -3 q-27 0 -41 -18.5t-37 -28.5q-23 -2 -42 -16.5t-38.5 -30.5t-39 -29.5t-40.5 -13.5q-49 -37 -78.5 -67.5t-68.5 -57.5q-2 -23 -15.5 -31t-29.5 -14q0 -33 -25.5 -52.5t-48.5 -35.5q-4 -20 -17.5 -46t-17.5 -28v-6q14 -10 27 -10l86 14q4 0 4 -2q8 4 15.5 7t15.5 8v-3 q2 0 23.5 10.5t49 24t54 23.5t41.5 10q66 45 122 98.5t107 112.5l-2 12q0 18 9 34.5t20.5 32t20.5 29t9 21.5q0 16 8.5 17t8.5 16q0 12 -3 24.5t-5 24.5z" />
<glyph unicode=":" horiz-adv-x="466" d="M463 678q4 -16 4 -21q0 -10 -5 -25.5t-12.5 -29.5t-14.5 -23.5t-13 -9.5q-2 0 -10.5 -8t-21.5 -16t-28.5 -15.5t-29.5 -7.5l-14 3q-13 3 -29.5 7.5t-30.5 11.5t-14 15v4q0 10 -9.5 27.5t-9.5 40.5q0 -4 6.5 16.5t19.5 47t37.5 50t61.5 23.5q4 0 14.5 -3t14.5 -7q4 2 14 2 q23 0 36 -17.5t13 -29.5l-2 -13q0 -8 3 -10t7.5 -3t7.5 -2t5 -7zM240 125q4 -16 4 -21q0 -10 -5.5 -24t-11.5 -28.5t-14 -25t-14 -12.5q-4 0 -12.5 -7t-20.5 -16t-27.5 -16.5t-34.5 -7.5q-23 8 -42 13.5t-32.5 14.5t-21.5 28.5t-8 54.5q0 6 6 24.5t20.5 40t38 41t60.5 27.5 q8 -6 16 -6h6q2 0 3 2l6 -2q12 4 18 4q23 0 33 -19.5t10 -35.5q0 -10 3 -13.5t6 -4.5t7.5 -3t6.5 -8z" />
<glyph unicode=";" horiz-adv-x="575" d="M567 678q4 -16 4 -21q0 -10 -5 -25.5t-12 -29.5t-14.5 -23.5t-13.5 -9.5q-2 0 -10 -8t-21.5 -16t-28.5 -15.5t-30 -7.5l-13 3t-29.5 7.5t-31 11.5t-14.5 15v4q0 10 -9 27.5t-9 40.5q0 18 10 35q4 10 15.5 27.5t26.5 33.5t34.5 28.5t38.5 12.5q4 0 14 -3t14 -7h2q0 2 2 2 l2 2h7q29 0 40 -17.5t11 -33.5l-2 -11q0 -8 3 -10t7 -3t7 -2t5 -7zM420 256q4 -8 4 -14q0 -10 -5 -16.5t-9 -10.5q0 -6 -2 -8q-20 -57 -57.5 -111.5t-74.5 -95.5q-10 -16 -32.5 -42t-47 -48.5t-45 -38.5t-26.5 -16q-10 -2 -18.5 -9.5t-19.5 -16.5t-24.5 -16.5t-31.5 -7.5 q-31 0 -31 25q8 31 32.5 61.5t51.5 57.5v6q0 14 8 26.5t17.5 21.5t17.5 16.5t8 13.5q0 4 -4 11t-4 17q0 16 7 29.5t14.5 25t14.5 23t7 23.5v10q0 6 2 8q14 20 26.5 41t31 37t48 27.5t82.5 11.5q8 0 17.5 -1t13.5 -7q8 -4 13.5 -10.5t9.5 -10.5l6 -12v0z" />
<glyph unicode="&#x3c;" horiz-adv-x="655" d="M653 1212q-4 -20 -24 -20q0 -2 -4 -6l-2 -2q-4 -10 -13 -13q-12 -4 -21 -11t-20 -17q-12 -10 -29.5 -21.5t-35.5 -23.5h-4q-10 0 -15 -8q-2 -4 -2 -9q-4 -14 -18 -14h-2q-10 -10 -21 -12q-8 -12 -16 -20.5t-16 -14.5q-6 -4 -17 -14q0 -4 -4 -9q-4 -6 -9 -8t-9 -2h-2 q-12 -20 -27.5 -34.5t-30.5 -28.5q-18 -14 -32.5 -27.5t-18.5 -30.5q0 -4 -2 -4q-14 -23 -45 -43q-12 -10 -23.5 -20.5t-15.5 -20.5v-2q0 -4 5 -11t9 -15l5 -5q-2 0 -3 3q6 -8 8.5 -17.5t4.5 -17.5q4 -18 8 -23q6 -6 6 -14q2 -27 10 -35q10 -6 13 -10q2 -4 6 -17 q6 -14 16 -28l4 -2q12 -6 19 -33v-4q0 -6 -2 -8v-4l2 -5q6 -6 18 -29.5t12 -43.5q0 -4 -1 -6t-1 -5v-2q0 -8 19 -22q10 -8 20 -19.5t10 -27.5q0 -10 -10 -27q0 -31 -18.5 -57.5t-40.5 -44.5q-6 -4 -13.5 -5t-11.5 -1l-10 -2q-10 0 -12 6q-12 14 -22.5 38.5t-18.5 65.5 q-14 29 -26.5 55.5t-26.5 53.5l-25 51q-2 4 -2 12q0 4 -4 14.5t-8 20.5q-2 2 -4.5 3t-4.5 5q-8 8 -8 23v6l-20 39q-10 23 -20.5 42t-14.5 29q-4 4 -12.5 21.5t-8.5 34.5q-4 4 -9 7t-9 13q-4 6 -4 17q0 20 16.5 35.5t24.5 19.5l4 6q4 10 14.5 20.5t28.5 14.5q2 0 6 2t4 4v6 q0 8 2 10q10 14 24.5 24.5t29.5 20.5q10 6 18 13.5t12 13.5l101 86q4 4 12 4t10 -2l4 4q2 2 3 4t5 4q4 20 16.5 28.5t22.5 12.5q18 6 27 19q8 14 18.5 21.5t20.5 13.5t17 11t12 17q0 2 4 6q8 10 19 17.5t22 15.5q14 10 27.5 21.5t19.5 21.5q8 8 18 8h10q6 0 11 -2q8 4 16 4 q10 0 16 -4l4 -2h3q4 -4 15 -17t15 -30q4 -6 4 -16t-2 -14v-5z" />
<glyph unicode="=" horiz-adv-x="851" d="M864 891q0 -25 -11 -47.5t-27.5 -40t-33 -27.5t-24.5 -10h-20q-8 0 -13 4q-4 -2 -12 -2q-6 0 -12 2q-2 -2 -11 -2h-6q-8 -4 -10 -4q-18 0 -32.5 6t-26.5 6l-27 -8h-174q-8 0 -16 8q-12 0 -25.5 -7t-30.5 -7q-23 0 -48 6t-42 6l-98 -10q-14 0 -36 7t-22 24q0 29 17.5 58.5 t46.5 45.5q2 0 6 5t12 5t23.5 -3t34 -6t35 -6t28.5 -3q18 0 21 2v-2q4 8 26.5 9t44.5 1h25q25 0 47.5 -3t44.5 -3q6 2 19 2h28q10 0 17 -4q12 4 16 4q6 0 18 -4q4 4 15 4q10 0 14 -2h2q4 2 17 2q8 0 14 -2l33 2q33 4 68.5 5t60.5 7h4q20 0 20 -18zM817 655q2 -2 2 -6 q0 -8 -16.5 -24.5t-37 -31.5t-42 -27.5t-29.5 -12.5h-4q-33 0 -50 -2t-25.5 -4t-11.5 -4t-7 -2q-8 0 -17.5 4t-25.5 4h-16q-8 -8 -27 -8l-18 2h-66q-45 0 -87 -1t-87 -5q-6 -6 -16 -7l-17 5q-18 4 -26 12q-14 0 -30 -10.5t-32 -10.5l-55 6q-4 0 -7 -1t-8 -1q-8 0 -12 2 l-39 29q-10 6 -10 17q0 2 4 10q25 49 45.5 63.5t59.5 14.5l73 -4q10 0 20.5 6t24.5 6q8 0 18.5 -4t10.5 -8q16 0 20.5 6t14.5 6l28 -6q2 2 9 2q4 0 6 -2l18 2q27 0 50.5 -4t46.5 -4t38 11t25 11h14q8 0 15 -6l37 -4q10 -4 12 -8q4 4 12 8t19 4l57 -4q29 0 56.5 3t51.5 7 q12 0 20.5 -9.5t10.5 -19.5z" />
<glyph unicode="&#x3e;" horiz-adv-x="618" d="M604 774l-6 -10t-17.5 -23.5t-25.5 -29t-31 -23.5q-10 -6 -15 -13t-9 -15.5t-11.5 -16.5t-21.5 -16l-2 -2q-16 -8 -41 -35t-60.5 -67t-83 -93t-108.5 -115q-23 -18 -32 -32.5t-15 -25.5t-12.5 -16t-20.5 -5h-2q-6 0 -21.5 4t-30.5 14t-26.5 26.5t-11.5 45.5q0 4 2 7t2 9 q2 8 25.5 31.5t52.5 51.5t57.5 54.5t42.5 40.5q66 53 133.5 117.5t126.5 134.5q14 12 15 29q0 23 -16.5 49.5t-18.5 46.5q-10 29 -30.5 60.5t-20.5 54.5l2 6q-4 4 -9.5 10t-5.5 16q0 4 4 9q0 4 -4 16t-16 41q-20 4 -26.5 19.5t-8.5 23.5q0 10 -4 14t-4 11q0 39 24.5 56 t41.5 34l2 2q6 4 14 5t12 3h4q4 2 15 2q10 -2 14 -9t6 -7l2 -7q12 -33 28.5 -70.5t26.5 -64.5l11 -24q14 -33 21 -46.5t7 -19.5q8 -29 25.5 -56.5t26.5 -62.5q0 -4 -1 -5t-1 -11l20 -51v-4q4 -6 9 -17.5t5 -25.5q0 -15 -8 -25zM397 1278q-2 -2 -4 -2z" />
<glyph unicode="?" horiz-adv-x="866" d="M571 700q-14 -16 -33.5 -29.5t-37.5 -23.5q-4 -2 -14.5 -8t-20.5 -13.5t-19.5 -12.5t-11.5 -5q-23 -6 -38 -17t-28.5 -24.5t-26.5 -28t-32 -26.5q-8 -6 -11 -16.5t-5 -23.5t-7 -26.5t-20 -25.5q-2 -12 -3 -27.5t-5 -30t-12 -25.5t-23 -15q-33 -8 -55.5 -25.5t-67.5 -17.5 q-10 0 -20 8t-10 18t4 12q-6 12 -6 23l6 41q0 6 10 30.5t24.5 52.5t31 49.5t28.5 23.5q39 70 113 108q25 12 58.5 39t74.5 43t70.5 46t66.5 50q10 18 26.5 31.5t32.5 24.5q0 29 13.5 42t21.5 35q0 29 8.5 48.5t18.5 44.5v4q0 31 -7.5 47t-20.5 26.5t-29.5 18.5t-34.5 24 q-35 0 -65 -6t-64 -8q-16 -23 -45 -30t-35 -15q-6 -10 -17 -10h-6q-4 -14 -16.5 -23.5t-26.5 -17.5t-24.5 -15.5t-10.5 -19.5q0 2 -6 -9t-16 -26.5t-22.5 -29t-22.5 -13.5q-29 0 -45.5 16.5t-16.5 43.5q0 33 8.5 52t19.5 30.5t20.5 17.5t11.5 10q18 39 62 77t99.5 66.5 t116 46t113.5 17.5q61 0 65 -4q10 -4 34 -6t32 -8h6q20 0 45 -17.5t45.5 -42t33.5 -52.5t13 -48q0 -6 -4 -15q10 -14 10 -24l-2 -10q-25 -98 -64.5 -186.5t-131.5 -141.5q-25 -18 -49.5 -38t-53.5 -30zM203 125q0 -8 -3 -21.5t-9.5 -29t-15.5 -28.5t-21 -19v-11 q0 -59 -64 -59q-41 0 -69.5 15.5t-28.5 64.5q0 16 3 31.5t5 31.5q0 10 9 28.5t24.5 36t35 31t37.5 13.5q45 0 71 -24.5t26 -59.5z" />
<glyph unicode="@" horiz-adv-x="1435" d="M1458 1008q0 -4 -5 -15.5t-5 -29.5v-23q0 -41 -11.5 -66.5t-15.5 -70.5q-10 -115 -49 -129l2 -4q2 -4 4 -9.5t2 -11.5q0 -10 -22.5 -36.5t-42.5 -80.5q0 -10 -8.5 -22t-18.5 -23.5t-20.5 -20.5t-12.5 -15q-53 -66 -112.5 -109t-120.5 -104q-16 -16 -55 -37t-78 -21 q-16 0 -27 2q-4 0 -15 14.5t-22.5 37t-19.5 50t-8 54.5v6t2 4q-6 10 -8.5 23.5t-2.5 25.5q0 16 2.5 30.5t4.5 29.5v2q14 14 16 49t8 61q-8 -8 -20 -14v-4q0 -14 -20.5 -39t-43.5 -41q-16 -12 -20 -27.5t-8 -17.5q-10 -18 -23.5 -27.5t-25 -15.5t-19.5 -13.5t-8 -21.5v-6 q0 -18 -19.5 -26.5t-27.5 -10.5q-12 -12 -28.5 -29.5t-38 -34t-49.5 -27.5t-60 -11q-16 0 -34 10t-34 29.5t-26.5 46t-10.5 57.5q0 41 15.5 77t15.5 69q0 2 9 22.5t24.5 48t37 56t44.5 45.5q2 29 16 48t31 36l2 4q8 6 22 6l2 2q4 16 13.5 26.5t19.5 28.5h2v4q0 20 23 21 q8 0 13 7t12 16t17.5 18.5t26.5 13.5q43 59 99.5 103t115.5 67q4 2 10 2q4 0 7 -2q12 31 41 31h6q25 12 59 12q10 0 19.5 -1t19.5 -3q8 -4 23.5 -15.5t31 -25.5t26.5 -29.5t11 -27.5l2 -17q0 -12 -9 -17t-21.5 -7t-25.5 -3t-24 -4q-8 -2 -25.5 -8t-37 -12t-33.5 -11t-16 -5 q-92 -31 -159 -81t-120 -113.5t-102 -134.5t-111 -140q2 -2 2 -9q0 -23 -16 -34t-14 -9q2 -4 2 -8v-2q4 0 13 -4t15 -4l2 2q16 10 40 24.5t46 26.5q29 16 52.5 40t33.5 28l15 6q47 49 95 112.5t95 108.5q0 14 31 45q8 6 12 17.5t9 24.5t13.5 24.5t24.5 17.5q4 4 9.5 14.5 t12.5 21.5t17 20.5t25 9.5q12 0 27.5 -9.5t28.5 -26t22.5 -36.5t9.5 -45q-10 -10 -15.5 -16.5t-9.5 -9.5t-9 -4t-13 -1q4 -4 7 -9t3 -9q0 -6 -4 -10q-86 -166 -119 -371q4 -12 10 -14q33 6 58.5 20t60.5 25q25 14 52.5 36.5t52 45t42 41t21.5 24.5q-2 8 -2 18 q4 12 13.5 18.5t17.5 10.5l4 2q4 4 14 29q14 41 26.5 75.5t23 67.5t16.5 67t6 75q0 23 -3 56.5t-9.5 69t-15.5 67.5t-21 50q-4 8 -4 13q0 4 4 12q0 -2 -7.5 8t-18.5 25.5t-24.5 31t-27.5 23.5q-20 16 -41 31q-16 10 -35.5 20t-36.5 10l-6 -2q-4 0 -22.5 2t-32.5 13 q-8 -4 -13 -4h-12q-27 0 -52.5 -6.5t-53.5 -6.5l-25 2q-16 -8 -43 -26.5t-47 -18.5l-4 2q-4 0 -6 -2l-6 -6t-19.5 -10t-43 -20.5t-67.5 -40t-96 -64.5q-10 -14 -27.5 -34.5t-36 -39t-35.5 -33t-28 -18.5q-4 -6 -14 -22.5t-24.5 -35l-29 -37t-26.5 -30.5v-4q-4 -20 -11 -42 t-34 -32q-2 -12 -11 -39.5t-20.5 -55.5t-23.5 -48.5t-21 -20.5q0 -6 2 -17t2 -24q0 -6 -3 -28.5t-8 -51l-10 -57t-11 -47.5q10 -10 10 -24q0 -10 -2 -13q0 -18 4 -18t4 -10l-2 -9l2 -4q6 -12 6 -22q0 -4 -4 -13q8 -23 15.5 -50t23.5 -42l6 -11t15.5 -25.5t18.5 -27.5t13 -18 q23 -41 52.5 -62.5t68.5 -41.5h10q8 0 17 -8h4q10 -2 17 -3t18 -12l8 -2l6 -4h6q12 -2 26.5 -4t26.5 -12h80q16 0 25.5 -3t21.5 -3q4 0 30 5t75 5h12q23 10 51 14q-4 -2 28 9.5t75 30t85 41t62 42.5q35 35 61.5 57.5t49.5 51.5q8 8 22.5 30.5t30.5 46t33.5 42t29.5 18.5 q8 0 17 -8l6 -8q14 0 14 -21q0 -27 -14 -58.5t-33.5 -62t-41 -56.5t-40.5 -40q-4 -4 -16 -20.5t-30.5 -36t-42 -38t-48.5 -26.5q-33 -33 -59.5 -44t-55.5 -34q-4 -4 -14 -7t-24.5 -7t-28 -8t-21.5 -8q-47 -23 -122.5 -39.5t-157.5 -16.5q-20 0 -40 1t-40 3h-6q-14 0 -23 7 h-26q-14 0 -27.5 2t-20.5 8l-26 4q-8 4 -12 8l-29 6q-2 0 -10 4l-21 7q-33 10 -65.5 34.5t-55.5 46.5l-16 7q-16 8 -32.5 32.5t-32 52t-29 53t-23.5 36.5q-4 4 -12 28.5t-17.5 62.5t-15.5 84t-6 91q0 78 16.5 146.5t41 129t56 112.5t62.5 99l6 11q37 57 84 116.5t99.5 113.5 t107.5 98t109 69v2q16 6 28.5 13t26.5 16q12 8 41 22t59.5 29.5t60 27t46.5 11.5h8q10 0 16 -6q6 10 24.5 17t37 11t32 5t11.5 1l4 -2q16 0 19 6.5t14 6.5l110 -4q35 -2 51.5 -12.5t32.5 -12.5l8 2l16 -5q17 -5 38.5 -12.5t42 -19.5t30.5 -29l13 -12q37 -37 73.5 -114.5 t36.5 -188.5q0 -16 -1 -30.5t-3 -30.5z" />
<glyph unicode="A" horiz-adv-x="1028" d="M1059 889q-10 -33 -32.5 -58.5t-47.5 -42.5q-27 -20 -32 -35.5t-9 -50.5l-2 -28q-12 -41 -19.5 -87t-7.5 -93v-17q0 -10 -9 -17t-19 -7q10 -8 11 -19.5t1 -21.5v-2q0 -27 -5 -62l-9 -63q8 -10 8 -23q0 -10 -2 -16t-2 -13v-6q0 -6 -3 -14t-10 -8q4 -4 4 -15v-18t-2 -16 q4 -10 5 -25q0 -14 4 -22q0 -6 -1 -13.5t-12 -11.5q6 -18 6 -37l-2 -49q0 -18 7.5 -29.5t7.5 -21.5l-2 -13q0 -12 3 -25t3 -30q0 -14 -9.5 -32.5t-37.5 -18.5q-4 0 -13 4l-22 2q-8 0 -16.5 -2t-18.5 -2t-21.5 4t-17.5 14q-4 4 -14 8.5t-21.5 10.5t-21.5 17.5t-12 29.5 q0 10 5 21.5t5 25.5l-4 55q0 18 6 35v37q0 72 11 145.5t24 139.5l2 10v27q0 49 16 125q-2 4 -2 8l4 28q0 4 4 9v16t2 25.5t5.5 25.5t9.5 19q4 16 5 39.5t1 39.5q-10 0 -26.5 -10t-43.5 -10h-8q-35 -16 -74 -25.5t-80 -15.5q-10 -6 -29.5 -12t-31.5 -10q-53 -4 -88 -26 t-57.5 -45.5t-32.5 -43t-13 -19.5q-2 0 -3 1t-5 1t-17 -20.5t-31.5 -46t-39 -52t-41.5 -38.5q-8 -29 -39 -49q-25 -25 -43 -65t-55 -62q-14 -35 -28.5 -64t-30.5 -57q-8 -12 -21.5 -45t-31 -67t-36 -59.5t-34.5 -25.5q-18 0 -34.5 15.5t-29 35t-19.5 39t-7 27.5 q6 57 38.5 92t55.5 70q0 -4 13 18.5t32 40.5l8 10q51 68 100.5 134.5t106.5 130.5q18 4 34.5 38.5t43.5 69.5q-10 -2 -24.5 -5t-26.5 -3q2 0 -10.5 -4t-35 -10.5t-54 -11.5t-66.5 -5h-13q-18 -4 -40.5 -7t-32.5 -7l2 2q-6 -6 -17 -6q-6 0 -10 2q-6 0 -13 -1t-18 -1 q-14 0 -22 4l-10 -2q-4 -2 -7 -2q-4 -2 -10 -2q-8 0 -8 8l2 4q-14 14 -14 47q0 18 6 33.5t6 21.5q0 27 18.5 43.5t43 25.5t50 12t40.5 3l12 -2q2 0 4 2l18 -8q4 0 34 11.5t54 15.5q20 0 30.5 3t16 8t8.5 8t11 3h37q23 0 44 6.5t40 6.5l31 -7q23 0 46 10.5t52 16.5l6 8 q14 16 27.5 36t25.5 32q20 14 46 41.5t52.5 60.5t54 67t54.5 60q8 8 23.5 25.5t31 34t27.5 30t16 13.5q8 4 13.5 14t10.5 22.5t14.5 22.5t25.5 16q20 27 39.5 61t43 63.5t51.5 50t65 20.5q23 0 45 -14.5t22 -40.5q0 -4 -2 -6q-14 -29 -17 -59t-3 -62q0 -31 -3.5 -64 t-17.5 -65q-4 -63 -12 -127t-29 -123v-27q16 0 35.5 7.5t42.5 7.5q37 0 37 -23zM805 1130q-8 -8 -14.5 -18t-12.5 -16q-49 -45 -90 -87t-90 -91l-55 -76q63 14 125 14l8 -2l2 2q6 6 14 6l37 -4q25 0 41 6q6 72 17.5 136t17.5 130z" />
<glyph unicode="B" horiz-adv-x="1247" d="M1260 723q6 -37 6 -74v-6q0 -86 -29 -159.5t-61 -137.5q-12 -25 -36 -39t-24 -20q2 -2 2 -8q0 -18 -16.5 -27.5t-20.5 -11.5q2 0 -6 -8.5t-20.5 -18.5t-22.5 -17l-10 -8q0 -14 -28.5 -39.5t-67.5 -51t-76 -46t-51 -22.5q-18 -4 -25.5 -12.5t-12.5 -16.5t-11.5 -14 t-22.5 -9l-4 -2q-29 -8 -53.5 -24.5t-65.5 -16.5q-18 -10 -40.5 -19t-45 -17.5t-41 -13.5t-26.5 -5q-4 0 -7.5 1t-7.5 1q-14 0 -37.5 -7t-51.5 -14t-56.5 -14.5t-54.5 -7.5q-8 0 -17 6q-6 -8 -27.5 -12t-33.5 -4l-41 4q-8 0 -15.5 -3t-13.5 -3q-16 0 -22 12l-10 3 q-11 3 -24.5 13.5t-23.5 30t-10 54.5q0 12 2 18t8 18q4 0 4 11q0 8 3 20t14.5 21.5t40.5 9.5q20 0 32.5 -7t26.5 -7q12 0 14 7t2 19v4q0 12 2.5 25.5t12.5 30.5q0 2 15 29.5t22 49.5q16 49 36.5 84t40.5 56q-4 6 -8 11t-4 15q0 16 12.5 38t14.5 24q23 37 43 69.5t20 75.5 q0 6 4 10q23 37 38.5 76t29.5 79t28.5 80t36.5 79q41 106 80 200.5t93 198.5h-7q-23 0 -41 -9t-41 -13l-4 -2q-31 -4 -60.5 -14.5t-72.5 -10.5q-10 -10 -22.5 -16.5t-24.5 -10.5h2l-17 -7q-18 -7 -38.5 -18.5t-37.5 -22.5t-17 -21q-4 -23 -29 -27t-47 -4q-16 0 -26.5 15.5 t-17.5 34t-10.5 34.5t-3.5 20q0 18 8.5 37t18.5 19q6 4 17.5 14t28 22.5t41 21.5t54.5 13l93 31q10 0 18 -8q12 12 32.5 19.5t44 12.5t46 7t35.5 2h16q4 6 16.5 11t25.5 8t26.5 4t19.5 1q12 0 22.5 -3t18.5 -3q2 0 3 7.5t7 11.5q2 0 7.5 8t14.5 17.5t20.5 17.5t27.5 8 q23 0 34 -13.5t21 -13.5q6 0 13 2q12 0 29.5 -8t23.5 -8q4 0 9 3t9 3q12 0 34 -12t38 -12q4 0 6 1t4 1q14 0 24.5 -1t26.5 -12l11 -4q49 -25 80.5 -65.5t31.5 -94.5q0 -25 -8 -41t-18 -30q-10 -16 -17.5 -44t-15.5 -32q-6 -4 -14.5 -17.5t-17.5 -27.5t-19.5 -25.5 t-22.5 -11.5q-25 -4 -37 -24.5t-39 -42.5h2q10 0 31 -5.5t42.5 -12.5t38.5 -16t24 -16q14 -8 16 -13t2 -9v-2q14 0 28.5 -14.5t26 -33t19.5 -38t8 -29.5t11.5 -22.5t15.5 -26.5zM1149 582q0 27 -9.5 52t-37.5 54q-10 10 -24.5 14.5t-30 7.5t-32 8t-32.5 15l-47 6 q-4 0 -21.5 5.5t-25.5 9.5q-8 -4 -25 -4q-10 0 -24.5 3t-34.5 3q-23 0 -26 -7.5t-15 -7.5q-16 0 -25.5 12.5t-14.5 28t-7 30.5t-6 22q6 16 13 41.5t16.5 51t22.5 47t30 30.5q25 4 26.5 12t11.5 8t37 17.5t86 76.5l20 16q19 15 41.5 37.5t42 48t21.5 48.5q-2 2 -15 7 t-31.5 10t-40 8t-40.5 3q-18 0 -35.5 -2t-31.5 -8v-2q0 -8 -9.5 -22.5t-24.5 -32t-32.5 -36.5t-36.5 -34q0 -25 -11 -42t-23.5 -31.5t-23.5 -28t-11 -27.5l-5 -13q-6 -13 -15 -34.5t-22.5 -46.5t-27.5 -45v-12q0 -31 -12.5 -56.5t-27.5 -50t-27.5 -47.5t-12.5 -47v-14 q0 -6 -4 -13q0 -4 -7 -9t-17.5 -15.5t-19.5 -25.5t-11 -38q-12 -23 -18.5 -65.5t-11.5 -89t-14 -87t-30 -61.5q-16 -43 -31.5 -92t-15.5 -102q0 -16 5 -17.5t11 -9.5q12 8 36 16t48.5 15.5t43 11.5t22.5 4q12 0 18 -10q12 12 18.5 15t18.5 7h4v-2q2 4 14.5 16.5t47.5 12.5 q10 0 14 -2l4 6l8 6q14 10 31.5 20.5t34.5 12.5l6 2q2 2 4 2q4 0 8 2q0 12 28 33.5t64.5 46.5t72.5 48.5t52 39.5q6 4 16.5 18.5t24 30t27.5 27.5t29 16q-2 4 -2 10q0 8 6 15q23 23 31 57.5t20 65.5z" />
<glyph unicode="C" horiz-adv-x="1044" d="M1155 1296q0 -12 -4 -16q-16 -20 -16 -57t-21 -66l-10 -24q-29 -68 -71 -136.5t-105 -126.5q-29 -27 -43.5 -51t-18.5 -26q-8 -4 -16 -17.5t-17.5 -29t-21.5 -27.5t-29 -12l-8 2q-10 -4 -21.5 -15.5t-23.5 -23t-27.5 -19.5t-31.5 -8q-10 0 -26.5 8t-33 25.5t-29 45.5 t-12.5 66q0 47 27 68t57 23q6 6 14.5 13t17.5 14t17 12l7 6q47 25 75.5 54.5t57.5 63.5q47 57 92 123t86 160v8h-4q-2 0 -4 -2h-2q-37 0 -64.5 -17.5t-77.5 -23.5q-4 -2 -5 -6t-12 -14t-39 -28.5t-83 -45.5q-4 -4 -21.5 -20.5t-36 -34t-34.5 -31.5t-21 -14 q-33 -18 -59.5 -46t-52 -62t-51 -70.5t-54.5 -73.5q0 2 -12 -22.5t-28.5 -55.5t-33 -58.5t-24.5 -29.5q-6 -6 -18.5 -23.5t-23.5 -38t-20.5 -39t-9.5 -26.5v-8q0 -10 -10 -17q-12 -6 -15 -19t-6 -30.5t-9.5 -34t-24.5 -28.5q2 -4 2 -13q0 -12 -3 -24t-3 -23l2 -12 q0 -10 -8.5 -17.5t-12.5 -11.5v-4q0 -12 2 -49t9.5 -75t18.5 -68.5t30 -30.5l39 -29q10 2 34.5 8.5t77.5 24.5q8 0 22.5 6t31.5 6h8q10 10 21 13.5t22 7.5q10 2 17 11t16.5 21.5t25.5 25t47 20.5q8 12 31.5 27.5t55.5 34t69 42t72 49.5q12 0 21 9.5t18.5 20.5t21.5 20.5 t31 9.5q4 10 17 28.5t32 28.5q57 63 82.5 85t50.5 22q18 0 23.5 -19.5t5.5 -32.5v-32q0 -8 -9 -17q-12 -12 -22 -30.5t-25.5 -41t-38 -47t-61.5 -49.5q-20 -12 -31.5 -24.5t-18.5 -23.5t-14.5 -20.5t-21.5 -17.5q-25 -14 -21.5 -20t-5.5 -15q-4 -4 -20.5 -23.5t-35.5 -41 t-41.5 -38.5t-39.5 -17h-4q-10 0 -14 -8.5t-8.5 -17.5t-12.5 -16.5t-28 -7.5q-16 -16 -41 -35.5t-48.5 -37t-42 -28.5t-24.5 -11l-12 2q-14 0 -22.5 -16.5t-37.5 -18.5q-14 -2 -25.5 -7t-25.5 -12.5t-34.5 -13.5t-53.5 -10q-10 0 -17.5 3t-21.5 3q-49 0 -77.5 24.5 t-33.5 33.5q-59 68 -82.5 149.5t-23.5 165.5q0 104 20.5 191t47 151.5t48 104.5t25.5 51v8q0 4 8.5 17t18.5 28.5t20.5 32t16.5 26.5q14 31 37.5 60.5t47 60.5t46 61.5t37.5 63.5q27 27 65.5 70t76.5 82.5t68.5 69.5t43.5 30h-2l17 10t37.5 21.5t38 22.5t17.5 15l-2 13 q0 20 19 20q27 2 42 13.5t25 22.5t22.5 20.5t32.5 9.5l11 2q10 10 16 10l4 -2l86 16q23 0 39 -14h10q20 0 27.5 -13.5t9.5 -21.5q2 0 2 -4q4 0 14.5 -9t20.5 -24.5t18.5 -36t8.5 -45.5q0 -6 -1 -11t-3 -11q6 -4 12 -9.5t8 -15.5z" />
<glyph unicode="D" horiz-adv-x="1300" d="M1391 821q0 -12 -5.5 -20t-13.5 -17l-2 -2q8 -6 8 -14q0 -29 -10 -54.5t-22.5 -49t-23.5 -44t-13 -36.5q0 -2 -7.5 -14.5t-16.5 -27t-19.5 -27.5t-18.5 -15q2 -2 2 -8q0 -18 -12 -19q-12 0 -18 -18q-4 -16 -15.5 -30.5t-25 -29t-23.5 -28t-10 -29.5l-2 -2 q-4 -16 -16.5 -25.5t-22.5 -17.5l-4 -2q-4 -2 -12.5 -16.5t-26 -34t-45 -42t-66.5 -42.5q2 2 -1 -5.5t-10 -15.5t-16.5 -16t-21.5 -10q-2 0 -5 1t-7 1q2 0 -12.5 -14.5t-34 -32t-38 -32t-26.5 -14.5l-8 2v-2q-2 -8 -24.5 -24.5t-54.5 -34.5t-67.5 -35.5t-62.5 -27.5 q-12 -14 -33 -23l-6 -2q-20 -12 -41.5 -18.5t-44.5 -12.5l-16 -6q-25 -8 -58 -8q-25 0 -52 3t-50.5 10t-40 20.5t-16.5 34.5q0 8 -18.5 35.5t-18.5 60.5q0 18 5 29.5t13 19.5l2 2q-4 4 -4 12q0 -4 10.5 28t28 77t39 92t43.5 74q0 35 17.5 55t17.5 43q0 18 13.5 25.5 t13.5 17.5v10q0 16 13 28.5t13 18.5v4q0 12 10 29h-176q-12 0 -22 10h-6q-6 0 -14.5 3t-14.5 14q-53 14 -86 42.5t-53.5 65.5t-30.5 81t-16 87q0 57 19 124t67 108q10 25 33.5 46t54.5 27v2q0 23 6 31t18 10q20 10 45 36t62 26q0 12 8 20q-2 -2 11 6.5t30.5 17.5t33 17 t19.5 8h8q4 0 18.5 8.5t34 17.5t42 17.5t47.5 8.5q10 0 18 -5l2 2q10 16 24.5 14.5t14.5 2.5h2q23 10 53 14l37 4h27q6 4 18 4h10q8 0 11.5 2.5t7.5 2.5h4q10 0 30.5 -2.5t35.5 -10.5l6 2q8 4 20 4q14 0 25 -10l53 2q6 0 22.5 -7t22.5 -11q16 -6 42 -7t44 -22l25 -6 q25 0 26 -14q2 -4 15.5 -10.5t29 -13.5t29.5 -18.5t20 -25.5q6 -8 26 -18.5t20 -30.5l6 -8q14 -16 27.5 -38t17.5 -48q18 -14 33.5 -46t24.5 -75t15.5 -93.5t6.5 -101.5zM1255 762q27 70 27 147q0 53 -15.5 104.5t-52.5 92.5q-4 8 -4 14v6q0 6 -7 7.5t-16 4.5t-16.5 10 t-9.5 26q0 8 -12 7t-25 19q-66 33 -127 53.5t-153 20.5q-16 0 -31.5 -1t-32.5 -3l-39 -6q-37 -6 -73.5 -10.5t-71.5 -8.5q-41 -14 -67.5 -26.5t-51.5 -12.5q-16 0 -23.5 -12t-19.5 -16l-2 -2q-4 -12 -18 -13h-6q-47 -14 -90.5 -47t-84.5 -61l-20 -15q-20 -14 -45 -38.5 t-45.5 -58.5t-20.5 -73q0 -29 16.5 -49t37 -36.5t41 -29t28.5 -20.5l45 -10q14 0 34 -8t30 -19q4 4 12 5.5t14 1.5q23 0 41 -13q10 6 24.5 9.5t25.5 3.5q8 0 13 -5.5t9 -5.5q2 0 10.5 4t18.5 15q18 51 38.5 95t49.5 87q0 31 14 48.5t19 37.5q2 0 6 8t9 22.5t12 31t16 28.5v4 q2 6 2 21q0 -4 1 16.5t7 45t19.5 46t37.5 21.5q23 0 39 -10.5t27.5 -22.5t17.5 -23.5t6 -13.5l-2 -10q0 -10 9.5 -20.5t9.5 -26.5q0 -6 -2 -8q4 -12 4 -19q0 -20 -8.5 -34.5t-8.5 -24.5v-8q0 -29 -15 -39.5t-26 -14.5q2 0 2 -6v-8q-2 -10 -6 -18q-6 -16 -20 -23h2 q0 -4 -10.5 -20.5t-23.5 -38t-25.5 -43t-16.5 -35.5l-2 -4q6 0 8 -2l2 -2q6 4 19 4q8 -4 10 -6l14 -3l37 9q43 10 89 20t73 27q8 4 12 4q23 0 23 -23q0 -14 -7.5 -30.5t-17.5 -29.5t-20.5 -22.5t-16.5 -9.5h-2q-12 -12 -16 -14l-4 -2l-2 2q-4 0 -19.5 -11.5t-37 -25.5 t-46 -25.5t-47.5 -11.5h-6q-2 -4 -17.5 -11t-36 -14.5t-42 -15.5t-35.5 -12q-27 -14 -42 -44t-19 -32h2q2 0 -10.5 -17.5t-26.5 -17.5q-10 -23 -15.5 -48t-27.5 -44q-2 -16 -12.5 -45t-22.5 -57.5t-23.5 -52t-15.5 -27.5l-2 -8q0 -10 -12.5 -23.5t-12.5 -50.5 q0 -23 14.5 -28t16.5 -5t5 1t7 1l27 4q12 4 26.5 6t32.5 7q6 2 33 15t65 31.5t82 38t85 33.5q14 4 22 12.5t14.5 15.5t12.5 13t18 6q4 0 6 -2q18 27 41 27q20 31 60 49q35 43 84 83t88 85q10 29 25.5 48.5t36 47t43.5 70.5t52 121z" />
<glyph unicode="E" horiz-adv-x="972" d="M1468 1401q12 -16 13 -29q0 -14 -8.5 -24.5t-17.5 -16.5t-16 -11t-7 -11l2 -4q0 -14 -16.5 -28.5t-39 -27t-49 -20.5t-47.5 -8l-22 2l-13 -2q-14 0 -25.5 18t-35.5 18q-4 0 -12.5 -5t-16.5 -5h-24l-29 10q-10 0 -20.5 -6t-20.5 -6h-16q-10 0 -13.5 4t-19.5 4 q-12 -8 -23.5 -9t-27.5 -1q-14 0 -37 -4t-60 -16q-8 -2 -25.5 -4t-36 -5.5t-34.5 -7.5t-25 -12q0 -2 7 -8l4 -10q4 -11 10 -26t10 -32.5t4 -32.5q0 -8 -4 -18q-14 -16 -29.5 -23.5t-28.5 -12.5t-22.5 -10t-9.5 -17v-11q0 -10 -6 -18q-8 -8 -21.5 -28.5t-28 -42t-28.5 -38 t-24 -16.5q-16 -6 -32 -26.5t-34 -39.5q23 4 59.5 10.5t40.5 6.5q18 0 28.5 -8.5t16.5 -8.5h7l2 4q4 10 14 11q4 0 6 -2h131q10 8 31 8l41 -2q18 0 22 7t19 7l20 -6q8 -2 19.5 -8t11.5 -31q-4 -25 -17.5 -36t-25.5 -17l-4 -2q-10 -4 -13 -8t-6.5 -9.5t-6.5 -8.5t-13 -3 q-18 -8 -41 -16q-18 -6 -44 -13.5t-54 -9.5q-31 -8 -58 -14q-23 -6 -49 -10t-45 -4q-18 0 -25.5 -6.5t-17.5 -6.5h-12q-2 0 -10 4q-6 -6 -15 -6l-20 4q-16 0 -28.5 -8t-39.5 -8l-24 4q-2 -2 -6 -2h-9q-12 0 -27.5 -18.5t-31.5 -45t-33.5 -56.5t-34.5 -50q-23 -27 -39 -63.5 t-38 -65.5q-16 -39 -28.5 -77t-29.5 -79q6 -10 13.5 -13t23.5 -5q59 14 129 13t131 3h21q80 0 127 7.5t102 7.5h18q6 6 17 6h39q6 0 27.5 -3t33.5 -7l2 2q8 4 17.5 8t19.5 4t21 -6q6 0 13 2t15 2q10 0 18.5 -1t12.5 -1q12 0 13 4t12 4q10 0 16 -7t6 -16q-2 -20 -11 -31.5 t-21.5 -18.5t-21.5 -13t-11 -16l-14 -10q-13 -11 -33.5 -21t-46 -19.5t-50.5 -9.5h-6q-6 0 -20.5 -4t-33 -9t-38 -9t-37.5 -4q-10 0 -27.5 -6.5t-36 -12.5t-36 -12t-25.5 -6q-4 0 -12 4q-51 -4 -105.5 -10.5t-111.5 -10.5q-6 -8 -17 -8l-24 2q-37 0 -71 -10t-73 -10 q-49 0 -69.5 25.5t-26.5 61.5t-4 73.5t-4 64.5q0 33 12 75t29.5 83t36 78.5t30.5 64.5l21 33q18 29 33.5 53.5t27.5 56.5q-10 -2 -18 -3t-18 -1q-25 0 -44 8q0 -2 5 -2q-20 4 -29.5 23.5t-9.5 30.5q0 16 14 30l-4 -4q8 8 17.5 24.5t22.5 32t30.5 26.5t44.5 11h8 q29 0 53.5 8.5t56.5 12.5q16 27 36 53.5t42 50.5l2 4q27 33 44.5 69t41.5 65q29 35 58.5 86t81.5 84q-29 -4 -59 -10.5t-62 -6.5h-13l-6 -2q-35 -12 -56.5 -34.5t-31.5 -22.5q-23 0 -46 27.5t-23 74.5q0 39 16 65.5t39.5 43t48.5 25t43 8.5q6 0 8 -3q12 4 27.5 10.5 t36.5 10.5q4 4 24.5 7t47 4t57.5 1h55h41q6 8 16 8h13q10 0 16 -6q10 0 21.5 4t27.5 4q4 0 11.5 -2t13.5 -2q14 4 28.5 5.5t18.5 1.5t11 -4.5t9 -8.5q4 2 11.5 4t15.5 2l8 2q2 2 8 2q4 0 13 -4q8 4 10 4t4 -2q8 0 17.5 3.5t19.5 3.5q12 0 18 -5q8 4 25 5q12 0 22.5 -1 t16.5 -1q14 0 17 6t16 8h81q4 8 23.5 10t30.5 2l45 -2q18 0 28 4q12 0 17 -2q-2 0 2 1t10 1q14 0 32.5 -3t22.5 -13z" />
<glyph unicode="F" horiz-adv-x="1056" d="M1608 1382q2 -4 2 -14q0 -18 -7.5 -32.5t-15.5 -24.5l-2 -2q-18 -27 -19 -40.5t-24 -13.5q-25 0 -37 15l-49 4q-2 0 -4 2q-2 0 -3 -1t-5 -1l-6 2q-4 0 -7.5 -1t-7.5 -1q-8 0 -12 2q-4 0 -6 -1t-6 -1l-13 2q-4 -2 -10 -2t-11 2t-9 4q-10 -6 -24.5 -7t-28.5 -1 q-33 0 -41.5 -6t-18.5 -6l-22 2q2 0 -29 -4.5t-68 -9.5t-68.5 -11t-31.5 -10h4l-18 -4q-17 -4 -37.5 -8.5t-39 -9.5t-20.5 -9q-4 -4 -27.5 -7t-52 -7t-56 -11.5t-40.5 -21.5q4 -18 17.5 -31.5t13.5 -40.5q0 -14 -4 -22l2 -13q0 -16 -8 -28.5t-17.5 -20.5t-16.5 -14t-7 -12 l6 -19q0 -6 -6 -12q-31 -43 -66 -79t-55 -77h178q10 10 23 11q10 0 20 -7q2 6 19 7q16 0 32.5 -7.5t20.5 -7.5q8 0 12 7.5t14 9.5h72q2 2 10 2l60 4q31 0 43 -18.5t16 -28.5v-2q2 -2 2 -9q0 -4 -4 -12q-4 -14 -12 -24q-6 -10 -16.5 -17.5t-24.5 -7.5q-12 0 -28.5 -3l-33 -6 t-30 -6t-15.5 -3l-8 2q-10 0 -19 -6.5t-26 -6.5q-12 0 -24 6q-53 -23 -107.5 -32t-97.5 -13l-17 -2q-10 -8 -22 -10t-27 -4q-10 0 -27.5 -5t-36 -10.5t-34.5 -10.5t-23 -5h-2q-6 -14 -22 -18l-6 -2q-14 -14 -20.5 -30.5t-22.5 -33.5q-4 -39 -30 -70.5t-40 -68.5v-4 q-18 -39 -32.5 -70.5t-30.5 -79.5q-8 -23 -29 -54.5t-21 -59.5q-2 -25 -12 -47.5t-22.5 -49t-22.5 -56.5t-12 -68q0 -2 -4 -11q-4 -8 -6.5 -24.5t-5.5 -32.5t-9 -28.5t-18 -12.5q-35 0 -57.5 23.5t-39.5 44.5l-4 6q-12 10 -18 27.5t-6 35.5q0 10 5 29.5t14 41t19.5 43 t22.5 38.5v6q0 2 5 17.5t13.5 36t17.5 42t15 37.5q4 10 10.5 26.5t10.5 32t8 26.5l4 11q45 68 72 141.5t67 131.5q-14 10 -19 29.5t-5 41.5q0 8 2 23.5t6 31t11.5 28t17.5 16.5q14 8 33.5 23.5t48.5 15.5q12 -4 16 -9h6q29 47 56.5 98.5t48.5 104.5l12 14l-2 9q2 16 12 22 t10 10v5q0 8 3.5 10t7.5 4t8 7t6 22q2 14 5 23t8 16.5t14.5 15.5t23.5 22l4 6l-37 -16q-6 -2 -18 -2l-6 4q-10 -4 -24.5 -8t-30 -7t-27.5 -5t-18 -2h-15q-16 0 -25.5 -6.5t-21.5 -6.5t-21.5 10.5t-15.5 23.5t-10 26.5t-4 21.5t4 25l2 2q14 35 40 59.5t42 53.5q4 8 21.5 13 t39 9t40 6t22.5 2l55 4q8 8 19 9h16q10 0 16 -7h15q14 6 34 7q2 0 16.5 2t33 5t36 7t29.5 10q8 0 12 -2q10 4 24.5 5t18.5 1q6 0 13 -6q6 2 16 2q16 0 23 -2q8 4 22.5 7t20.5 3t12 -3t14 -3q29 0 48.5 6t50.5 6q16 0 24 -2q33 16 74 15.5t70 9.5h2q4 2 12 2q12 0 20.5 -7 t12.5 -13q10 10 29.5 18t35.5 8l37 -4q0 4 12.5 7t28.5 4t35.5 2t34.5 1q31 0 48 -9t40 -34zM18 -184q-2 0 -4 2l4 -2v0z" />
<glyph unicode="G" horiz-adv-x="1228" d="M1280 756q6 -25 6 -47q0 -25 -4 -55.5t-25 -30.5h-4q-10 0 -15 -4.5t-11 -4.5q-10 -4 -17.5 -15t-13.5 -24.5t-10 -24.5t-6 -13l-9 -11q-16 -23 -31.5 -50t-23.5 -56q-2 -4 -2 -6l-4 -4q-16 -23 -29.5 -50.5t-25.5 -56.5l-11 -35q-23 -66 -48 -112.5t-54 -98.5 q-10 -10 -12 -17t-8 -24v-4q0 -10 -4.5 -26.5t-12.5 -32.5t-17 -28.5t-22 -12.5q-4 0 -16 4h-2q-2 -2 -8 -2q-8 0 -14.5 7t-6.5 18v10q0 14 -7 31.5t-7 37.5q0 92 31.5 167t66.5 145l2 4q0 4 -2 4q-12 0 -24.5 -12.5t-24.5 -26.5t-23.5 -26.5t-23.5 -12.5h-6q-8 -8 -8 -24 q0 -14 -11 -25l-8 -6q-23 -14 -37 -25.5t-28 -29.5q-10 -10 -19.5 -7.5t-19.5 -13.5q-4 -6 -15.5 -19.5t-28 -26.5t-35 -24.5t-32.5 -11.5l-6 -2l2 -8q0 -2 2 -4q0 2 0 -2t-5 -12.5t-17.5 -19.5t-36.5 -19h-4q-16 -6 -19.5 -9.5t-3.5 -7.5q0 -6 -15.5 -16t-40 -24.5t-53 -31 t-55.5 -36.5q0 -2 -12 -9.5t-31.5 -15.5t-42 -15.5t-43.5 -7.5q-4 0 -8 1.5t-8 1.5q-6 -4 -14.5 -5.5t-14.5 -1.5h-4q-2 0 -2 2l-6 -2q-6 0 -15 9q-70 16 -101.5 72.5t-45.5 115.5v2q-10 47 -10 86q0 86 31.5 163t70.5 146q0 -2 4 10.5t8 16.5v6q0 12 17.5 40t40.5 50v2 q0 16 19.5 29.5t19.5 23.5v3q0 2 9 15t22.5 31.5t31 39t35.5 32.5q14 29 33.5 51.5t42.5 38.5q10 23 30.5 49.5t47.5 45.5q23 16 43 42.5t59 45.5q2 20 29.5 37.5t46.5 40.5q23 29 60.5 51t64.5 49v-2q2 0 19.5 13t41 31.5t51 37t54.5 26.5q2 4 22.5 23.5t52.5 23.5 q41 29 84 49.5t88 30.5q8 0 14.5 10.5t12.5 22.5t14.5 22.5t24.5 10.5t27.5 -12.5t19.5 -26.5l8 -13q8 -12 17.5 -30t17.5 -41t8 -45q0 -20 -8 -40.5t-17.5 -39t-17.5 -36t-8 -29.5l4 -19q0 -2 -4 -10v2l-88 -70q-23 0 -40 14.5t-28.5 31t-17.5 31.5t-6 17h-10 q-35 0 -49.5 -5t-28.5 -15l-10 -6q-16 -4 -15 -4h-2q-4 -4 -28.5 -20.5t-94.5 -59.5l-10 -4q-4 -4 -8 -4q-8 0 -19.5 -9.5t-24.5 -21.5t-27.5 -23.5t-31.5 -13.5q-18 -29 -49.5 -50.5t-56.5 -35.5q-39 -51 -96 -94q-16 -29 -40 -52.5t-49.5 -46t-49 -49t-42.5 -61.5 q-16 -16 -30 -33q-12 -16 -25.5 -33.5t-23.5 -37.5q-12 -25 -32 -50.5t-39 -53.5t-35.5 -58.5t-20.5 -63.5v2l-7 -9q-8 -9 -16 -25.5t-14 -38t-6 -45.5q0 -33 19.5 -58.5t72.5 -25.5q25 0 54.5 5t64.5 19q12 6 36.5 18.5t48 24.5t43 22.5t23.5 10.5t7 -2t5 -2q6 0 8.5 8 t6.5 17.5t12 18.5t25 11q6 0 8 -2q37 29 51 29q16 0 16 16v4q0 12 13.5 16.5t25.5 16.5q6 6 25.5 19.5t39 30t36 29.5t16.5 19q-2 -4 13.5 11.5t36 37t41 40t28.5 18.5q10 4 20.5 22.5t20.5 18.5l2 4q6 8 15 15t24 7v9q0 10 9 19t15 24l-24 2q-6 0 -11.5 -6.5t-15.5 -6.5 q-8 2 -15 4t-16 2q-12 0 -28.5 -10t-40.5 -10h-8q-8 -8 -18.5 -10t-16.5 -2l-2 -2q-2 0 -6.5 -3t-10.5 -3h-6q-6 0 -16 -6.5t-27 -6.5q-4 0 -14 4t-22.5 16.5t-24 35t-13.5 59.5l2 6q-2 8 -2 21q0 47 35 47h4l66 24l18 -4q8 0 33 12.5t45 12.5q8 0 15.5 -2t11.5 -2q2 0 14 7 t25 7q16 0 30.5 -2t24.5 -2t38 13t75 13h18q16 18 41 19q12 0 22.5 -3t16.5 -3q4 2 8 2t10.5 -2t6.5 -6q4 8 16 10t22 2q25 0 46.5 -14t21.5 -37z" />
<glyph unicode="H" horiz-adv-x="1230" d="M1554 1333q2 -2 2 -8t-4 -14q-35 -49 -52 -93t-46 -96l-49 -86v-10q0 -10 -8 -16q-10 -6 -14.5 -13.5t-6.5 -14.5t-3 -17.5t-7 -24.5q8 -2 18.5 -8t10.5 -19q0 -20 -18.5 -33.5t-35.5 -21.5q-14 -8 -26 -27.5t-22.5 -44t-20.5 -49t-19 -43.5v-4q0 -10 -8 -16l-8 -6 q-6 -6 -17.5 -16.5t-11.5 -16.5q2 -4 2 -14q-2 -16 -9 -35t-17 -37q-10 -23 -15.5 -51.5t-12.5 -59t-19.5 -63.5t-36.5 -64q-6 -12 -6 -30t-2 -38t-9.5 -38.5t-23.5 -32.5q-4 -41 -13.5 -70.5t-19.5 -56.5t-19.5 -55.5t-13.5 -65.5q0 -4 -2 -6q-25 -49 -30 -108.5 t-17 -112.5q6 -12 6 -21q0 -23 -13 -42t-28 -19h-22q-16 0 -25.5 6t-16.5 14.5t-14.5 14.5t-19.5 6h-4q-12 0 -28.5 28.5t-16.5 55.5q0 10 2 16v2q-4 4 -4 15q8 51 17 92t21.5 80t28 76.5t33.5 82.5l-2 7q0 10 4 15t8 9q35 98 67 191.5t64 185.5l80 219v8q0 23 12.5 42.5 t18.5 31.5q-4 2 -8 2q-10 0 -12 2q-12 -8 -31 -8q-6 -6 -26.5 -12t-44 -10.5t-42 -6.5t-22.5 -2q-33 0 -54.5 -5t-41 -12t-39 -15.5t-48.5 -14.5q-4 -2 -29.5 -7t-54 -15.5t-51 -23.5t-22.5 -32q-14 -16 -24.5 -39.5t-21 -48t-23.5 -48t-34 -38.5q-10 -20 -21 -59t-34 -62 q0 -6 -6 -10t-14.5 -12t-17.5 -23.5t-15 -44.5q-12 -41 -31.5 -82t-32.5 -75q0 -4 -4 -7.5t-11 -11.5t-15.5 -22.5t-14.5 -42.5q-12 -35 -37.5 -59.5t-42.5 -47.5q-8 -10 -31.5 -16t-49 -11.5t-48 -7.5t-28.5 -2q-14 0 -21.5 10.5t-7.5 20.5q0 12 8 19.5t10 11.5l-2 2 q0 12 15 20q20 8 32.5 27.5t21.5 41t18.5 41t25.5 25.5q23 10 36 35t17 41q2 20 12.5 35.5t22.5 30t21.5 26t9.5 21.5q0 4 -2 9t-2 9q0 8 8 17q12 8 17 22t11.5 29.5t13.5 31t23 27.5q10 57 36 100.5t48 94.5q-59 -20 -118.5 -42t-130.5 -22q-33 0 -33 25l8 74q0 10 14 18 l4 12q0 2 11.5 20.5t27.5 18.5q25 25 58.5 35t68.5 16.5t68 13.5t55 29q8 8 15 9l6 -2q8 8 18 8q2 4 7 17t11.5 27.5t13.5 26t13 13.5q2 18 12.5 39.5t22.5 43t21.5 42t9.5 32.5q0 4 -2 8.5t-2 8.5l2 6q16 37 30.5 76t24.5 73q-27 -14 -56.5 -31.5t-55 -37t-47 -42 t-32.5 -44.5q-4 -16 -18 -27.5t-31 -11.5q-23 0 -32 26.5t-9 51.5q0 59 37 109t93.5 91t122 75t120.5 61l31 14q4 4 10 4h10q43 0 53.5 -28.5t10.5 -69.5q0 -16 -2 -41t-6.5 -48.5t-10.5 -43t-16 -25.5l4 -8q2 -4 4 -6t2 -6q0 -8 -7 -21.5t-17 -30.5q-10 -18 -23 -37 q-6 -6 -7 -21t-4 -31.5t-10.5 -32t-25.5 -23.5q0 -33 -11.5 -66.5t-19.5 -62.5q18 -4 33.5 -7t26.5 -3l34 14l7 -2q4 0 12 3t18 3q6 0 15 -4q10 4 23.5 9t21.5 5l55 -8q8 0 14 -6v-2q6 0 56.5 16.5t126.5 16.5q10 0 28.5 40t39 90t39 98t28.5 65q6 6 14 9t8 11l-2 12 q0 31 19.5 55.5t46 42t54.5 26.5t44 9q29 0 58.5 -18.5t39.5 -34.5z" />
<glyph unicode="I" horiz-adv-x="665" d="M918 1327q-16 -31 -25.5 -72t-34.5 -67v-10q0 -29 -12 -51.5t-27 -39.5q2 -6 2 -16q0 -20 -7 -34.5t-14 -26t-14.5 -21.5t-7.5 -20q0 -4 1 -7.5t1 -7.5q0 -2 -4 -10l-2 -4q-31 -59 -54.5 -109.5t-43.5 -113.5q-12 -12 -27.5 -47t-32 -72t-33 -65.5t-32.5 -28.5h-2v-15 q0 -10 -1 -19t-7 -19t-16.5 -36t-23 -53.5t-27.5 -49t-32 -21.5h-2q0 -23 -10 -44.5t-22.5 -40t-24.5 -30.5l-16 -16l-5 -4q-10 -8 -10 -13v-14q0 -14 -14 -20q-4 -2 -13.5 -19.5t-26.5 -44.5t-43 -61.5t-62 -69.5l-15 -14q-6 -6 -14 -6q-6 0 -10 2l-4 -9l-8 -12 q-7 -12 -20 -26.5t-30.5 -25.5t-36.5 -11q-10 0 -16 2q-10 0 -20.5 -10.5t-38.5 -10.5q-14 0 -34 4t-36 12.5t-28.5 16.5t-12.5 18v2q-8 2 -16.5 14.5t-15.5 30t-11 37t-4 37.5q0 16 9 42t32 26q14 0 26 -17q8 8 24.5 15.5t33 11.5t27.5 6l12 2h10q20 0 33.5 12.5t36.5 20.5 q18 6 36.5 22.5t36 32t30.5 27.5t19 12l13 8q12 6 15 8.5t5 18.5q0 16 8.5 27.5t17.5 17.5t18 10t11 8q-2 0 -3 4.5t-1 6.5q0 16 21 22v8q0 33 21.5 54.5t25.5 23.5q-2 -2 1 6.5t9 19.5t12.5 23.5t12.5 20.5q18 20 25.5 36.5t12.5 27t11 16.5t22 10h9q-2 8 -2 25q0 25 9 49 t25 41q25 53 43.5 100t47.5 98v9q0 27 13 44t13 33l2 17q23 41 37 89t31 87l-2 12l2 12q-6 -6 -17.5 -20t-22.5 -27.5t-21.5 -25t-16.5 -11.5h-8q0 -2 -1 -8t-5 -10q-6 -8 -17.5 -30.5t-24 -45t-24.5 -41t-20 -18.5q-20 0 -36 15.5t-27 35t-17 38.5t-6 30q0 49 18 85 t46 63.5t62.5 50t67.5 40.5l19 11q8 18 25.5 24t34.5 8t30.5 5t13.5 14v6q0 14 17.5 23.5t33.5 9.5h10q10 10 29 21t25 11q20 0 35.5 -13t24.5 -28.5t13.5 -31t4.5 -17.5t-1 -3t-1 -5z" />
<glyph unicode="J" horiz-adv-x="921" d="M1122 1286q0 -2 -16 -15.5t-37.5 -30.5t-42 -35.5t-27.5 -30.5q0 -29 -17 -40.5t-17 -21.5q-31 -37 -50.5 -91t-46.5 -95v2q0 -4 -6 -25.5t-28 -36.5q-12 -47 -32 -91t-40 -83q4 0 12 -4q4 0 13.5 4t19.5 4h6q41 0 71.5 8.5t71.5 24.5l41 2q25 0 25 -22q-14 -29 -35 -52 q-16 -20 -38.5 -36.5t-47.5 -20.5q-23 -8 -22 -12q0 -2 -9 -6q-23 -10 -59.5 -30t-73.5 -46.5t-65.5 -59t-34.5 -69.5q0 -4 -2 -10.5t-4 -8.5q-41 -49 -68.5 -96t-52.5 -110q-12 -33 -31.5 -67t-41 -67.5t-41 -67.5t-34.5 -67q-18 -18 -40.5 -50t-45 -61.5t-41 -52 t-28.5 -22.5q0 -18 -14.5 -32.5t-32 -27t-33.5 -25.5t-21 -28l-83 -53q-10 -10 -32 -26.5t-46.5 -32t-47 -26.5t-34.5 -11q-4 0 -7 1t-8 1q-10 0 -33.5 -13.5t-58.5 -19.5h-39q-18 0 -38.5 2t-34.5 12l-13 2q-12 0 -16 13q-57 37 -79.5 93t-22.5 116q0 51 12 89t30.5 67.5 t38 56t35.5 55.5q53 72 112.5 126t121 98t121 86t112.5 89q25 10 38 18.5t20.5 14.5t11.5 10t12 4l12 10q13 11 33.5 24t44 26.5t41.5 23.5q25 12 37 20.5t29.5 21t46.5 29.5t88 48l25 14q14 23 23 48.5t32 48.5q0 49 25.5 90t37.5 82q37 84 80 178t78 186q-43 -27 -76 -71 q-29 -29 -74 -58.5t-81 -58.5l-15 -12q-12 -14 -27.5 -40t-32 -50.5t-32.5 -42t-31 -17.5q-18 0 -33.5 13.5t-26.5 33t-17.5 43t-6.5 45.5q0 37 15.5 63.5t39 47t50 37t49.5 32.5q0 2 25.5 15.5t58.5 31t65.5 37t45.5 31.5v-2q2 0 11 10.5t26.5 23.5t40 23.5t51.5 10.5h10 q16 18 37.5 37.5t52.5 21.5q10 0 16 -6q10 0 49 7t74 7q8 0 17.5 -12t16.5 -30.5t11 -39t4 -34.5q0 -4 -1 -8.5t-1 -8.5zM440 354q0 10 -12 11q-16 0 -30.5 -14.5l-22.5 -22.5l-21 -15q-16 -12 -31.5 -19t-39.5 -13q-16 -23 -44 -40.5t-57 -27.5q-8 -10 -26.5 -23.5 t-37 -26.5t-33.5 -22.5t-17 -9.5q-16 -2 -26.5 -11t-21 -20.5t-21.5 -22.5t-28 -18q-12 -16 -36.5 -41.5t-57.5 -44.5q-12 -6 -16 -13t-6 -13t-3.5 -11.5t-9.5 -9.5q-47 -33 -75.5 -87t-45.5 -93q-23 -49 -34 -85t-15 -89q0 -4 11 -4q23 0 46 10t50 14q0 -2 13 5.5 t32.5 16.5t42 19.5t41.5 14.5q6 8 22.5 23.5t35 29.5t34.5 24.5t23 10.5q-2 0 12 14t61 66q117 143 206 279t138 255v4z" />
<glyph unicode="K" horiz-adv-x="1228" d="M1464 1391q-2 -8 -10 -32t-21.5 -49.5t-33 -45t-41.5 -19.5q-12 0 -31.5 -13t-42.5 -13q-6 0 -10 1t-8 1q-6 -10 -15 -13q-37 -10 -73.5 -33.5t-72.5 -50t-72 -50t-72 -36.5q-4 -2 -32 -24.5t-61.5 -50t-60.5 -52t-27 -30.5q16 0 21.5 -19.5t5.5 -23.5q0 -10 -1 -16.5 t-1 -8.5q0 -6 4 -8h-2q0 -2 8 -13.5t19.5 -26.5t19.5 -32.5t8 -30.5l-2 -12q0 -6 3 -15t3 -22q10 0 20.5 -15t18.5 -33.5t13.5 -35t5.5 -18.5t-2 -4t-2 -6q14 -10 18 -20.5t4 -14.5q10 -41 23.5 -79t27.5 -73q18 -8 23.5 -22.5t5.5 -24.5q4 -16 9 -18t11 -8q14 -35 34 -71 t20 -38l-2 -18q2 -10 26.5 -42t42.5 -73q10 -23 20.5 -31t18.5 -11t13.5 -8t5.5 -20l10 -2t22.5 -6t21.5 -13t9 -26q0 -16 -13.5 -30.5t-30.5 -24.5t-35.5 -18.5t-26.5 -12.5l-4 -2q-4 -2 -13 -2l-39 2q-41 14 -74.5 54t-39.5 73q0 6 -27 37t-39 84q-31 47 -49.5 104.5 t-52.5 102.5q-35 53 -67 112.5t-62 116.5q-33 59 -66 119.5t-72 89.5q-25 -14 -37 -24.5t-18 -16.5t-10 -9t-12 -3t-26.5 -22.5t-57.5 -45.5q-16 -35 -33 -70.5t-33 -74.5q-6 -16 -17.5 -46t-24.5 -60.5t-27.5 -55.5t-28.5 -33h-2q-6 -25 -12.5 -40t-12.5 -29.5t-11 -30.5 t-9 -43q0 -2 -6.5 -17.5t-16.5 -34t-21.5 -36t-19.5 -19.5q6 -10 6 -18q0 -18 -15 -32.5t-15 -20.5q-8 -23 -27.5 -35t-44.5 -18.5t-49.5 -8.5t-40.5 -8q-20 0 -32.5 13.5t-12.5 33.5q0 12 6 25q2 6 7 9t13.5 16.5t23.5 42t40 85.5q20 35 36.5 62.5t32 55.5t31 58.5 t33.5 71.5q2 6 6 16.5t15 16.5q10 45 31.5 93t29.5 99q-14 29 -14 72q0 45 21.5 72.5t48 47t48 37t21.5 46.5l-2 12q0 10 2 14q27 41 46 88.5t34 98.5q0 4 4 8q39 43 62.5 96.5t37.5 110.5q-27 -27 -61.5 -51.5t-69.5 -52t-65.5 -59.5t-49.5 -73q-4 -8 -15 -16t-19 -8 q-25 0 -33 21.5t-8 45.5q0 76 94 162l67 51q2 2 5 2q2 0 6 2q14 2 26.5 15.5t28.5 30t38.5 30t53.5 17.5l14 8q10 8 28 20.5t28 12.5q16 6 29.5 15t27.5 18.5t32.5 15.5t45.5 6q43 0 54 -18.5t11 -32.5q0 -16 -12 -43t-22 -31q-4 -10 -3 -31.5t-10 -38.5q2 2 -3 -8 t-14 -27.5t-21.5 -39t-26.5 -41.5q-10 -10 -25.5 -43t-30 -70t-24.5 -66.5t-10 -35.5q0 -4 4 -5h4q55 29 107.5 48.5t82.5 52.5q-4 0 -4 -4q6 10 17.5 15t21.5 9q12 4 17.5 7.5t7.5 3.5q57 43 114.5 82.5t116.5 76.5q16 16 42 26.5t36 27.5q4 10 16.5 11t24.5 13 q43 33 103.5 61.5t119.5 28.5h13q12 0 23 -4t11 -22z" />
<glyph unicode="L" horiz-adv-x="1017" d="M1038 86q0 -61 -61 -82l4 2q-12 -8 -25.5 -9t-25.5 -1q-27 0 -35 -9.5t-31 -9.5h-16q-23 0 -61.5 -8t-86 -17t-97.5 -17.5t-95 -8.5l-14 2q-16 0 -30.5 -4t-31.5 -4l-22 2q-4 0 -8.5 -1t-8.5 -1l-6 -2q-14 0 -25.5 1t-21.5 1q-8 0 -12 -1t-9 -1l5 2q-12 -4 -17 -4 q-12 2 -24.5 3t-22.5 1q-35 0 -64.5 -5t-66.5 -5q-29 0 -61 6q-16 -8 -29 -8q-31 0 -38 23.5t-7 52.5q0 14 4 31.5t11 32.5t18.5 26.5t25.5 11.5q2 0 4 -2q4 0 7.5 4t8.5 10t13 10.5t25 4.5q12 0 22 14t37 14q8 0 21.5 36t27.5 79t24.5 80t12.5 41q12 14 17.5 34.5t10.5 44 t14 48t32 43.5q0 33 14 58.5t31.5 52t32 56t14.5 70.5q29 47 49.5 101.5t30.5 105.5v-2q0 18 20 27q8 4 19 6q-2 8 -2 25q0 31 11 55t25.5 45.5t25.5 41t11 40.5q0 10 -2 16q0 8 9.5 24.5t21.5 35t23.5 37t15.5 34.5q0 2 3 11.5t11 21.5t20.5 23.5t28.5 17.5q20 0 41 -15.5 t37.5 -34t26.5 -33.5l10 -15l16 -84q0 -27 -12 -48.5t-26.5 -40t-28.5 -35t-16 -34.5q-16 -16 -15.5 -35.5t-21.5 -44.5q-14 -16 -21.5 -47t-34.5 -47q-4 -23 -14 -40l-20 -34q-2 -4 -12.5 -20.5t-23 -38t-21.5 -45t-9 -39.5q0 -4 1 -7t1 -7q0 -12 -12 -19q-4 -4 -6 -13 t-6.5 -21.5t-12.5 -23t-22 -16.5l2 -30q0 -10 -10.5 -25.5t-23.5 -38t-29.5 -55.5t-28.5 -76l-62 -129q-8 -31 -21.5 -58.5t-21.5 -88.5q4 -2 16 -2q8 0 13.5 2t11.5 2h6t4 -4q4 2 15 2q14 0 20 -5.5t12 -5.5l7 2q10 0 14 -6q16 0 35.5 5t42.5 5q25 0 45 -10q14 2 33.5 4 t70.5 2q29 0 73 -1t105 -3l109 11h14q14 0 29.5 -3.5t15.5 -19.5z" />
<glyph unicode="M" horiz-adv-x="1748" d="M1765 1374q-4 -23 -12 -45t-8 -39q0 -10 6 -20t6 -19q0 -18 -10 -29.5t-10 -15.5q2 -4 5 -8t3 -8q0 -6 -4 -11l-8 -10q-6 -6 -16.5 -37.5t-19.5 -68.5t-15.5 -73t-6.5 -50l2 -25q0 -8 -4 -13t-4 -9l2 -27q0 -10 -9 -38.5t-21.5 -66.5t-21.5 -77t-9 -66v-18 q-4 -8 -6 -27.5t-5.5 -43t-7.5 -48t-10 -43.5q0 -43 -21.5 -119.5t-21.5 -181.5q0 -10 3 -19t3 -18q0 -8 -5 -11t-5 -9q0 -8 5 -30.5t5 -33.5q0 -18 -12 -34l-2 -2q12 -6 12 -21l-2 -22q0 -10 -4 -32t-33 -26q-16 -10 -40.5 -22.5t-57.5 -12.5q2 0 -8 0q-8 0 -20.5 4.5 t-23 13.5t-10.5 27l3 13q0 16 -4.5 32.5t-4.5 34.5v17q0 6 4 16q-2 10 -2 18v19q0 35 5.5 71.5t9.5 71.5l4 31q-2 10 -2 29q0 37 10 67v15q0 14 1 35.5t3 42t5 38t7 25.5q8 88 25.5 179t46.5 179v2q-8 8 -8 17q0 31 12 64.5t17 60.5q6 33 16 66.5t14 70.5v4q0 4 -2 4 q-6 0 -20.5 -17.5t-26.5 -29.5q-4 -4 -24.5 -30.5t-44 -56.5t-43 -54.5t-21.5 -24.5q-12 -6 -20.5 -17.5t-16.5 -26.5t-18.5 -30.5t-28.5 -29.5q-10 -27 -22.5 -44.5t-26.5 -33.5t-23.5 -37t-21.5 -33q-14 -12 -37 -47t-48.5 -79t-52 -93t-46.5 -90q0 -4 -14.5 -26.5 t-33 -49t-36 -50.5t-21.5 -26q-2 -29 -22.5 -48t-42.5 -19q-39 0 -65 17.5t-48 35.5l-12 10q-6 6 -7 15l-8 61q-14 104 -22 210.5t-8 219.5l10 186q0 6 -6 7q0 2 -3.5 -5.5t-8.5 -17.5t-12 -20.5t-13 -12.5q-12 -6 -20.5 -19t-15.5 -29.5t-16.5 -34t-21.5 -29.5l-4 -13 q-4 -12 -14.5 -14t-16.5 -12v-12l2 -5q0 -10 -11 -20t-17 -10q-6 -16 -15.5 -24.5t-9.5 -12.5l2 -15q2 -6 -13.5 -26.5t-25.5 -42.5q-12 -33 -32.5 -58.5t-30.5 -56.5l-2 -2q-2 -8 -7 -16q-4 -6 -7 -13.5t-7 -11.5q-8 -8 -13 -24.5t-11.5 -36t-17.5 -42t-32 -42.5 q-2 -14 -6 -29.5t-20 -26.5q-2 -29 -12.5 -59.5t-14.5 -56.5v-2q-4 -18 -9 -35t-5 -33l2 -12q0 -8 -14.5 -17.5t-32.5 -9.5q-4 0 -8.5 1t-8.5 1q-41 23 -60 56.5t-34 68.5l-8 19l-2 6q0 10 6 16v4q2 6 8 19.5t13.5 28t12.5 26.5t5 14q31 72 65.5 138.5t69.5 132.5 q37 70 58.5 107.5t39 63t35 49t43.5 64.5l41 62q61 92 122 171t124 173q6 25 6 55q0 33 6 62.5t24.5 54t63.5 35.5l7 2q20 10 45 10q23 0 38 -3t23 -16l2 -2q4 -4 8 -10t4 -16q0 -12 -10 -19l2 -4l5 -10t3 -14q0 -10 -6 -19v-6q0 -16 -7 -28.5t-7 -22.5l6 -23 q0 -12 -11.5 -26.5t-15.5 -18.5q4 0 9.5 -8t5.5 -16q-4 -27 -7.5 -48.5t-3.5 -47.5l3 -27q0 -8 -3.5 -42t-9.5 -56v-11q0 -41 -1 -74.5t-11 -76.5q2 -10 2 -21v-20v-111q0 -16 3 -32.5t3 -30.5q0 -4 -1 -7t-1 -6q0 -6 2 -12q4 -12 8 -12q14 29 38 59.5t24 36.5q0 4 -2 6 q0 31 19.5 37t29.5 6q0 18 14.5 42t33.5 45.5t39.5 39t31.5 23.5q23 14 42 44t33 44q14 16 30 35.5t32 31.5q66 98 136.5 175t129.5 161q10 14 20.5 36t20.5 43.5t20.5 40t20.5 24.5q4 2 12.5 13t20.5 24.5t28.5 23.5t36.5 10t37 -3t27 -3h6q18 0 22.5 -23.5t4.5 -31.5h2 q8 0 18 -6l6 -6q6 -7 6 -19zM743 1350q4 0 5 2z" />
<glyph unicode="N" horiz-adv-x="1075" d="M1389 1458q2 -2 2 -6q0 -18 -14.5 -36.5t-33 -37t-33 -38t-14.5 -42.5l4 -16q0 -14 -20 -29q2 -4 2 -12q0 -2 -6 -13t-15.5 -25.5t-18.5 -32t-13 -31.5q-23 -66 -48.5 -115t-47.5 -119q-16 -53 -34 -87t-32 -85q-4 -20 -15.5 -44.5t-22.5 -49.5t-20.5 -47.5t-9.5 -38.5 q0 -4 2.5 -8t2.5 -8q0 -12 -3.5 -30t-9.5 -36t-13 -34.5t-15 -26.5q-10 -43 -21.5 -82t-15.5 -84v-2q0 -10 -6.5 -32t-30.5 -34q-2 -6 -2 -26t-4 -42t-33 -38v-4q0 -6 6 -17.5t6 -21.5q0 -29 -13 -53.5t-33.5 -42t-45.5 -27.5t-47 -10q-29 0 -48.5 16t-19.5 51q0 12 7 25 q-14 27 -25.5 33t-11.5 22q0 8 6 12q0 2 -4 6q-2 2 -4 2q0 4 2 5q2 0 2 2q0 -2 -10.5 21.5t-23.5 56t-23.5 66.5t-10.5 50q0 6 3 11.5t3 9.5q0 6 -11 22.5t-17 38.5q0 8 1 11t1 7q0 12 -7.5 29t-16.5 37.5t-16 46t-7 55.5v9q-8 12 -15.5 48t-16.5 74.5t-20.5 73.5t-23.5 47 v4q0 2 -2 7.5t-6 5.5q2 0 -3.5 -16.5t-14.5 -41t-22.5 -52t-27.5 -50.5q-16 -25 -27.5 -55.5t-27.5 -53.5q-16 -25 -22.5 -52t-10.5 -32l-2 -2q-6 -8 -13.5 -16t-7.5 -14l2 -6q0 -10 -6 -17q-33 -35 -47 -82t-43 -94q-6 -27 -18.5 -58.5t-18.5 -37.5q-2 -2 -3 -15.5t-5 -30 t-12 -29.5t-25 -13q6 -6 9.5 -16.5t3.5 -16.5q0 -23 -15.5 -33t-15.5 -14q0 -6 2 -13.5t2 -17.5q0 -12 -8 -22.5t-37 -10.5q-25 0 -46.5 11.5t-31.5 15.5l-8 6t-18.5 17.5t-19.5 23.5t-9 25q0 29 9 51t21 45q8 8 15.5 15t11.5 20q0 4 -1 6t-1 4q0 16 7 27.5t11 25.5 q2 8 10.5 22.5t18.5 29t19.5 25.5t15.5 11q12 25 20.5 51.5t18.5 36.5q41 63 67.5 129t67.5 127l6 11q12 29 27.5 58.5t36.5 51.5q12 23 21 51.5t34 53.5q2 4 7 17t11.5 28.5t12.5 28t12 14.5q8 0 5 13t11 32v69q0 6 2 9q-6 49 -20 95t-14 97q0 25 12 35q6 4 20.5 15.5 t33 22.5t41 20t44.5 9q10 0 16.5 -3t10.5 -3q4 2 8 2q12 0 24.5 -17t21.5 -41t15.5 -47.5t6.5 -33.5q0 -12 -9 -22q23 -16 26 -44t3 -47v-4q0 -10 -8 -16q0 -12 8 -22.5t8 -28.5q0 -4 -4 -17q6 -10 13.5 -32.5t7.5 -67.5q0 -23 9 -39t9 -26l-2 -17q0 -31 11.5 -64.5 t11.5 -68.5v-12q12 -18 12 -39q0 -10 -2 -17q10 -4 18 -23.5t14.5 -43t10.5 -44t4 -26.5q0 -4 -1 -7t-1 -7q0 -10 2 -22.5t2 -26.5h2q16 -4 16 -23q0 -4 -2 -8t-2 -10q0 -20 10 -37h3q6 0 14 -4q12 10 12 18v10q0 6 2 15q2 6 4 13t6 13l70 181l12.5 37.5t17.5 54.5 t20.5 54.5t21.5 35.5q12 47 22 84q10 33 20.5 59.5t18.5 30.5l5 16q5 17 14.5 41.5t21.5 53t31 55.5q0 4 -1 5t-1 3q0 6 3 11t5 10q0 2 -1 3t-1 5q0 16 8 33.5t17.5 34t17.5 33t8 32.5q0 10 8.5 18.5t8.5 14.5v8q0 8 2 12q12 16 19 41t17.5 47.5t30 41t53.5 22.5 q4 4 20.5 11t49.5 7q39 0 50.5 -15.5t13.5 -25.5z" />
<glyph unicode="O" horiz-adv-x="1136" d="M1346 1171q-6 -31 -7.5 -64.5t-5.5 -67t-12 -65.5t-29 -59l2 3q-10 -23 -11 -45.5t-9 -51.5q0 -23 -9.5 -35t-20.5 -21t-20.5 -15.5t-9.5 -12.5q0 -2 1.5 -3t1.5 -5q0 -10 -6.5 -23.5t-10.5 -27.5q-12 -37 -35.5 -73t-58.5 -75q-20 -31 -33.5 -54t-26 -43.5t-29 -38 t-44.5 -32.5q2 0 -4 -8t-15.5 -20t-20.5 -26.5t-18 -26.5q-16 -31 -47.5 -52.5t-56.5 -54.5q-53 -53 -125 -117.5t-149 -111.5l-27 -17q-51 -33 -117.5 -55.5t-150.5 -24.5h-13q-12 0 -18 11q-35 10 -65.5 30.5t-54 45t-41 49t-25.5 43.5l-2 4q-8 35 -15.5 65.5t-7.5 61.5 q0 41 16 73v15q0 33 12.5 81t28 93t30.5 77.5t22 37.5q10 6 10 26t20 37l-4 8t-2 8q0 16 7 27.5t16.5 19t16.5 11.5t7 10v4q0 16 11.5 43t28 54.5t32.5 51t27 33.5q0 16 7 35t23 35q-2 0 10.5 18.5t31 42t39 45t36.5 29.5l12 2v8q0 8 3 19.5t20 15.5q0 23 16.5 43.5 t38.5 20.5l6 -2q0 18 15.5 28.5t19.5 14.5v-2q0 16 24.5 34.5t43.5 28.5q45 59 151 113q10 10 24.5 13t28.5 3q10 0 18.5 -1t14.5 -1q12 0 19 -12l39 -70h-5q0 2 19.5 17.5t46.5 33t55.5 31.5t46.5 14q4 0 8.5 -2t8.5 -2q14 0 28.5 10.5t36.5 10.5q20 0 34.5 -12.5t25 -28 t19.5 -30.5t22 -19q23 -8 38 -31t24 -50.5t13.5 -55.5t4.5 -44zM1212 1257q-10 4 -15 11.5t-7 7.5q-16 -8 -34.5 -12t-36 -7.5t-32 -8.5t-20.5 -15v2q-2 0 -11 -9l-20.5 -20.5t-24 -20.5t-20.5 -9q-31 -4 -47 -21.5t-28.5 -36t-24.5 -34t-37 -15.5l-4 2q-4 0 -7 -7 t-8.5 -16.5t-11.5 -18.5t-18 -13h2q-18 -10 -29.5 -23.5t-20.5 -28t-21.5 -28.5t-30.5 -27q-35 -63 -71 -110t-50 -107q0 -4 -8.5 -15t-20.5 -23.5t-24.5 -22.5t-22.5 -10q-20 0 -33.5 24.5t-13.5 52.5q0 12 1 25.5t3 26.5q8 8 16 36.5t19.5 61.5t27 63.5t37.5 44.5l7 3.5 t6 3.5l-3 6q0 2 -10 2q2 0 -4 -3t-14 -8.5t-17.5 -11.5t-15.5 -12q-4 -4 -14.5 -15.5t-20.5 -24.5t-18 -26.5t-8 -19.5q0 -16 -13.5 -21.5t-15.5 -15.5q-4 -27 -26.5 -59.5t-35.5 -59.5q-18 -61 -52 -102t-60 -96q0 -18 -8.5 -42t-18.5 -46.5t-19 -39t-14 -20.5 q0 -16 -8 -37.5t-17 -48t-16.5 -58.5t-7.5 -65q0 -43 33 -61.5t74 -18.5q37 0 84 8.5t84 22.5q2 2 18.5 9t37 14.5t39.5 13.5t30 6q2 2 6 13.5t16 17.5q39 16 73 55t81 68q41 31 65.5 64.5t53.5 62.5q8 10 29.5 31.5t21.5 31.5l4 7q4 8 10 19t13.5 20t15.5 12q23 16 34 52 t40 64q20 12 29 30.5t15.5 39t14.5 39t31 28.5q-2 6 -2 19q0 18 9 31.5t19 23.5l19.5 19.5t9.5 19.5l-2 6q0 10 4 17.5t18 9.5q0 6 -2 12t-2 17q0 20 15 32q6 6 8 17.5t4 25t5 26.5t11 26v20l9 109q0 10 -1.5 19t-3.5 19z" />
<glyph unicode="P" horiz-adv-x="1341" d="M1468 1067q0 -33 -7 -67.5t-25 -59.5q-4 -16 -15.5 -27.5t-24 -22.5t-23.5 -20.5t-13 -19.5q0 2 -6 -7t-19.5 -23.5t-32 -30t-42.5 -23.5q-18 -6 -23.5 -12t-7.5 -12.5t-6 -10.5t-17 -4q-55 -53 -137 -94t-149 -72l2 2q-4 -4 -23.5 -11t-42 -15.5t-40.5 -14.5l-17 -6 l-13 2q-31 0 -53 -16.5t-63 -16.5h-8l-52.5 -12t-40.5 -20q-14 -8 -30 -9q-14 0 -31 -8q-4 0 -14.5 -19.5t-21.5 -44t-22.5 -45t-19.5 -22.5q-10 -6 -15 -23.5t-22 -33.5q-10 -14 -15 -33.5t-24 -38.5q-6 -12 -19 -43t-30.5 -67.5t-37 -73.5t-38.5 -62q-8 -12 -10 -22 t-4 -24.5t-7 -35t-18 -51.5l3 -2q-2 -18 -11 -33q-6 -12 -18 -22t-33 -10h-8q-12 0 -31.5 9t-19.5 46q0 2 -13.5 17.5t-13.5 43.5q0 12 4 21q-2 4 -2 12q0 6 2 11.5t4 9.5q-2 0 -2 12t4 14t9.5 5t10.5 11.5t9 32.5q2 18 11 33t19.5 26t18.5 20t8 22l1 9t5.5 20.5t12.5 21.5 t20 14q35 74 77 150t83 155q-37 57 -37 117q0 16 4 37t21 21q4 0 16 -4.5t16 -8.5q6 10 21 10l29 -2q6 0 14 -4q4 4 20 9q16 25 33 36t17 27q0 20 15 36.5t23 37.5q2 20 9.5 31.5t17.5 23.5t24.5 32.5t30.5 57.5q2 6 12.5 26.5t24 43t26.5 43t25 26.5q10 2 17.5 15.5 t14.5 29t19.5 27.5t32.5 12q29 0 48.5 -21.5t33 -51t20.5 -60t11 -51.5q0 -27 -28.5 -45t-49.5 -25q-31 -25 -52 -51t-39.5 -54t-37 -57.5t-43.5 -58.5q10 0 21.5 4t21.5 4t20.5 -4t14.5 -4q12 6 36.5 15.5t51.5 9.5l4 4q8 2 29.5 12t48.5 22.5t53.5 23t42.5 14.5 q35 8 42 20t22 12q10 0 12 -1t4 -1q2 12 10 21q6 8 15.5 14t25.5 6q2 0 11.5 5.5t19.5 12.5t20.5 14t16.5 9q29 16 33 24.5t20 24.5q20 10 43 32t42.5 47.5t32.5 53t13 52.5q0 27 -12 45t-30.5 29.5t-39 18.5t-37.5 11q-14 8 -42.5 12.5t-58.5 7.5t-54.5 7t-28.5 12 q-4 0 -7 -1t-9 -1h-80q-6 0 -20.5 -4t-30 -8t-27.5 -8.5t-14 -4.5q-4 0 -8.5 1.5t-8.5 1.5q-16 0 -73 -21q-8 0 -13 2q-10 -8 -23.5 -10t-27.5 -2q-59 -4 -133 -40t-156 -89q-4 -2 -19 -15.5t-34.5 -29t-41 -27.5t-36.5 -12q-4 -18 -10 -24.5t-14 -10.5t-15.5 -8t-15.5 -19 q-10 -18 -30.5 -39.5t-42 -40t-37 -34t-15.5 -23.5v-4l-3 -9q-3 -9 -10 -21.5t-18.5 -21.5t-27.5 -9q-10 0 -17 10q-12 20 -22 32.5t-17.5 24.5t-11.5 29.5t-4 48.5q0 53 33 92q10 18 28.5 40t39 41.5t39 32.5t28.5 13q6 0 12 15.5t33 15.5l43 37q6 6 10 6l4 -2 q4 8 16.5 18.5t28 18.5t30.5 15t28 11l4 2q6 6 22.5 15.5t35 16.5t34.5 13.5t25 6.5l18 -2q14 0 16 11t19 11q4 0 8 -2t8 -2l7 6q8 6 21 13.5t29.5 13.5t32.5 6q12 0 17 -2q6 6 22.5 14t24.5 8q4 0 10 -2t10 -2q23 23 47 23h17l-2 -2q2 2 8 2q2 0 10 -4q12 4 25.5 10t36.5 6 l32 -2q10 0 16.5 4t14.5 4q6 0 10 -2l2 -2l9 4h122q8 6 17 6l8 -2q27 -10 59.5 -13t65.5 -3q10 0 14 -7t11 -7h18l9 -1t20.5 -4.5t21.5 -11.5t17 -20q20 -4 42.5 -18.5t41 -40t31 -61.5t12.5 -85v-21q-1 -8 -5 -18z" />
<glyph unicode="Q" horiz-adv-x="1101" d="M1311 1155q-10 -35 -16.5 -73t-16.5 -78l-27 -121q0 -4 -9 -22.5t-15 -22.5v-9q0 -14 -8.5 -34.5t-19.5 -40t-21.5 -36t-14.5 -22.5q-25 -47 -43 -65.5t-30.5 -26.5t-19.5 -14t-9 -27q-2 -25 -8 -40t-14.5 -25.5t-18.5 -18.5t-23 -20q-12 -20 -30.5 -35.5t-34.5 -32.5 q-18 -20 -40 -51t-44 -31q0 -29 -16.5 -43t-16.5 -28q-4 -16 -14 -17.5t-25 -19.5q31 -39 31 -86q27 -47 53.5 -92.5t44.5 -96.5q14 -8 26.5 -21.5t21 -28.5t12.5 -29.5t4 -22.5q0 -18 -27 -21.5t-39 -3.5q-35 0 -65.5 9.5t-57.5 19.5l-10 4q-18 10 -32.5 32.5t-26 50.5 t-20.5 55.5t-21 45.5q-4 4 -6 22.5t-13 31.5q-4 -4 -6 -15q-4 -18 -26.5 -38.5t-52 -42t-63.5 -43t-63 -37.5l-20 -13q-4 -2 -6 -2t-4 -2q-16 0 -28.5 -4l-25 -8t-26 -8t-33.5 -4q-47 0 -84 19t-66 40l-6 2q-72 72 -106.5 159t-34.5 197q0 141 45 280.5t123 287.5q0 2 -1 3 t-1 5q0 16 11 24.5t11 12.5q-2 4 -2 14q2 6 11 14q23 12 33 27.5t18 36.5q8 20 25.5 44.5t38 50.5t42 50.5t37.5 46.5l29 37q4 4 16.5 14.5t27.5 19.5t32.5 16.5t33.5 7.5q33 0 49.5 -12.5t25.5 -29t14.5 -34t13.5 -27.5q18 14 24.5 32.5t16.5 22.5q14 6 25.5 17.5t23.5 25 t25.5 26.5t33.5 22q4 23 17.5 36t30 21t32 14t23.5 15h-2q0 2 15 12t39 20.5t51.5 19.5t49.5 9q18 0 26.5 -6t18.5 -6l13 2q12 0 18 -10l10 -2q11 -3 23 -7t24.5 -9t16.5 -9q76 -63 100.5 -108.5t24.5 -96.5v-22q0 -11 -2 -23zM1153 1202q2 4 2 10v19q0 31 -9 39t-26 8 q-8 0 -16 -1t-19 -1l-24 6q-10 0 -22.5 -5t-28.5 -9q-10 -16 -25.5 -23.5t-32 -12.5t-29 -10t-14.5 -18q0 2 -18.5 -14t-41 -40t-44 -48.5t-27.5 -34.5q0 -2 -19.5 -26.5t-43 -54.5t-44 -54.5t-24.5 -26.5l-33 -65q-18 -10 -28.5 -28.5t-14.5 -31.5q0 4 -6 -12t-15 -41 t-21.5 -51.5t-26.5 -42.5q0 -4 -1 -19.5t-6.5 -32t-15.5 -30.5t-28 -14q-12 0 -15 12q-29 16 -42 40.5t-13 53.5q0 53 13.5 101.5t33.5 84.5q4 0 13.5 20.5t19.5 47.5t22.5 53.5t22.5 42.5q0 2 -2 4q-4 4 -8 4q-8 0 -27 -16q0 -6 -13.5 -18.5t-30.5 -29.5t-33.5 -38.5 t-22.5 -44.5q-4 -14 -16.5 -40t-39.5 -58q-10 -25 -25.5 -48.5t-31.5 -47t-28.5 -47t-14.5 -48.5q0 -4 -2 -6q-27 -61 -48.5 -137t-21.5 -154q0 -35 7.5 -67.5t23.5 -59t40 -43t58 -16.5q35 0 70 7t65.5 18.5t53 23.5t33.5 23l10 10q16 16 40.5 31.5t32.5 48.5q0 2 -6 12 t-12 22.5t-11 23.5t-5 13q0 16 16 30.5t37.5 25t41 15.5t26.5 5q16 0 31.5 -9t25.5 -20q-2 -4 6 7.5t19.5 26t22.5 28.5t17 16q2 0 2 -2q2 0 3.5 8.5t5.5 19.5t15 19.5t34 8.5q16 0 16 12q0 2 -1 4t-1 6t4 8q23 37 52.5 72t54.5 82l61 78q0 4 -1 5t-1 3l2 8q51 104 87 206.5 t36 223.5z" />
<glyph unicode="R" horiz-adv-x="1280" d="M1309 -94q0 -10 -6 -17q-4 -2 -10.5 -11t-14.5 -19.5t-19.5 -18.5t-29.5 -8q-20 0 -35.5 10.5t-30 25.5t-29 33.5t-32.5 35.5l-19 16q-6 8 -6 18v4q-41 35 -71.5 70t-67.5 82q-4 4 -4 10q-2 14 -14.5 33.5t-29 42.5t-32.5 47.5t-24 50.5l-7 21q-8 2 -21 9t-13 24 q0 6 4 10l-2 4q-23 23 -42.5 52.5t-19.5 57.5q0 4 4 9l-4 10l-6 -2q-10 0 -19.5 15.5t-18.5 34.5t-16 39.5t-16 33.5q-4 -2 -29.5 -17.5t-49.5 -15.5q0 2 -6.5 -4t-18.5 -15.5t-30.5 -17.5t-43.5 -10q-16 -14 -37.5 -19.5t-41 -7.5t-33 -5t-13.5 -13q0 -6 -8 -18.5 t-19.5 -30t-21.5 -37t-16 -37.5q-4 -12 -11.5 -11t-13.5 -5v-9q0 -29 -16.5 -43t-16.5 -24v-4q0 -16 -10 -23.5t-16 -9.5l2 -6q0 -4 -1 -6t-1 -4q0 -10 1 -12.5t1 -6.5q0 -6 -4 -14q-18 -25 -33 -43q-6 -8 -12 -15.5t-11 -13.5q-6 -8 -8 -14l-55 -129v-8q0 -12 -9 -15.5 t-9 -19.5q0 -6 1 -16.5t1 -20.5q0 -6 -3.5 -19.5t-10.5 -27t-17 -24.5t-23 -11q-16 0 -33.5 15.5t-33 37t-25.5 46t-10 42.5q0 12 2 17q53 141 106.5 238t83.5 147q12 20 21.5 48.5t30.5 53.5q-57 45 -58 90q0 29 24.5 38t39.5 13q6 2 18 9q20 8 80 28q10 29 29.5 59.5 t46.5 51.5q4 16 10 43.5t29 46.5q18 49 41.5 90t46.5 70q14 23 20 43t29 43l-4 -4q29 47 59.5 92t53.5 92h-11q-23 0 -39 -3t-35.5 -9.5t-47 -16.5t-72.5 -24q-10 -4 -28.5 -18.5t-72.5 -33.5q-10 0 -22 -10t-26.5 -24.5t-31 -28.5t-32.5 -23q-16 -8 -27.5 -20t-20 -24.5 t-16.5 -20.5t-20 -8q4 -8 4 -13q0 -16 -11.5 -23t-25.5 -7q-10 2 -34.5 9t-41.5 11q-27 8 -39 27.5t-12 46.5q0 25 9 49.5t23.5 46t34 34.5t42.5 13q12 0 18 6.5t14.5 16.5t21.5 20.5t40 20.5q10 4 24.5 13t33 18.5t39 16.5t40.5 7q12 0 17.5 6t12.5 14.5t19 14.5t35 6 q4 0 8 -2t6 -6q8 10 18.5 14t18.5 4q0 -2 22.5 7.5t55.5 21.5t65.5 22.5t53.5 10.5q14 0 18 -2q14 6 33 6q18 0 35 -6q6 8 14 10t14 2h25q6 6 12 6h29q6 -8 18 -8q10 0 15 2q4 0 8 2q4 -2 25 -2l43 2q33 0 43 -6t36 -6h15q27 0 60.5 -12.5t64 -30t56.5 -37t38 -31.5 q61 -90 61 -203q0 -31 -18.5 -56.5t-18.5 -51.5q0 -12 -14 -29.5t-32.5 -35t-36 -33t-23.5 -25.5q0 2 -15.5 -10.5t-39 -28.5t-48 -31.5t-40.5 -19.5q-8 -12 -25.5 -25.5t-37 -25t-36 -18.5t-22.5 -7t-10 2q-4 -4 -15 -10q0 -4 10.5 -17.5t10.5 -29.5l-2 -8q10 -14 20 -37 t18.5 -44.5t13.5 -40t5 -24.5q0 -8 -6 -14h2v-6q20 -4 24.5 -19.5t4.5 -21.5v-8l6 -11q6 -12 15 -27.5t17.5 -32t8.5 -28.5l8 -6q4 -6 8 -14q0 2 -2 2q2 0 10 -11.5t10 -23.5q0 2 -2 4q10 -25 26.5 -50.5t35.5 -51.5q8 -10 21.5 -25.5t25.5 -32t20.5 -32t8.5 -27.5 q27 -27 49 -56.5t33 -68.5q0 -4 7 -8t16 -8t16.5 -12.5t7.5 -22.5zM1176 1184q-14 53 -95 92l-8 4q-2 4 -34.5 16.5t-84.5 12.5q-35 0 -70.5 -3t-58.5 -8q8 -8 15.5 -17t7.5 -24v-2q0 -23 -19.5 -38t-44.5 -37q-14 -10 -22 -22.5t-16.5 -25t-17.5 -22.5t-23 -18 q-6 -12 -19.5 -36t-29 -49.5t-32 -50t-30.5 -43.5q-12 -16 -19.5 -36.5t-13.5 -26.5q-18 -14 -29.5 -33.5t-21.5 -41t-18.5 -40t-20.5 -30.5q29 2 54.5 19t66.5 17q43 14 58.5 39t21.5 29q8 4 24.5 28.5t59.5 45.5l-4 -4q6 12 22 12q39 -6 39 -45q10 4 13 14t18 10 q10 0 16 4.5t12.5 10.5t16.5 12t26 10q14 23 42 30t38 19v-2q0 16 16.5 21.5t26.5 9.5q8 0 9.5 12.5t17.5 12.5q31 23 55 49q20 23 38 52.5t18 64.5v8z" />
<glyph unicode="S" horiz-adv-x="1118" d="M1124 1421q-4 -12 -4 -16q0 -10 3 -22.5t3 -24.5q0 -4 -20.5 -31t-49 -56.5t-57 -54t-47.5 -24.5q-18 0 -18 29l2 22q0 8 -2 12.5t-16 12.5q-12 -6 -27 -6q-16 0 -17.5 -7.5t-13.5 -13.5h-61v2q-2 0 -10.5 -7t-21.5 -15.5t-29.5 -15.5t-32.5 -9q-29 -14 -48.5 -36.5 t-60.5 -37.5q-8 -4 -14.5 -20.5t-22.5 -26.5q2 -14 14.5 -24.5t26.5 -20.5t25.5 -22.5t11.5 -28.5h4q33 -10 43 -28.5t21 -28.5h2l4 2q14 0 25.5 -9.5t24.5 -21.5t28.5 -23.5t37.5 -15.5q-4 0 11.5 -5t35 -14.5t36 -23.5t16.5 -33v-4q0 -4 11 -6t26 -12q8 -12 32.5 -19.5 t46.5 -48.5q14 -27 25.5 -42t20 -25.5t12.5 -22.5t4 -33q0 -41 -14.5 -72.5t-24.5 -66.5l-2 -2q-4 -10 -16.5 -23.5t-12.5 -25.5q2 -2 2 -8q0 -12 -24.5 -33t-48.5 -37q0 -14 -12.5 -33.5t-29 -36t-30.5 -29t-17 -12.5l-14 2q-14 -29 -44 -46t-50 -38l-55 -41 q-4 -12 -13 -14l-57 -24q2 2 -12.5 -8.5t-38 -26t-52 -27.5t-55.5 -12q-41 -14 -98 -27.5t-115 -13.5q-59 0 -102 18q-66 16 -117 71.5t-51 145.5q0 16 2 44t5 55.5t6 48t7 24.5l7 17q10 27 23 54.5t38 43.5l31 53q6 10 18 11h4q12 0 23.5 20.5t29 44t46 44t75.5 20.5 q45 0 52.5 -26t7.5 -73q0 -53 -25.5 -83.5t-56.5 -30.5q-10 0 -18.5 -12.5t-18.5 -27t-21.5 -26.5t-27.5 -12q-2 0 -10 4q-6 -12 -13 -12q-4 0 -4 -7v-8l-7 -11t-16.5 -29.5t-18.5 -39t-13 -36.5q6 -6 6 -17v-8l4 -4q8 -8 21.5 -12t29 -8.5t31.5 -12.5t29 -22l10 -2l6 8 q4 4 26.5 7t49.5 5t50.5 3t31.5 1q2 0 10 -4q8 6 25.5 11t25.5 5q61 14 112.5 33t96.5 45.5t87 63.5t85 86q4 16 14.5 22t20.5 11q-4 4 -5 12t-1 12q0 20 10 32.5t14 16.5v2q2 -2 3 0q0 6 -28 47t-65 78q-14 14 -26.5 16.5t-22.5 12.5q-39 49 -83 74.5t-97 68.5l-4 2 q-4 0 -20.5 5.5t-32.5 21.5h-2q-10 0 -26.5 4t-16.5 23q-2 18 -12.5 29t-23 22.5t-24.5 26t-18 36.5v2q-4 20 -4 51q0 10 3 36t11 52.5t22.5 47t36.5 20.5q2 0 4 -2q4 8 9 12q4 27 26.5 45.5t36.5 32.5l23 10l6 7l6 6q14 10 32.5 22.5t28.5 22.5q14 12 40 24.5t46 24.5 l23 14q8 4 10 4q20 2 41 11.5t42.5 20.5t46 20.5t52.5 11.5q-2 -2 2.5 1t12.5 7t17 7t20 3l18 -2l47 2q10 0 30.5 -7t20.5 -25q0 -2 -1 -3.5t-1 -5.5z" />
<glyph unicode="T" horiz-adv-x="1167" d="M1810 1423q4 -12 5 -24q0 -27 -19 -45q-4 -6 -16.5 -25.5t-29.5 -42t-37.5 -40t-39.5 -17.5q-27 8 -32 31.5t-5 29.5q-8 0 -19 -5t-28 -5q-16 0 -27.5 11.5t-31.5 11.5q-31 0 -41 -7.5t-35 -7.5q-8 0 -17.5 1t-19.5 3l-20 -2q-8 0 -13.5 1t-9.5 1l6 -2q-12 0 -18 10 q-8 0 -31.5 -10t-50.5 -10l-39 8q-14 0 -44 -7t-64 -7h-19q-4 -6 -16 -6q-4 0 -13 4q-4 -4 -10 -4h-6q-53 0 -91 -19.5t-85 -27.5q-29 -16 -39 -31.5t-18.5 -30t-19.5 -30t-40 -31.5q-2 -16 -9 -26.5t-15.5 -17.5t-14.5 -13.5t-6 -16.5t-5 -13t-12 -6.5t-14.5 -10.5 t-13.5 -23q-6 -20 -19.5 -42t-28.5 -44.5t-28.5 -46t-19.5 -45.5q-20 -20 -31.5 -47t-23 -54.5t-25.5 -53.5t-41 -46q-10 -41 -31.5 -75t-38.5 -71q0 -33 -18.5 -61.5t-34.5 -71.5q-2 -4 -6 -16t-10 -26.5t-14.5 -24.5t-16.5 -10q4 -12 4 -21q0 -18 -14 -33 q-10 -4 -15.5 -15t-9.5 -25.5t-10 -29t-18 -26.5q-4 -4 -5 -12q0 -6 -1 -13.5t-4 -14.5t-15 -13l2 -13q0 -10 -2 -14q-16 -49 -32.5 -84t-16.5 -76q6 -12 6 -24t-4 -25l-2 -6q0 -6 -2 -8l-2 -2q-4 -8 -16.5 -20.5t-32.5 -12.5q-2 0 -19.5 10.5t-37 28.5t-36 45t-16.5 59 q0 80 28.5 146.5t53.5 132.5q25 25 29 48.5t26 53.5q0 10 14.5 40t34 66t40 70.5t30.5 57.5q0 10 21.5 21.5t31.5 21.5q-4 6 -4 20v27q0 8 8 16l6 4q0 16 7.5 31t17.5 19q10 2 14 8t7.5 15t6.5 19.5t13 22.5l33 37q-2 2 -3 7t-1 9q0 14 8 17q20 14 29.5 35.5t19.5 48.5 q8 25 31.5 63.5t46 78.5t41 79t18.5 63q0 6 -6 7q-29 0 -58.5 -5.5t-60.5 -9.5q-29 -4 -66.5 -17.5t-64.5 -13.5q-4 2 -14 3q-23 0 -45.5 -10.5t-46.5 -10.5q-16 0 -25 4l-22.5 -9t-28.5 -5q-29 0 -50.5 19.5t-21.5 35.5v-2q-6 6 -7 17.5t-1 19.5q0 18 4 39.5t15.5 40t31 33 t49.5 20.5q12 10 37 26.5t56 16.5q23 0 36 -11t31 -11q14 0 36 8t50 8q8 0 25 -4q10 4 27.5 8t36 7t33.5 5t20 2h24q29 0 45 4q6 -6 17 -6q8 0 16 4q4 2 6 7q10 0 16 -7q8 4 19.5 6.5t34.5 2.5q6 0 12 -3.5t6 -7.5l23 11q2 2 8 2q2 0 10 -4l12 2q6 0 9 -2q29 4 52 11t46 11 q16 0 22 -12q16 0 19.5 7t17.5 7h6q4 0 7 -2q18 6 56 9t50 3q4 0 8 -2t8 -2q6 0 26 5.5t48 5.5q4 0 16.5 -3.5t16.5 -5.5q8 8 18 9l33 -3q29 0 62.5 7.5t72.5 7.5q10 0 19.5 -1t13.5 -9q12 6 38 11t32 11l26 -4q23 0 48.5 7t50.5 7q8 0 12 -2q4 0 9 1t11 1t18.5 -4t12.5 -10 q12 18 39 18t43 -12.5t16 -32.5z" />
<glyph unicode="U" horiz-adv-x="1218" d="M1481 1270q0 -12 -4 -32.5t-11.5 -42t-20.5 -42t-32 -31.5q0 -25 -16.5 -59.5t-32.5 -52.5q-6 -6 -13.5 -26.5t-19.5 -44.5t-31.5 -46.5t-46.5 -34.5l2 -22q0 -16 -6 -33t-22 -27q0 -16 -5 -28.5t-26 -22.5l-2 -2v-4q0 -18 -7 -31.5t-11 -17.5q-6 -6 -17.5 -31t-27 -53.5 t-34 -55t-38.5 -36.5q8 -8 8 -17l-2 -6q-20 -49 -38.5 -88t-27.5 -88q-2 -6 -4 -9t-5 -6.5t-7 -8.5t-8 -19q0 -20 -7 -34.5t-14.5 -26t-14.5 -20.5t-7 -15l2 -11q0 -12 -4 -18l-19 -21q2 6 -7 -32.5t-26.5 -85.5t-39 -88t-43.5 -41q-18 0 -28.5 10t-18.5 20l-3 5q0 6 -2 16 t-2 20q0 18 2 32.5t2 31.5q0 10 -4 23.5t-4 23.5q6 23 18.5 49.5t12.5 44.5v4q2 37 16.5 49.5t14.5 26.5q0 4 -1 8t-1 8v2q0 8 9 24.5t13 37.5q2 10 9.5 25.5t15.5 32t15 33.5t9 34q-2 0 -2 2q-4 4 -6 4q-4 0 -8 -2l-18 -29q-10 -14 -23.5 -33.5t-29 -38t-30 -30.5 t-24.5 -12h-6q-2 -6 -7 -14.5t-16 -12.5q0 -25 -12 -37t-22 -20l-5 -2l-38 -50l-7 -2q-57 -63 -109 -126.5t-89 -118.5q-14 -14 -34 -17.5t-40 -25.5q-6 -23 -23.5 -43.5t-37 -36t-37 -24.5t-19.5 -9l-37 2q-4 0 -7 -1t-7 -1t-24.5 18.5t-43 50t-42 77.5t-19.5 102 q0 41 10.5 109.5t38.5 136.5v14q0 39 11.5 73.5t25.5 67.5t28.5 65.5t18.5 67.5q0 8 12.5 19.5t14.5 15.5v6q0 16 12 29q-2 2 -2 6v8q0 6 4 10q0 4 7 26t36 22h2l2 6l-2 30q0 27 12.5 53.5t29 53.5t32.5 53.5t22 55.5q0 10 7.5 12t7.5 8q0 29 21.5 48.5t21.5 23.5l-2 12 q0 -4 8 11.5t18.5 38t22.5 46t22 35.5q-31 -16 -53 -35.5t-57 -42.5q-10 -6 -26.5 -17t-32 -23.5t-26.5 -27t-11 -28.5q-35 -43 -68 -86t-66 -84q0 -18 -8 -29.5t-16 -15.5l-4 -4q-8 -12 -19 -12q-27 0 -39 18l-4 2q-14 0 -25.5 15.5t-18.5 37t-10 43t-3 33.5q0 33 9 52.5 t18 47.5q12 31 36.5 58.5t53 53.5t59.5 46.5t53 36.5q72 61 142.5 105t142.5 79q0 10 20.5 14.5t30.5 4.5q10 10 39 23.5t68 13.5q18 0 31.5 -10.5t21.5 -25t12 -26.5t4 -16v-2q0 -27 -13 -51.5t-34 -36.5q0 -12 7.5 -27.5t7.5 -38.5q0 -27 -15.5 -70t-37 -83.5t-43 -70.5 t-35.5 -30l-7 2q0 -6 2 -12t2 -14q0 -10 -8 -17q-12 -10 -19 -29.5t-13.5 -40t-15.5 -38t-27 -23.5q-10 0 -12.5 -8t-4.5 -20.5t-6 -28t-18 -29.5q2 -2 2 -8q0 -14 -6.5 -20.5l-14.5 -14.5l-6 -4q6 -4 6 -10q0 -16 -16 -21q-2 0 -8.5 -16.5t-15.5 -38t-20.5 -46t-23.5 -42.5 q-20 -29 -28.5 -59.5t-32.5 -65.5q-16 -23 -19.5 -39t-13.5 -37q-14 -16 -23.5 -45t-15.5 -63.5t-12 -72.5t-13 -75h9q6 0 13 3t11 16q6 16 25.5 35.5t43 38t48.5 37t41 30.5q51 41 95 87t95 67q12 4 27.5 29.5t44.5 35.5q8 29 23.5 44t32 25.5t30.5 21.5t19 32l4 8 q35 39 67.5 73t63 67.5t59.5 70.5t57 84q0 2 5 6l10 8q14 14 23.5 22.5t9.5 18.5q0 4 -3 6q0 23 14.5 42.5t28.5 35.5l9 11q27 29 35 58.5t16 35.5q8 8 13 21.5t9.5 29.5t13.5 31.5t27 25.5q6 35 26.5 68t20.5 49l17 21q8 8 18 8q-8 10 -8 24q0 23 10.5 35t10.5 23v8 q0 16 17 21t28 5q23 0 39 -13t26 -23l4 -5q2 -2 7.5 -6t14.5 -15t19.5 -33.5t20.5 -61.5z" />
<glyph unicode="V" horiz-adv-x="1191" d="M1354 1352q-6 -12 -13.5 -29.5t-13.5 -34t-13 -29t-14 -14.5q-10 -4 -20 -26.5t-39 -36.5q-6 -6 -8 -21.5t-19 -32.5q-6 -10 -19 -33.5t-29.5 -48t-32 -44t-25.5 -21.5q-4 0 -14.5 -14.5t-22.5 -31.5t-22.5 -31.5t-14.5 -16.5q-39 -47 -80 -109.5t-88 -109.5 q-16 -18 -29.5 -37t-29.5 -35q-29 -29 -48.5 -63.5t-49.5 -63.5q0 -2 2 -4q0 -2 -7.5 -16.5t-18.5 -33t-24.5 -34.5t-23.5 -23q-8 -2 -15.5 -12t-16.5 -22.5t-21.5 -26.5t-30.5 -27l-6 -2q-6 -10 -15.5 -20t-9.5 -17q2 -2 2 -8q-12 -23 -26 -43q-12 -16 -26.5 -35.5 t-25.5 -29.5q-25 -12 -41 -37t-45 -47q-8 -25 -22 -42.5t-31.5 -33.5t-34 -31.5t-28.5 -34.5q0 2 -8.5 -6t-22.5 -18t-30.5 -19.5t-30.5 -9.5q-29 0 -36 20.5t-7 26.5l4 45q-20 10 -36 28.5t-16 66.5q0 14 5.5 44.5t9.5 49.5q-2 2 -2 8q0 4 4 12q10 10 10 35t16 51v19 q0 41 16.5 68.5t31.5 62.5q0 8 -2.5 12t-2.5 8q0 43 13.5 84t34.5 76q6 12 6 27q0 8 -1 16t-1 18t2 22.5t10 27.5q4 31 15.5 81t24.5 97t26.5 80.5t23.5 33.5q-2 8 -2 23q0 8 2 24.5t5 34t6 30.5t7 17q14 14 15.5 50t30.5 96l-3 2q-14 4 -14 20l2 7q-4 -4 -7 -7.5t-9 -5.5 l-8 -4q-6 -6 -17 -6h-4q-16 -4 -32.5 -20.5t-32 -35t-30.5 -33.5t-28 -15q0 -4 -14 -17.5t-31.5 -29l-35 -31t-23.5 -27.5q-2 -6 -12.5 -21.5t-42.5 -15.5q-16 0 -19.5 17.5t-3.5 29.5q0 35 20.5 71t32.5 58l2 4q33 53 77 86t89 66q16 12 34.5 24.5t45.5 22.5q6 2 21.5 12.5 t36 20.5t40 18.5t33.5 8.5q4 0 6 -1.5t4 -1.5q4 0 12.5 9.5t24.5 9.5q20 0 41 -5t36 -21.5t25.5 -45t10.5 -74.5q0 -14 -2 -20l-2 -2q0 -4 -3 -22.5t-18 -28.5v-2q4 -8 4 -19q0 -20 -16 -26q2 -4 2 -13v-18q-2 -25 -7 -51.5t-30 -38.5v-6q0 -4 -2 -4l2 -31q0 -18 -10 -33 q-6 -33 -14 -55q-6 -23 -14.5 -39.5t-18.5 -16.5q6 -16 6 -30q0 -27 -9 -32t-9 -21v-19q0 -12 -2.5 -26.5t-16.5 -26.5v-6q0 -23 -9 -36t-9 -28v-6q0 -8 -3 -15t-8 -26q-4 -27 -17 -51.5t-21 -54.5q-10 -23 -11.5 -61t-25.5 -68l2 -13q0 -29 -12.5 -53.5t-20.5 -71.5l-2 -10 l12 -4q18 12 40 36.5t41.5 47.5t35.5 40t22 17q10 0 15 -4q4 4 8 13l4 6q-2 4 -2 10l11 17q12 18 28 40.5t35.5 44t38.5 27.5q10 2 24.5 18.5t27.5 38t26.5 44t23.5 36.5l2 4q14 23 27.5 40.5t25.5 33.5q8 10 17.5 25.5t19.5 32t20.5 29.5t16.5 19l2 3q8 35 30.5 45t31.5 20 q0 4 -2 8q0 16 11 29.5t24.5 26t24.5 23.5t11 24q0 4 -1 8t-1 8q0 10 9.5 23.5t19.5 27t19.5 23.5t9.5 12v6q0 8 6 15q12 12 25.5 38.5t24.5 52t19 45t15 19.5q-2 4 -2 10q0 8 11 22.5t27.5 29t38 25.5t43.5 11l9 7q12 4 24 9t29 5q14 0 20 -2q4 -2 14.5 -5t21.5 -7 t19.5 -11.5t8.5 -17.5q0 -6 -2 -8z" />
<glyph unicode="W" horiz-adv-x="1540" d="M1614 934q0 -20 -9.5 -28.5t-25.5 -12.5q-10 -45 -33.5 -83t-46.5 -79l-7 -6t-16.5 -16.5t-16.5 -20.5t-7 -16l-68 -111q0 -4 -8 -12q-25 -20 -41 -49t-30.5 -57.5t-32 -55.5t-47.5 -43q-6 -29 -19.5 -49.5t-29 -35.5t-28.5 -28.5t-20 -31.5q-12 -35 -29.5 -54.5 t-60.5 -54.5q-12 -10 -20 -24.5t-16.5 -30t-16.5 -27.5t-16 -14q-10 -4 -19.5 -14.5t-18.5 -21.5t-22.5 -21.5t-34.5 -12.5q-14 -6 -39.5 -20.5t-39.5 -14.5q-31 0 -45.5 15.5t-14.5 38.5l15 82l-2 8q-16 10 -18.5 24.5t-2.5 30.5q0 43 11.5 79t11.5 71q0 6 2 22t6 25v10 q0 20 2 51t6 64.5t9 69.5t13 69q0 6 8.5 28.5t17.5 47t16.5 46t7.5 25.5l-2 4q-4 0 -5 5q0 23 9.5 37t9.5 36q0 4 -4 8q-57 -66 -96 -117t-82 -85q-8 -6 -12.5 -21.5t-26.5 -25.5q-6 -16 -18.5 -22.5t-16.5 -18.5q-6 -23 -26.5 -40.5t-35.5 -35.5q-2 -16 -17 -33.5 t-17 -19.5q0 -4 -17.5 -32t-36.5 -38q-23 -31 -49 -71t-57 -64q-4 -8 -20.5 -29.5t-24.5 -26.5q2 2 -12.5 -12t-34 -31.5t-40 -33t-30.5 -15.5h-6q-6 -8 -18.5 -25.5t-27.5 -36t-30.5 -31.5t-23.5 -13q-10 0 -11.5 8t-11.5 8q-6 0 -12 -2q-35 23 -35 64q0 23 6 42t14 40l3 8 q-10 10 -11.5 30.5t-1.5 34.5q0 16 11.5 53t21.5 58q0 18 8 32.5t8 24.5q0 12 -3 21.5t-3 17.5q0 10 16.5 34t16.5 42q-2 6 -2 16q0 14 6 25.5t12 21.5q-4 4 -4 13q0 23 16.5 50.5t20.5 53.5q0 18 7.5 48t17.5 63t20 65.5t17 57.5v6q0 4 3 13t7 18.5t8 17.5t6 10l-2 17 q0 16 7 29.5t14 19.5q6 20 14 43q8 20 17.5 45.5t21.5 54.5v4q0 8 5 14.5t9 10.5v2q0 2 3 13t7.5 25.5t8.5 30t6 25.5v6q0 6 4 19q-39 -23 -72 -48.5t-69 -52.5q-14 -10 -28.5 -24.5t-29 -28.5t-27 -23.5t-20.5 -9.5q-25 0 -35 21.5t-10 42.5q0 45 26.5 85t63.5 64 q-4 0 10.5 6t35 14.5t40 17.5t23.5 15q2 4 19.5 14.5t39 19.5t40.5 17.5t26 10.5q10 6 17 11t17 5h5q16 18 53 29.5t57 11.5q27 0 38 -25.5t11 -45.5q0 -14 -4 -36t-8 -43.5t-8 -37t-6 -17.5q-6 -18 -13.5 -45.5t-14.5 -53.5t-14 -46t-16 -27v-8q0 -10 -5 -26.5t-12 -36 t-17.5 -37t-22.5 -27.5q6 -6 6 -16t-11 -29.5t-20 -28.5l-6 -28q-8 -41 -18 -77t-37 -73l2 -28q0 -16 -3 -23.5t-7 -11.5t-11.5 -8t-13.5 -13q16 -6 17 -26q0 -18 -9.5 -28.5t-19.5 -25.5q0 -4 3 -7t3 -9q0 -14 -14 -20q0 -6 -2 -22.5t-7.5 -38t-14.5 -46t-25 -47.5l2 -2 q4 -2 4 -10q0 -16 -7.5 -29.5t-7.5 -21.5t9 -9v-4q4 6 11 7t13 6q29 25 66 69.5t69 79.5q70 76 135.5 158t135.5 151v2q0 8 12 23.5t28.5 33t32 33t21.5 25.5t12 20.5t14 14.5q6 2 10.5 8t12.5 18.5t23.5 33t42.5 55.5q4 2 20 15t25 21q2 6 8 21.5t14 32t15.5 30t11.5 15.5 q6 4 23.5 10t38 12t37.5 11.5t24 5.5q12 0 15 -5.5t9 -11.5q2 2 8 2q4 0 11.5 -8t13.5 -19.5t11 -22.5t5 -17q0 -4 -1 -6.5t-1 -4.5q-25 -49 -37 -90t-22 -94q0 -6 -2 -10q-18 -29 -29.5 -64.5t-19.5 -70.5t-15.5 -63.5t-19.5 -41.5q-10 -10 -11 -37.5t-22 -46.5h-4 q-6 0 -6 -8t4 -15t4 -18q0 -10 -4 -22t-12 -17q8 -8 8 -20q0 -16 -12 -25q-8 -33 -13.5 -65.5t-15.5 -63.5q4 -16 4 -20q0 -23 -10 -39t-10 -29l2 -16q0 -6 -3.5 -11t-3.5 -14q0 -10 3 -16q74 84 124 147.5t84.5 115.5t59 95t49.5 84l4 6q16 27 34.5 50.5t18.5 56.5 q0 20 15.5 23.5t15.5 19.5q0 2 5 19.5t14.5 37t20.5 35.5t23 16q4 6 7.5 13.5t9.5 11.5q-4 8 -7 12t-3 15q0 25 17 43t28 37v6q0 14 6 22t14 15l4 2q2 8 6.5 23.5t10.5 31.5t12 29.5t10 19.5q10 14 10 33q0 20 15 41v6q0 29 16.5 42t16.5 34q0 14 8 31.5t17 33t18.5 25.5 t13.5 10q8 0 27.5 -4t31.5 -6q8 -2 21.5 -14.5t27 -30t22.5 -38t9 -34.5q0 -2 -6 -27.5t-16.5 -57.5t-22.5 -61.5t-24 -41.5q-25 -39 -38.5 -80t-33.5 -82z" />
<glyph unicode="X" horiz-adv-x="1054" d="M1370 1421q0 -20 -10 -32.5t-23.5 -19.5t-26 -12t-14.5 -11q-8 -16 -15 -20.5t-15.5 -6.5t-18.5 -2q-8 0 -18 -6q2 2 -11.5 -12.5t-31 -32t-33.5 -32.5t-20 -15h-9q-2 -12 -2 -15l-4 -4q-2 -2 -2 -4t-4 -6q0 2 -16.5 -13.5t-37 -35t-40 -38t-21.5 -22.5v-4 q0 -18 -15 -33.5t-38 -15.5q-14 -27 -34.5 -48.5t-43 -41.5t-44 -40.5t-38.5 -45.5q-2 -4 -4 -5t-4 -3q-33 -20 -53.5 -54t-42.5 -63q0 -14 -12 -22v-3q0 -12 6 -21t6 -19l4 -76q0 -14 -16 -21q27 -43 26 -86v-8q4 -10 8.5 -30.5t4.5 -30.5q0 -16 -7 -31q8 -14 13.5 -33.5 t5.5 -23.5q0 -12 -10 -23q8 -10 18 -33.5t18.5 -48t13.5 -45t5 -27.5l-2 -6q12 -12 26.5 -40.5t14.5 -39.5q0 -27 -17.5 -51t-42 -43.5t-49 -32t-37.5 -12.5q-6 0 -10 4l-6 -2q-20 0 -31.5 25.5t-17.5 59.5t-8 65.5t-2 46.5q0 6 4 14q-23 25 -29 41t-6 37q0 14 1 31.5 t1 44.5q-12 6 -17.5 33.5t-6.5 62.5t-3 69.5t-8 57.5q0 12 4 18q-2 39 -12 76h-6q-10 -12 -20.5 -36.5t-28.5 -24.5q-23 -33 -48.5 -58.5t-50.5 -56.5q-4 -6 -14 -6h-10q-4 0 -8 -4v-8q0 -27 -14.5 -44.5t-33.5 -33.5l-4 -4q-25 -23 -39 -49.5t-36 -38.5q-27 -14 -46.5 -43 t-41.5 -52q-10 -10 -19.5 -25.5t-23 -30.5t-31 -27.5t-41.5 -14.5q0 -2 -9.5 -11t-19.5 -18.5t-21.5 -16.5t-17.5 -7h-12q-4 0 -14.5 -4t-20.5 -4q-29 0 -37 28.5t-8 51.5q0 8 1 14t3 14v8q0 23 17.5 43.5t40 36t41 24.5t22.5 9h4q14 10 33.5 33.5t36.5 23.5q4 0 6 -2 q8 27 28.5 39.5t22.5 30.5q4 29 25.5 34t44.5 7q0 12 10 30.5t26.5 37t36 35t37.5 24.5q29 27 50.5 57.5t54.5 52.5q8 20 25.5 38t36 32t31.5 29.5t13 34.5l-16 159q0 20 2 31q-16 35 -23.5 83t-7.5 73q0 14 4 22q-6 18 -13 44t-19 40h-17q-16 0 -28.5 4t-12.5 21 q0 33 29 62.5t65.5 52t70.5 37t44 14.5q20 0 31.5 -10.5t17.5 -24.5t7 -30.5t1 -26.5q0 -39 12.5 -51.5t12.5 -26.5q0 -10 -7 -15.5t-7 -19.5l12 -68q0 -12 -8 -28l4 -15l20 -205l103 127q8 10 27.5 14.5t19.5 14.5l-2 17q0 6 10 19t24.5 28.5t29 30t22.5 24.5q8 12 20.5 13 t16.5 24q14 35 47 71.5t65 71.5l11 10l14 17q14 16 31.5 34.5t34 34t24.5 15.5q16 2 25.5 10t18.5 15.5t21.5 13.5t34.5 6q12 0 33 -4t39 -11.5t31.5 -20t13.5 -28.5z" />
<glyph unicode="Y" horiz-adv-x="1124" d="M1434 1470q0 -20 -19.5 -29t-36.5 -16q-4 -10 -7 -19t-17 -11q-10 -10 -11 -33q0 -20 -26 -39q-4 -8 -9 -14t-10 -11q-4 -10 -14 -30.5t-24.5 -42t-28.5 -38t-23 -16.5l-4 -6q2 -4 2 -16q0 -20 -9 -35.5t-21 -30.5q-8 -10 -15.5 -22t-13.5 -17q-10 -10 -19.5 -22 t-9.5 -27l4 -16q0 -10 -8 -24.5t-18.5 -29t-17.5 -26.5t-7 -16q2 -4 2 -11q0 -10 -8 -16q-27 -25 -39 -61.5t-39 -63.5q-2 -31 -23.5 -50t-27.5 -44q0 -4 -4 -8q0 -16 -4 -27.5t-21 -15.5q-14 -27 -28.5 -57.5t-36.5 -49.5q-2 -10 -8.5 -25.5t-15.5 -30.5t-19.5 -28.5 t-18.5 -15.5q-4 -2 -11 -13.5t-11 -17.5l-2 -16q0 -6 -8 -15q-4 -4 -7.5 -18t-7.5 -23q-29 -51 -63.5 -101t-57.5 -105q-2 -6 -8 -9q-16 -16 -29.5 -38.5t-23.5 -45.5q-4 -12 -10 -14q-2 -10 -13 -16q0 -16 -9 -29.5t-20.5 -27t-21.5 -27t-16 -27.5v-8q0 -18 -25 -23 q-31 -47 -68.5 -78.5t-82.5 -64.5q-14 -10 -44 -29.5t-46 -19.5q-4 -6 -5.5 -9t-9.5 -7q-23 -10 -40 -18.5t-42 -8.5q-6 -4 -25.5 -6t-29.5 -2q-23 0 -39 8q-10 -12 -24 -12q-10 0 -22.5 8t-23.5 12q-25 14 -42 30.5t-17 49.5q0 8 2 22.5t6 29t10.5 25.5t14.5 13 q8 10 22.5 25.5t30.5 15.5t26.5 -7t17.5 -15.5t13.5 -17.5t14.5 -11l8 -4q4 -4 25 -4q23 0 38 -9l5 3q8 8 16 8q4 0 8 -2t8 -2l66 30q10 6 15 16.5t10.5 18.5t14.5 14.5t25 6.5h2q6 20 9.5 26t8.5 7t12 4.5t20 17.5l-2 6q0 6 8 14l4 5q12 12 23.5 25t17.5 32q4 10 10 16 t14 10q-2 2 -2 11v6q2 8 13 12q23 10 29.5 37t23.5 41q8 8 14 23.5t10.5 34t9.5 37t15 30.5q-4 -2 -10 -2q-8 0 -17 4q-39 12 -39 41l3 12v217q0 10 4 20.5t4 20.5q0 25 -6.5 50.5t-6.5 52.5q0 29 11 55q-6 39 -6 78l-5 65q0 10 2.5 17.5t4.5 15.5q-10 8 -11 21l2 20l-8 68 l6 53q0 37 -13 71.5t-15 71.5l-6 -2q-2 0 -3.5 1t-5.5 1l-2 -2q-16 -12 -26 -14q-6 -10 -16.5 -18.5t-20.5 -14.5q-8 -4 -15.5 -10t-9.5 -17q-2 -10 -18.5 -26.5t-26.5 -16.5q-16 0 -23.5 11.5t-7.5 27.5q0 70 46.5 122t99.5 93l6 7l15 9t22 7q14 6 21.5 11t12.5 9t10 7.5 t15 3.5q18 0 37 6t37 8q6 6 16 6q6 0 19.5 -5t19.5 -9q16 -4 21.5 -13.5t7.5 -23.5q8 -6 8 -16l-2 -19l6 -70l-2 -18q6 -16 6 -35q0 -16 -4 -33.5t-4 -35.5q0 -16 5 -22.5t5 -16.5t-2 -17.5t-4 -15.5q2 -8 7.5 -13.5t5.5 -19.5q0 -10 -4.5 -19.5t-4.5 -19.5l2 -14 q-4 -72 -10 -144.5t-6 -144.5v-31q0 -12 2 -28l4 -64l-6 -47q8 -2 12 -10q14 14 27 16q8 10 14 18.5t13 18.5v12q2 8 12 13q18 16 33 37l16 32q16 43 37.5 81t50.5 75q4 31 18.5 57.5t28.5 55.5q-2 2 -2 4l37 73q8 14 16.5 28.5t20.5 25.5l-2 35q0 31 24 49q2 8 10.5 29.5 t18.5 43t21.5 40t19.5 20.5q4 6 3 15t1 16q4 10 8 12q20 18 28.5 43.5t14.5 52.5q14 53 30.5 85t74.5 50q6 2 11 4t9 4q20 8 42 11.5t44 3.5q12 0 37 -3t33 -14q10 -6 21.5 -14.5t11.5 -24.5z" />
<glyph unicode="Z" horiz-adv-x="1013" d="M1206 1337q0 -16 -6 -27.5t-14 -19.5t-16.5 -17t-12.5 -22q0 -10 -7 -22t-17.5 -24.5t-20.5 -24t-16 -17.5l-13 -14q-4 -4 -8 -4l-12 -6q-2 -2 -10 -2h-6v-9q0 -29 -19.5 -53t-30.5 -31q-4 -6 -13 -20t-18.5 -28.5t-18.5 -24.5t-15 -10q-43 -43 -89 -89.5t-81 -93.5 q-14 -12 -25.5 -35.5t-38.5 -40.5q-16 -33 -32.5 -56t-38 -48t-46 -53.5t-55.5 -69.5q-4 -23 -7 -27t-12 -11t-28.5 -24.5t-56.5 -66.5l-2 -4q4 -8 4 -14q0 -16 -12.5 -23.5t-20.5 -11.5h-2q-4 0 -15.5 -11.5t-23.5 -26.5t-21.5 -28.5t-9.5 -19.5q4 2 15 2q14 0 30.5 -4 t34.5 -4l121 8q23 0 45.5 -4t42.5 -15q14 14 37 15q6 0 12.5 -1t14.5 -3l94 -11q6 0 21.5 -2t33 -6t29.5 -12t12 -23q0 -33 -14 -66.5t-19 -37.5l-12 -16q-8 -14 -17 -27.5t-26 -13.5q-16 0 -24.5 13t-8.5 24h-26q-4 0 -23.5 5t-27.5 21l-5 -2q-18 -6 -36 -10l-39 -2 q-10 0 -15 2q-4 -2 -9 -5t-11 -3t-14.5 6t-30.5 6q-14 0 -15 -12q-23 -14 -50 -16.5t-46 -2.5q-10 0 -15 5t-9 5l-11 -14q-8 -8 -18 -8q-8 0 -8 4q-10 -6 -17 -6q-6 0 -14 4q-23 -10 -47.5 -13t-48.5 -3q-29 0 -54.5 -8.5t-41.5 -8.5h-7q-18 0 -42.5 -10t-57.5 -10 q-20 0 -38.5 17.5t-18.5 51.5q0 4 1 10.5t3 6.5q8 23 26.5 52.5t38 56t38 45t28.5 18.5l37 6q2 0 4 2q4 0 5 -1t3 -1h-2q-2 0 10.5 11t28.5 24.5t29.5 26t13.5 14.5v6q0 12 9 21.5t20 15.5q27 27 41 48t30 38q0 12 10.5 24.5t22.5 23.5t22.5 19.5t10.5 14.5v4 q0 10 15.5 27.5t33.5 37.5q12 12 28.5 36t34 46.5t33 42t25.5 23.5q12 2 19 13t15.5 23.5t18.5 26t29 19.5q29 25 49 63.5t59 59.5l6 10q12 27 26.5 49t43.5 39q-4 8 -4 14q0 16 15.5 32.5t23.5 25.5q16 16 20 34.5t17 30.5q-2 2 -13 2q-8 0 -22 -2t-31 -2q-14 0 -22 2 q-14 -2 -29 -2h-27l-24 2q-16 0 -28.5 -5t-22.5 -5l-25 4q-20 0 -42 -9.5t-50 -9.5h-10q-12 -8 -23 -8q-6 0 -18 4q-12 -6 -25.5 -7t-26.5 -1l-12 2q-16 0 -21 -8t-16 -8l-28 -2q-2 0 -19.5 3t-17.5 19q0 47 23.5 88t72.5 76q14 10 29.5 22.5t37 22.5t52 17.5t76.5 7.5 l36 -2q31 0 59.5 6t57.5 6q12 0 17.5 -8t9.5 -8q4 2 10 2q4 0 8 -2t8 -2q6 0 20.5 5t33.5 5h10q6 6 16 6h160q10 0 14 -6t17 -6q16 0 31.5 7t31.5 7q12 0 26.5 -3t18.5 -19v-9z" />
<glyph unicode="[" horiz-adv-x="532" d="M965 1628q2 -4 2 -8q0 -23 -20.5 -36t-45 -22.5t-48.5 -14.5t-30 -11l-43 -14q-4 -25 -9 -36t-15.5 -25.5t-30.5 -41t-57 -82.5q0 2 -8.5 -18.5t-18.5 -28.5q-8 -12 -13 -29.5t-10.5 -34t-13.5 -31.5t-22 -28q-16 -49 -39 -98t-45 -96l-2 -2q0 -2 -4.5 -11.5t-8.5 -23.5 l-4 -12q-2 -4 -11 -21.5t-9 -36.5q-10 -6 -12.5 -19t-3.5 -27.5t-5 -29t-16 -26.5q0 -16 -7 -31.5t-16.5 -30t-16.5 -25.5t-7 -18q0 -4 2 -8t2 -8q0 -20 -11.5 -41.5t-15.5 -42.5q0 -18 -14 -44t-19 -46q-10 -53 -36.5 -111.5t-32.5 -115.5q0 -8 -7 -38t-15.5 -61.5 t-14.5 -57.5l-6 -26q-10 -18 -13.5 -38.5t-3.5 -40.5t-2 -43t-10 -48q14 -14 21.5 -25t11.5 -18.5t9 -11.5t16 -4q2 0 4 1t6 1q33 0 52 -21.5t19 -27.5q0 -16 -22.5 -21.5t-63.5 -5.5q-23 0 -50 2t-58 19l-19 12q-12 8 -30.5 18.5t-34.5 19.5t-27.5 18.5t-11.5 15.5 q0 2 2 12t5 25.5t8 31t14 27.5v14q0 39 14 74t25 96q4 18 11 40t13 41.5t11.5 35.5t5.5 25l-3 6q0 2 5.5 23.5t12.5 48t16.5 53t19.5 43.5l6 24q10 47 23.5 99.5t35.5 99.5q4 6 15.5 33.5t23.5 60.5t21.5 62.5t9.5 40.5q29 70 56.5 151.5t70.5 171.5q12 25 30.5 61.5 t18.5 57.5q18 29 32.5 59.5t26.5 65.5q4 8 10.5 24.5t12.5 32t13 27.5t12 14q4 0 9 8.5t13 19.5t21.5 19t31.5 8h6q4 2 12.5 5.5t14.5 3.5h2q-4 -4 13.5 2t48 13t73.5 14t92 7q18 0 31 -2t19 -12z" />
<glyph unicode="\" horiz-adv-x="636" d="M657 -106q-4 -10 -21.5 -11.5t-23.5 -1.5h-10q-6 0 -13 -2t-16 -2q-25 0 -36 12.5t-15 22.5v2q0 6 -13 19.5t-15 60.5q-6 6 -18.5 32.5t-12.5 53.5q0 12 2 18q-12 10 -17.5 23.5t-9.5 25.5l-2 3q-4 31 -17 52t-13 54q-18 23 -29.5 54.5t-11.5 66.5v16q-23 10 -30 30.5 t-11 37.5v4q-4 23 -11.5 28t-7.5 17v4q0 10 -8 14t-8 17q0 4 1 5t1 3q0 10 -3 19.5t-3 21.5v12q-16 10 -22.5 24.5t-8.5 29t-4 26.5t-8 19q-10 23 -18.5 63.5t-18.5 69.5l-8 18q0 8 4 19.5t4 17.5q0 8 -4 14t-8 15q-14 20 -21.5 43.5t-12.5 45t-12.5 41t-23.5 31.5 q2 -2 -8.5 21.5t-22.5 56.5t-23.5 69t-11.5 60q-4 14 -19 28.5t-15 43.5q0 6 -11.5 18.5t-11.5 32.5q0 14 12.5 26.5t27.5 21.5t28.5 13.5t15.5 4.5t10 -4q2 2 6 2l31 4q14 -2 27 -8q10 -6 19 -16.5t9 -26.5v-9q10 -68 39 -130t39 -115q0 -10 6 -31t14.5 -43.5t14.5 -40 t8 -17.5q8 -4 20.5 -39.5t22.5 -78.5t19.5 -84t13.5 -58l4 -18q6 -20 15.5 -43t16.5 -43.5t13 -34.5t6 -20q0 -14 -6 -21q4 -16 20.5 -32.5t20.5 -45.5v-2q10 -55 29.5 -107t42.5 -110q14 -8 27.5 -43t23.5 -77t19.5 -80.5t19.5 -53.5l-2 2q0 -2 6 -13t14.5 -26.5t14.5 -35 t6 -35.5q-1 -26 -17 -51z" />
<glyph unicode="]" horiz-adv-x="675" d="M963 1532q-10 -18 -11 -41q0 -23 -16 -45v-16q0 -35 -12.5 -71t-28.5 -97q-10 -41 -24.5 -82t-14.5 -68q2 -2 2 -6t-2 -6q-16 -31 -23.5 -75t-29.5 -79l-4 -24q-10 -43 -22.5 -90.5t-28.5 -90.5l-5 -6h-2q0 -10 -8 -26.5t-16 -42.5q-6 -27 -13.5 -44.5t-15.5 -39 t-19.5 -52t-25.5 -81.5q-23 -82 -69 -173.5t-78 -187.5q-20 -20 -33.5 -55t-26 -71t-24 -64.5t-27.5 -36.5q-2 -2 -7 -11.5t-14.5 -19.5t-21.5 -18.5t-27 -8.5l-10 2q-20 -6 -47 -14q-23 -6 -55.5 -11t-75.5 -7q-16 -8 -35.5 -10.5t-38.5 -2.5q-18 0 -36.5 3.5t-18.5 19.5 q0 23 19.5 35t44 20t47 13.5t30.5 13.5q10 8 23 8q14 0 22 8q2 20 9.5 34.5t19.5 32t32.5 44t51.5 74.5v-3q2 10 6 19q4 8 7 15t12 16q16 27 23 62.5t36 60.5q18 49 39.5 98t44.5 94l2 4q0 2 5 12.5t9 20.5l4 12q0 14 5.5 25.5t11.5 23t11 23.5t5 29q2 14 13.5 39.5t23.5 50 t22.5 45t10.5 28.5l-4 19q4 23 16 47t12 43q18 49 32.5 92t33.5 94q27 68 42 133.5t34 169.5q8 0 12 19.5t7 45.5t4 50.5t5 36.5v6q0 8 4 16q-2 0 -6 5q-23 23 -27.5 39t-25.5 16l-10 -2q-23 0 -46.5 17.5t-23.5 29.5q0 18 19.5 23.5t60.5 5.5q35 0 59 -9h-2l25 -4 q20 -4 31 -10l18 -12q12 -8 30.5 -17.5t36 -19.5t29 -19.5t11.5 -15.5t-2 -8z" />
<glyph unicode="^" d="M965 995q0 -23 -29 -31t-53 -8l-45 7q-45 27 -70 64.5t-53 72.5q-29 -14 -56.5 -38t-64.5 -36q-12 -25 -43 -32t-47 -17q-20 -14 -48 -25.5t-58.5 -18.5t-61.5 -10t-57 -3q-10 0 -15.5 7t-5.5 15q0 14 2 20.5t13.5 12.5t32 17.5t56.5 35.5q18 12 51 32.5t69 44t67 47.5 t43 40q16 8 27.5 23.5t23.5 30t31.5 25.5t52.5 11q20 0 31 -2q4 0 10 1t14 1h84q-2 0 4.5 -3t14.5 -7t15 -9.5t7 -9.5l-2 -12v-70q0 -49 9.5 -92t41.5 -71q9 -5 9 -13z" />
<glyph unicode="_" horiz-adv-x="1204" d="M1161 -47q0 -2 2 -4q0 -6 -8 -12q-6 -6 -18.5 -20.5t-32 -29t-50 -26t-73.5 -11.5h-6q-10 0 -17.5 5.5t-13.5 5.5q-10 0 -27.5 -7.5t-44.5 -7.5q-20 0 -45 9q-12 -4 -14 -5l-12 3q-10 -2 -27 -3l-61 5l-35 -13l-8 2h-27q-10 0 -22.5 2t-22.5 7h-301q-12 -6 -30.5 -7.5 t-30.5 -1.5l-19 2l-2 -2h-4q-6 0 -8 2q-12 -4 -21 -4l-12 4h-53q-63 0 -90 7.5t-27 23.5l2 17q2 10 8 26.5t16.5 32.5t27 28.5t40.5 12.5h23q10 0 20 -6q25 -2 51.5 -3t55.5 -1h59q31 0 64 -2q0 6 9 8t13 2l82 -12q41 0 83 6t91 6q18 0 36.5 -1t35.5 -9q6 6 18 6h19 q16 0 49 -5.5t57 -5.5q23 0 34 6.5t21 6.5q8 0 17 -4l8 2q10 0 14 -4q12 4 19 4l41 -4l86 4q18 0 34.5 -2t20.5 -15l6 -18v0z" />
<glyph unicode="`" horiz-adv-x="1024" d="M870 944q-2 -4 -14 -16.5t-27 -12.5q-4 0 -20 5.5t-36.5 13.5t-40 19.5t-30.5 21.5q-41 0 -65.5 15.5t-42.5 31.5q-20 27 -47 39t-50.5 27.5t-40 40t-16.5 73.5v25q0 29 29 54.5t55 29.5q12 0 33 -19.5t43.5 -46t46 -54.5t39.5 -42q10 -10 15.5 -19.5t10.5 -17.5t12 -15 t24 -14q27 -10 38 -33.5t35 -35.5l6 -6q2 -2 9.5 -5.5t15.5 -9.5t14 -15t6 -22q0 -8 -2 -12z" />
<glyph unicode="a" d="M1120 354q-4 -16 -12 -27.5t-18.5 -21.5t-19.5 -20.5t-15 -22.5q0 2 -2 -3t-8.5 -13t-13.5 -14.5t-15 -8.5l2 2q-14 -12 -25 -22q-10 -10 -16 -18.5t-6 -10.5q-10 -14 -24.5 -26.5t-30 -22.5t-25.5 -20.5t-10 -18.5l-33 -27q-31 -23 -64.5 -49t-68.5 -48.5t-69 -39 t-64 -16.5q-27 0 -44.5 21.5t-27.5 52t-14 63.5t-4 55q0 35 5 66t15 59v10q0 23 10 35.5t17 26.5l-7 4l-7 -8t-15 -18.5t-15.5 -18.5t-9.5 -8h-4q-16 -29 -51 -47l-2 -4l-2 -2l-4 -15q-2 -6 -6 -8t-13.5 -7t-25 -16.5t-37.5 -33.5q2 -2 2 -9q0 -18 -19.5 -33.5t-25.5 -15.5 q-23 -4 -35 -21.5t-43 -27.5v-2q-4 -8 -22.5 -25.5t-81.5 -17.5q-25 0 -47 8q-12 0 -24.5 18.5t-22 43t-15.5 49t-6 37.5q0 27 12.5 61.5t28.5 67.5t31.5 58.5t23.5 33.5l43 65q6 6 13.5 8.5t11.5 2.5q2 18 11 35.5t20.5 31t22.5 21.5t18 8l10 14q10 13 24.5 30t27.5 30.5 t17 13.5h4q12 0 26.5 20.5t43.5 24.5q23 33 57.5 60.5t73.5 48.5l-2 -2l10 7q11 7 26 15t32.5 15.5t36.5 7.5q18 25 52 27.5t56 8.5l21 -2q18 0 38.5 -14t37 -32.5t26.5 -39t10 -32.5t-5 -24.5t-21 -12.5h-17h-30q-16 0 -35 -2t-34 -6t-22 -11q12 0 28.5 -10t31 -26.5 t25 -38t10.5 -41.5q0 -12 -15.5 -29.5t-27.5 -17.5l-9 2q6 -6 7 -17q-2 -16 -23.5 -54t-36.5 -61q-33 -51 -45 -100t-27 -102l-12 -39q0 -4 2 -7t2 -14q16 0 46 16.5t46 26.5q-2 -2 9.5 3.5t30 14.5t40 21.5t41.5 28.5q49 39 84 57.5t68 44.5q8 6 22.5 18.5t30.5 25 t31.5 20.5t27.5 8q2 0 5 -2l16 -4q14 -4 14 -17q0 -6 -2 -8zM657 616q18 20 19 27q0 4 -4 4t-13.5 -5t-21.5 -11t-22.5 -11.5t-14.5 -5.5h-4q-92 -35 -160.5 -92t-120.5 -110l-4 -11q-41 -47 -84 -97t-84 -97q0 2 0 -4t-2 -15.5t-7 -17.5t-13 -8q0 -10 8 -11t14 -1 q25 0 48.5 21.5t58.5 27.5q27 16 42 32.5t46 26.5q55 53 114.5 119.5t114.5 122.5q-2 -2 7.5 10t19.5 28.5t20.5 30t12.5 13.5h6h2q2 0 3 1t5 1v14q0 6 4 7t10 11z" />
<glyph unicode="b" horiz-adv-x="757" d="M815 1282q0 -8 -6 -10q-43 -47 -69.5 -101.5t-61.5 -97.5q-23 -29 -39 -68.5t-45 -68.5l-10 -10l-9 -23q-12 -29 -23 -52.5t-26 -51.5v-4q0 -4 6 -4h5q12 -4 24 -5h29q45 -2 76.5 -15t64.5 -23q25 -6 40 -24.5t24.5 -41.5t13.5 -47.5t4 -44.5v-35q0 -18 -2 -35.5t-4 -32 t-4 -16.5q-23 -66 -45.5 -128t-73.5 -120q-14 -27 -42 -47t-40 -43q0 -4 -22.5 -22.5t-53 -41t-62.5 -42t-50 -21.5t-53 -29.5t-91 -39.5q-39 -10 -60.5 -24.5t-27.5 -14.5h-12q-16 0 -32.5 -7.5t-37.5 -7.5q-27 0 -46 13.5t-32.5 34t-20.5 42t-7 39.5q0 14 4 34t10 40 t14.5 37.5t14.5 28.5q37 78 71.5 150.5t86.5 156.5q0 4 5 11t5 17q0 16 -7.5 39t-7.5 39q0 6 8.5 27.5t18.5 25.5v13q0 10 11.5 23.5t28.5 25.5t35.5 23.5t33.5 19.5q37 53 63.5 122.5t67.5 131.5q2 25 22.5 33t24.5 12q-2 0 -4 6t-2 10q0 6 5 11.5t5 7.5l-4 16 q10 29 29.5 57.5t44.5 53.5v24q0 6 4 13q6 10 19 32.5t38 71.5l2 6q6 16 17.5 41t24.5 47.5t28.5 39t33.5 16.5q8 0 20.5 -10.5t24 -30t19.5 -50t8 -71.5q0 -21 -2 -31zM721 555q-10 0 -16 14q-6 8 -9 17q-29 4 -47 10t-43 6q-18 0 -51 -4t-65.5 -12t-60.5 -20.5t-38 -26.5 q-12 -37 -25.5 -60.5t-26.5 -45t-25.5 -46.5t-22.5 -63q-6 0 -20.5 -26t-33 -60.5t-37 -72.5t-30.5 -65q4 0 3 -5t9 -5q8 0 13.5 5t15.5 5t14 -4q-2 -2 6.5 4t21.5 13.5t26.5 14.5t23.5 7q18 2 31.5 9.5t26 16.5t25.5 17t34 12l88 58q37 31 72.5 64.5t65.5 71.5t50.5 81 t24.5 90z" />
<glyph unicode="c" horiz-adv-x="757" d="M920 467q0 -47 -19.5 -79t-52.5 -64q2 4 -6 -10.5t-31 -24.5q0 -2 2 -2q0 -14 -14 -19q-4 -2 -15.5 -16t-28 -30.5t-35 -30t-38.5 -13.5v-4q0 -12 -17.5 -29.5t-42 -36t-53 -35t-49.5 -24.5q-4 -14 -20 -26l-2 -5q-4 -4 -11 -4h-6q-16 0 -33.5 -8t-41.5 -8h-9 q-8 -10 -24.5 -22.5t-26.5 -12.5h-8q-6 -10 -27.5 -19.5t-49.5 -16.5t-56.5 -12t-48.5 -5q-23 0 -44.5 4t-37.5 18q-10 8 -22.5 25.5t-24 42.5t-19.5 52.5t-8 56.5q0 27 10 68.5t27.5 86.5t40 88t47.5 72l-2 -2q0 2 12 24.5t29.5 48t37 46t34.5 20.5q16 37 44.5 67.5 t61.5 57.5t66.5 52.5t60.5 52.5l16 12q8 4 17.5 8t21.5 6l6 4q16 10 37 20.5t49 10.5q10 0 17 -2q6 6 14 6q14 0 30.5 -15.5t31 -38t24.5 -47t10 -42.5q0 -14 -5 -19.5t-5 -27.5q2 -4 2 -15q0 -35 -18.5 -63.5t-45 -51t-56 -37t-52.5 -18.5q-20 0 -28.5 17.5t-8.5 31.5 q0 35 20.5 67t20.5 52l-4 4q-2 -2 -8 -2h-8q-12 0 -25.5 -9t-24 -21.5t-17.5 -22.5t-9 -10q-27 -10 -54.5 -41t-49.5 -45q-10 -2 -17.5 -11.5t-16.5 -20.5t-20.5 -22.5t-27.5 -17.5q-18 -29 -47 -79t-52 -79l-9 -11t-18 -27.5t-17.5 -34t-8.5 -31.5v-8l2 -6q0 -6 -1 -13.5 t-5 -11.5q6 -6 19.5 -10t27.5 -5t24.5 -2t12.5 -1q39 0 69.5 9t59.5 21.5t57.5 25.5t61.5 23q45 12 61.5 27.5t42.5 26.5q14 10 27 18q10 8 23.5 16.5t23.5 14.5q20 10 40.5 31.5t39.5 21.5v6q0 8 8 17q51 29 77.5 59.5t41.5 30.5l4 -2q4 4 12 13t17 13l14 6q4 2 14 3 q12 -4 13 -11v-14z" />
<glyph unicode="d" horiz-adv-x="806" d="M1155 1163q0 -6 -20.5 -26.5t-30.5 -49.5q-25 -45 -53.5 -87t-55.5 -95q-39 -80 -90 -150.5t-74 -150.5q0 2 -7 -14.5t-11 -20.5q-29 -47 -45 -100t-51 -88q0 -6 -4 -22.5t-10.5 -36t-16.5 -40t-22 -34.5q4 -16 4 -21q0 -8 -4.5 -21t-9.5 -25.5t-11 -24t-8 -13.5l-8 -6 q-4 -25 -11.5 -49.5t-17.5 -46.5q-16 -41 -21.5 -68.5t-29.5 -66.5q2 2 -4 -13.5t-16.5 -34t-22.5 -35t-23 -16.5q-25 0 -42 17.5t-28.5 39t-16.5 41t-5 23.5q0 33 17.5 56.5t17.5 42.5v4q0 14 6 21t14 11q-2 2 -2 11q0 4 11.5 22.5t15.5 36.5q2 8 9 19.5t15.5 22.5 t14.5 22.5t6 17.5l-4 12q-25 -16 -43 -36.5t-43 -47.5q-31 -31 -68 -53t-71 -43q-18 -23 -57.5 -42t-104.5 -19q-23 0 -42.5 7t-35.5 23q-10 18 -31.5 74.5t-21.5 122.5q0 57 22 100q14 14 25.5 33t25 37t29 33.5t37.5 23.5q16 29 44 52.5t54.5 42t46 31t19.5 20.5v6 q0 -2 6 2t14.5 10t18.5 12.5t18 8.5l8 4q18 10 39 19t43 11q10 23 34 26t28 7q-2 0 -2 -2q2 4 4 5t4 3q47 20 87 40t97 26q14 0 21 -8q0 -4 15 -3t32 -5q8 23 20.5 47t32.5 41q57 135 137 280v25q0 14 12.5 19t18.5 5q6 12 8 25.5t5 27t9.5 26.5t20.5 26q4 2 7 13t9.5 22.5 t16.5 20.5t28 9q16 0 20.5 -5t8.5 -15l2 -4q-2 2 4 -8.5t13.5 -30t14.5 -44t7 -46.5zM666 573q-16 0 -36 -5t-36 -11t-28.5 -11t-14.5 -5q-4 0 -8 1t-8 1q-10 0 -19.5 -7.5t-20 -16.5t-23.5 -16t-32 -7q-41 -29 -73 -50q-29 -18 -66 -43.5t-75 -60.5t-71.5 -78t-54.5 -94 l6 -8q6 2 15.5 6t17.5 4h2q29 10 63 18.5t64 24.5q16 8 31 16q12 6 26.5 13.5t26.5 11.5q16 6 23.5 12t11.5 11.5t6 9.5t10 4q4 0 7 -2q4 0 7 1t11 11q2 2 34 20.5t68.5 47t68.5 64.5t34 75z" />
<glyph unicode="e" horiz-adv-x="712" d="M901 428q8 -10 8 -27q0 -23 -14 -40t-21 -27l3 -6l-5 -6q-16 -23 -44.5 -59t-60.5 -70.5t-62.5 -59t-51.5 -24.5q-4 0 -7 1t-7 1q-2 -18 -12.5 -26.5t-20.5 -13.5t-20.5 -8.5t-12.5 -9.5l-10 -12l-16 6q-4 0 -9.5 -14.5t-33.5 -14.5h-8q-4 -4 -14.5 -12t-24.5 -8 q-6 0 -11 2q-10 -10 -24 -18l-6 -2q-23 -4 -53.5 -16.5t-63.5 -14.5q-12 -8 -37.5 -6t-42.5 -9l-6 -4l-8 4q-20 4 -33 5q-70 6 -118 63t-54 150l4 10q4 6 4 12q0 8 -4 14l-4 11q4 57 15.5 103t29.5 86t43 79t53 80l9 6q12 4 16 12l6 6q29 25 50.5 43.5l43 37t46 38 t59.5 41.5l10 6l20 6l7 15l16 -2q-2 0 17.5 9t43.5 13v8l72 7l4 6h8l21 4l6 -8q10 0 19.5 -2t19.5 -11l4 -4q18 -33 30.5 -69.5t12.5 -77.5q0 -29 -8 -56.5t-27 -52.5l-8 -6q-6 0 -11 -19.5t-32 -27.5l-8 -4q-8 -4 -21.5 -20.5t-21.5 -24.5v-2q-29 -33 -58.5 -49.5 t-58.5 -40.5l-6 -4q-4 -16 -13.5 -22.5t-19.5 -9.5t-22.5 -5t-22.5 -8q-29 -20 -60.5 -35t-66.5 -15q-45 0 -86 29q-4 -10 -4 -25q0 -14 -4 -26l2 -4q8 -41 19.5 -60.5t62.5 -27.5h74q45 16 94 20t78 23l12 2q20 0 35.5 15t44.5 15q29 29 61.5 45.5t65.5 36.5l2 2 q35 23 65.5 47.5t59.5 51.5l90 78l12 -23v0zM561 629q-4 0 -8 1t-8 1l-6 -4l-19 -4q-33 -8 -68.5 -20.5t-58.5 -35.5q-16 -16 -36.5 -30.5t-39.5 -24.5h-2q-25 -20 -53.5 -51t-52.5 -64l4 -12q31 8 61.5 17.5t53.5 27.5l8 4q23 10 45 24.5t49 33.5l6 4q12 8 32.5 24.5 t41 34.5t36 34.5t15.5 26.5v11v2z" />
<glyph unicode="f" horiz-adv-x="579" d="M1020 1262q4 -10 6 -23.5t2 -28.5q0 -25 -10 -43v2q-6 -12 -14 -20q-14 -18 -21 -19q-18 0 -26.5 12.5t-12.5 26t-5 25.5t-5 12l-4 -2l-4 4q-4 4 -8 4q-10 0 -22.5 -12t-27 -27.5t-29 -30t-30.5 -18.5q-4 -29 -22.5 -50t-36.5 -38q-23 -23 -40.5 -54.5t-33.5 -53.5 q-6 -8 -14.5 -23.5t-17.5 -30t-16 -25.5t-12 -13l37 -2q6 6 15 6l168 -9q14 0 18 -10t4 -16l-2 -14q0 -6 -9 -14.5t-20.5 -16.5t-22.5 -14.5t-16 -10.5q0 -18 -20 -30.5t-37 -12.5l-14 2q-8 -12 -21 -14q-35 -10 -64.5 -11t-53 -2t-42 -6.5t-26.5 -23.5q-6 -25 -21.5 -52.5 t-31 -52t-26.5 -46t-11 -33.5v-4q-16 -23 -27.5 -47.5t-22 -50t-22.5 -50.5t-31 -45q-4 -29 -14 -50.5t-18 -41.5l-2 -4q-10 -18 -19.5 -40t-17.5 -42l-2 -4q-8 -18 -24.5 -43t-16.5 -49l-6 -11q-6 -10 -11.5 -20t-5.5 -21q0 -4 2 -8t2 -10v-2q0 -10 -4 -26.5t-20 -24.5 l-29 -117q-4 -14 -20 -14q-27 0 -47.5 15t-35 34.5t-21.5 38t-7 22.5v10q0 10 2 25.5t7 29t13.5 24t20.5 10.5v6q-6 6 -6 12q0 20 8 44t17.5 42t18.5 30.5t11 12.5q-2 4 -2 10q0 20 12 37q6 8 13 12v7q0 16 16 42.5t31 32.5l6 4l-2 19q0 23 7 38t17 29l3 2q10 14 17 35t9 23 l14 24q14 23 31 52.5t33 62.5t31.5 65.5t27.5 61.5q-8 -4 -14 -6l-25 2q-23 0 -41 -6t-43 -6l-22 2q-6 0 -33.5 -8.5t-50.5 -8.5q-35 6 -35 39q0 4 1 13.5t3 11.5q35 51 75 93t73 42h141q12 4 30.5 8t35.5 4q8 23 17 43.5t26 40.5q10 16 21 46t22 40q4 6 12 21.5t19.5 35 t24.5 37t28 25.5h2q4 16 15 41t24.5 48.5t28 42t24.5 22.5q16 8 19 20t11 16l5 5q6 6 21 20t33.5 28.5t38 25t36.5 10.5q4 0 12 -5q6 4 20 5q18 0 36 -8.5t30 -16.5l6 -2q25 -25 25 -49q0 -12 -7 -21h3q10 -4 11 -10t5 -20z" />
<glyph unicode="g" horiz-adv-x="821" d="M883 662q-6 -8 -17 -9q-10 0 -26.5 5.5t-32.5 5.5q-82 0 -82 -13q0 -2 2 -4l8 -8q33 -29 55.5 -52.5t22.5 -45.5q0 -6 -6 -13q-2 2 -2 -4t-2 -15t-7 -18.5t-18 -13.5q4 -12 4 -16v-4q0 -10 -10 -47t-63 -99l4 -10q2 -2 2 -6q0 -10 -7.5 -32.5t-18.5 -47.5t-23.5 -47.5 t-24.5 -34.5q-6 -29 -27.5 -77t-50.5 -74q4 -16 4 -27q0 -8 -6 -14l-4 -4q-2 -2 -2 -7q-35 -59 -57.5 -111t-67.5 -112q-10 -33 -24.5 -54.5t-36.5 -41.5q-20 -18 -32.5 -46t-49.5 -38q-6 0 -9.5 -9.5t-7.5 -21.5t-11 -21.5t-19 -9.5q-4 0 -6.5 1.5t-4.5 1.5q-8 0 -23.5 -23 t-35.5 -23q-6 0 -8 3q4 0 -21.5 -21.5t-72.5 -21.5h-7q-4 0 -29.5 -15.5t-64.5 -15.5q-20 0 -35 6h-67q-6 0 -15 4h3q-4 4 -26 2t-32 16q-31 12 -47 35t-23.5 50.5t-12.5 56t-15 55.5q0 35 7 82t30 70q12 6 22.5 18t30.5 16q16 0 20.5 -13t4.5 -30l-2 -59q0 -4 1 -7t1 -7 q29 -35 30.5 -53.5t24.5 -20.5q16 0 15 -8t22 -25q4 0 9 5t13 5q6 0 13.5 -5t11.5 -7q4 2 16 2h39q0 -2 23.5 11.5t53.5 31t55.5 31.5t31.5 14q0 6 11.5 17.5t28.5 27t35.5 32.5t30.5 34v-2q2 0 10.5 11t18.5 27.5t22.5 34t24.5 29.5q2 4 10.5 20.5t17.5 34t18.5 32 t15.5 14.5v4q0 23 12 39t16 32q0 -2 6.5 14.5t13.5 38t14 41t11 23.5l13 10q10 53 34.5 99.5t38.5 95.5l-8 -6q0 -2 -13 -19.5t-31.5 -37t-39 -37t-32.5 -19.5q-8 0 -10.5 -6t-12.5 -16q-25 -31 -44.5 -46.5t-38.5 -26.5t-44 -25.5t-59 -45.5q-4 -4 -20.5 -16t-39 -25.5 t-47 -25t-45.5 -11.5q-23 0 -40 13.5t-28.5 35t-17.5 47t-6 48.5q0 43 12 83t32.5 77.5t43 74.5t45.5 72l4 8q6 6 21.5 23.5t34 38t37 38t32.5 27.5q0 4 11.5 16.5t27.5 25.5t35.5 24.5t38.5 15.5q23 29 49 45t53 29q27 12 46.5 28.5t41.5 28.5q49 16 110.5 41t127.5 25h16 q14 0 21 -9q27 0 44 -30.5t17 -77.5q0 -16 -3 -31.5t-11 -27.5zM680 643q-14 -6 -34.5 -13t-41 -15.5t-38 -17.5t-27.5 -19l-11 -5q-23 -8 -38 -20t-31 -16q-4 0 -14.5 -8.5t-22.5 -17.5t-25.5 -16.5t-21.5 -7.5q-6 0 -14.5 -11t-21.5 -24.5t-31.5 -27.5t-43.5 -21 q-4 -4 -9 -19t-11 -22q-10 -6 -19.5 -21t-19.5 -30.5t-21.5 -27t-21.5 -11.5q-2 0 -2 -4q0 -2 -2 0q2 -2 2 -8q0 -10 -9.5 -21.5t-21.5 -25.5t-21.5 -29.5t-9.5 -31.5q27 0 48.5 11t42 24.5t40 25.5t41.5 16q23 4 21 13.5t14 13.5q29 4 56.5 32.5t60.5 51.5q12 8 19.5 25.5 t31.5 21.5q25 31 53.5 54.5t55 47t48 47t32.5 52.5q4 12 16 28.5t18 22.5v10z" />
<glyph unicode="h" horiz-adv-x="851" d="M1077 426q-12 -33 -36.5 -66.5t-56.5 -65.5t-64.5 -60.5t-59.5 -49.5q-14 -10 -34.5 -29.5t-42 -39t-43 -33.5t-35.5 -14h-11q-4 0 -10 -7.5t-18.5 -14.5t-32 -14t-49.5 -7q-27 0 -45 8q-12 6 -24.5 34.5t-23 63.5t-16.5 67.5t-6 49.5q0 29 7 47t13 47q10 41 19.5 82 t32.5 78q-2 4 -2 12q0 10 4 21.5t8 21.5h-2q-2 0 -4 1t-6 1q-12 0 -23.5 -11t-24 -24.5t-25.5 -25t-32 -11.5q-6 0 -10 2l-6 -4q-2 -23 -16.5 -32t-30.5 -15t-32.5 -29.5t-47.5 -39.5q-18 -10 -25.5 -17.5t-10.5 -13.5t-5 -11t-8 -10q-18 -8 -29.5 -20t-23 -26.5t-24.5 -28 t-32 -21.5q-12 -14 -33.5 -44t-46 -60.5t-48 -54t-38.5 -25.5q4 -8 4 -14v2q-2 0 -9 -19.5t-18.5 -43t-23.5 -43t-24 -19.5q-18 0 -33 11t-25 26.5t-16 33t-6 27.5q0 78 34.5 145.5t77.5 126.5v6q0 10 6.5 17.5t12.5 13.5q0 16 23.5 57.5t51 84.5t50.5 77l22 33 q0 14 7.5 28.5t15.5 28t15 21.5t9 10q8 2 9.5 10.5t3.5 20.5t7 25.5t21 29.5q12 12 23.5 36t25 52.5t29.5 57t39 49.5q4 27 19.5 46t21.5 42q6 27 20 47q4 6 7.5 19.5t10.5 30.5t19.5 37.5t36.5 43.5q0 16 8.5 37.5t18.5 32.5l-2 -2q14 14 26.5 37.5t27.5 45t33.5 37 t45.5 15.5q18 0 32.5 -11.5t24.5 -27t16.5 -33.5t6.5 -31q0 -20 -9.5 -32.5t-17.5 -28.5q-12 -23 -22.5 -50.5t-24.5 -54t-32.5 -48t-45.5 -29.5q-8 -10 -12 -22.5l-8 -25t-13.5 -23.5t-27.5 -17q-12 -14 -17.5 -28.5t-9.5 -29t-12 -29t-25 -28.5q-8 -6 -12 -18.5t-8 -25.5 t-10.5 -27.5t-18.5 -24.5l-20 -39q-31 -59 -62 -106.5t-65 -110.5q4 -8 10 -9l84 66q2 12 13 18.5t23.5 9.5t22.5 4t10 7q0 23 17 29q12 2 27.5 17t32 31.5t32.5 30t31 13.5q4 0 8 -2q10 23 39 42t53 31l-2 -2q4 10 15.5 13.5t21.5 3.5q18 0 36.5 -11.5t34 -28t24.5 -37 t9 -38.5q0 -51 -19.5 -102.5t-55.5 -112.5q-31 -49 -51.5 -102.5t-30.5 -112.5q4 -8 12 -8l47 6q14 8 30.5 11t33.5 7h4q31 20 64.5 37t62.5 39q4 4 6 4t6 2q23 4 46.5 20.5t48 35t51 33t53.5 14.5q10 0 20 -4.5t10 -16.5z" />
<glyph unicode="i" horiz-adv-x="419" d="M612 954q2 -6 4 -14t2 -18q0 -23 -21.5 -42.5t-55.5 -33.5q-16 -6 -25.5 -14.5t-15.5 -14.5t-11.5 -10t-15.5 -4q-16 0 -24.5 8t-13.5 18.5t-8 20.5t-7 14q0 31 14.5 72t36.5 51q12 2 21.5 12.5t19.5 21.5t25.5 20.5t37.5 11.5q16 0 23 -13l12 -34q2 -2 2 -9q0 -4 -2 -7 t-2 -7q0 -9 4 -29zM412 618q0 -16 -3 -24t-10.5 -16.5t-17.5 -19.5t-25 -34q-10 -16 -32.5 -38.5t-32.5 -59.5q0 2 -2 2q-4 0 -18.5 -18.5t-33 -46t-37 -59.5t-26.5 -58v4q-4 -29 -20.5 -41t-16.5 -27q0 -4 1 -6t1 -4q0 -6 -7 -14t-11 -25q14 0 28.5 5t30.5 14q14 6 39 20 t50.5 28.5t49 26t39.5 11.5q23 0 23 -23q-2 -31 -16.5 -59.5t-36 -53t-46 -46t-44.5 -38.5q-4 -4 -21.5 -20t-40 -34.5t-45 -33t-35.5 -14.5q-31 2 -49 22.5t-29.5 48t-15.5 57.5t-4 48q0 23 4 43.5t4 38.5q12 18 18.5 36.5t10.5 38t11 38t24 35.5q6 14 17 41.5t26.5 56.5 t32 50.5t30.5 21.5v12q0 16 6 25.5t13 13.5q4 8 18 34.5t43 69.5q8 12 19.5 31.5t24.5 37t29.5 31t35.5 13.5q33 0 34.5 -29t16.5 -82z" />
<glyph unicode="j" horiz-adv-x="546" d="M651 936q0 -14 -21.5 -43t-43.5 -39q-2 -2 -16.5 -20.5t-43.5 -18.5q-16 0 -31.5 23.5t-15.5 44.5v4q-4 0 -10 19.5t-6 43.5q0 31 15.5 60.5t47.5 29.5v2q6 10 14.5 21.5t26.5 11.5h13q8 0 20 -3t24.5 -14t20.5 -35t8 -65q0 -14 -2 -22zM573 621q4 -8 5 -25 q0 -23 -11.5 -38t-25 -29.5t-24.5 -28t-11 -29.5v2l-2 -7t-9.5 -23.5t-20.5 -46t-38 -79.5l-14 -28q0 -25 -12.5 -43.5t-12.5 -38.5l-5 -11q-5 -10 -12 -23t-17.5 -27.5t-22.5 -22.5v-4q0 -33 -15.5 -60.5t-27.5 -52.5q-10 -18 -8 -25.5t-10 -27.5l-19 -31 q-25 -41 -44 -75.5t-48 -77.5l-2 -7q-8 -29 -21.5 -60.5t-46.5 -41.5q0 -10 -2 -28.5t-14 -34.5v-9q0 -10 -14.5 -26.5t-28.5 -20.5q0 -2 -1 -13t-5 -15q-14 -23 -38 -55.5t-49.5 -61.5t-46 -49.5t-28.5 -20.5q-10 0 -31.5 -14t-48.5 -32.5t-54.5 -33t-49.5 -14.5 q-6 0 -11 4l-18 1q-18 1 -39.5 4t-39 8.5t-17.5 15.5q-45 29 -85 85t-40 118l10 73q4 18 23 19q39 -4 65.5 -36t36.5 -50q8 -10 9 -22.5t3 -25t8.5 -20.5t24.5 -8h6q119 0 223 115q35 37 53.5 67.5t33 60t29.5 62.5t46 78q4 29 18.5 63.5t30.5 42.5v9q0 16 7.5 21t11.5 22 q4 29 21.5 36t17.5 17q12 61 37.5 105t37.5 100q0 12 9 12q10 0 16 10q0 8 6 29.5t14.5 44t18.5 40t18 17.5l-2 17q14 47 38 105t42 101q2 4 2 7q0 2 2 4q4 10 10.5 37.5t16.5 56.5t24.5 51.5t34.5 22.5q39 0 68 -25l7 -7q7 -7 18.5 -21.5t22.5 -34.5t17 -43z" />
<glyph unicode="k" horiz-adv-x="831" d="M965 793q0 -16 -21.5 -32t-38.5 -18q0 -10 -30.5 -25.5t-68.5 -32.5t-68.5 -34.5t-30.5 -32.5q-8 -23 -33 -29.5t-35 -21.5q-12 -18 -31.5 -33.5t-38 -27.5t-34 -23.5t-19.5 -19.5q12 -41 29.5 -83t50.5 -71q6 -6 7 -10t1 -12q0 -16 15.5 -32.5t35 -34t37 -36t21.5 -41.5 q4 -16 14 -30.5t22.5 -28.5t21.5 -31.5t9 -40.5q14 -18 24.5 -53t10.5 -53q0 -6 -3 -9t-3 -8l6 -18q0 -12 -12 -12q-29 0 -47.5 9t-30.5 22.5t-22.5 25.5t-24.5 18q-8 2 -19.5 13.5t-21.5 25t-20.5 26.5t-14.5 21q-23 12 -29 26.5t-22 31.5q-10 8 -26.5 23.5t-32 32 t-27.5 29.5t-12 19q-25 47 -61 85t-56 87l-10 -2q-6 -10 -18.5 -18t-27 -16.5t-26.5 -14.5t-16 -10q-14 -16 -27.5 -43t-26 -55.5t-22.5 -57t-17 -49.5q-6 -6 -13 -23.5t-15 -36t-17.5 -32.5t-15.5 -14q-6 -10 -14.5 -35t-20.5 -25q-27 0 -40 38t-13 81q0 55 29.5 103.5 t48.5 97.5q16 43 42.5 81.5t26.5 86.5l-2 24q0 10 18.5 27.5t28.5 25.5q25 23 37.5 40.5t28.5 47.5q12 16 19.5 35t14.5 38.5t15 39t25 35.5q2 23 15 43t28.5 38.5t28 35t12.5 28.5q0 6 13 38t33.5 76t45 94t47 96.5t40 81t23.5 46.5q6 10 22.5 22.5t18.5 16.5l-2 13 q0 16 17.5 27.5t34.5 11.5q25 0 38 -17.5t13 -40.5q0 -20 8 -44.5t8 -47.5q0 -39 -27.5 -80t-50.5 -80q-10 -16 -32.5 -37.5t-26.5 -39.5q-6 -27 -18.5 -48.5t-28 -43t-29.5 -44t-20 -47.5q-12 -33 -25.5 -57.5t-28 -48t-28 -46t-25.5 -48.5q8 4 24.5 11t24.5 7q2 2 17.5 11 t35 19.5t40 18.5t34.5 8q6 6 16.5 13.5t20.5 7.5q6 0 8 -2q4 2 17.5 11t29 19.5t27.5 17.5t14 7q6 0 11 -4q12 16 29.5 28.5t37 21.5t36.5 13.5t28 4.5v-7q0 -4 10 -4q8 0 12 2q16 -4 38 -6.5t22 -25.5z" />
<glyph unicode="l" horiz-adv-x="409" d="M725 1237q0 -2 1 -4t1 -6t-7 -20.5t-30 -16.5q-16 -6 -29.5 -18.5t-25.5 -28t-24.5 -32.5t-26.5 -30v-8q0 -4 -12.5 -26.5t-29 -51t-35 -57.5t-32.5 -45q-4 -23 -15 -40t-25.5 -32.5t-25 -32t-10.5 -34.5v-9l-67 -127q-8 -20 -23.5 -32.5t-15.5 -18.5l2 -12q0 -4 -4 -12 q-31 -49 -50.5 -104.5t-47.5 -106.5q2 -4 2 -10q0 -23 -14.5 -32t-14.5 -14l2 -12q0 -10 -7 -15t-24 -28q2 -4 2 -14q0 -23 -11 -39t-11 -25q0 -4 3 -10t3 -10t-4 -12q0 -16 16.5 -14.5t26.5 -4.5l26 10q6 2 24.5 11.5t41 19.5t47.5 17.5t47 7.5q14 0 16.5 -17.5t2.5 -27.5 q0 -31 -21.5 -53.5t-30.5 -49.5q-47 -47 -103 -76.5t-103 -29.5q-20 0 -40 15t-35.5 40t-24.5 55.5t-9 59.5q0 25 5 56.5t11.5 59t14.5 48t14 24.5q-2 -2 2 8.5t10 24.5t11.5 29.5t5.5 25.5q39 102 81 194.5t85 188.5q4 10 12 27q47 106 75.5 159.5t67.5 75.5q-6 6 -6 15 q2 23 15.5 42t31.5 54q6 10 18.5 34.5t25 50.5t24.5 48.5t18 28.5l13 14q6 6 14 6v4q0 8 5 19.5t13 21.5q8 12 19 25v-2q12 20 21 25t14 5q8 0 12 -4t8 -4t6 2t6 2q6 0 11.5 -7t27.5 -29q-2 2 12.5 -16.5t14.5 -45.5q0 -10 -2 -17t-2 -12q0 -6 4 -10t6 -8z" />
<glyph unicode="m" horiz-adv-x="1396" d="M1481 289q-14 -39 -45 -56.5t-50 -39.5l-2 -5l-22 -18q-21 -18 -49.5 -41t-58 -41t-48.5 -18q-16 -12 -42.5 -31t-49.5 -21q-33 -16 -67.5 -35.5t-79.5 -19.5h-23l-6 8q-37 51 -37 113q0 37 12 74v4q10 18 18.5 40.5t16.5 45.5q14 41 35 83t42.5 82t41.5 76.5t35 69.5h10 q4 12 23.5 40t31.5 50l-4 6q-25 -10 -45 -39q-18 -20 -51 -46.5t-71 -58.5t-78.5 -67.5t-75.5 -72.5l4 4q-4 -6 -11.5 -9.5t-13.5 -7.5l2 -10l-10 -10q-4 -4 -6 -8l-9 -10q-10 -11 -21 -22t-23.5 -21.5t-20.5 -12.5q0 -6 -1 -13t-7 -15l-33 -39q-16 -18 -38.5 -46t-35.5 -51 q-4 -16 -15 -24t-11 -10v-11l-10 -4q-8 -4 -23 -4q-14 0 -26.5 8t-21.5 18.5t-16.5 19.5t-9.5 13l-12 11q-2 0 -2 2q-2 2 -2 10l16 49l-6 15l6 8l74 143v6q0 12 5 20.5t9 12.5l2 8q2 8 10.5 20.5t16.5 27t15.5 26.5t7.5 18t-4 6q-37 -37 -69 -64.5t-61.5 -52t-56 -51 t-51.5 -63.5l-6 -4q-31 -23 -67 -75t-76.5 -107.5t-86 -97.5t-94.5 -42q-10 0 -18 7l-6 8q-14 23 -18.5 49.5t-8.5 54.5l-2 21l2 6q31 66 50.5 126t64.5 122q0 16 6 27.5t12 19.5t12.5 15t6.5 13q0 2 -4 11v6q4 29 19 41t15 22l-2 8l4 5q27 37 37 64.5t41 62.5 q4 29 19.5 69.5t38.5 65.5v8q0 12 9 31.5t22.5 37t26.5 29.5t23 12q16 0 25.5 -10t20.5 -10h10l6 -6q12 -10 20.5 -28.5t13.5 -38t7 -38t2 -24.5q0 -23 -15.5 -30t-25.5 -9l-2 -2q-41 -41 -76 -104.5t-63 -122.5l-7 -13q-8 -16 -13 -25.5t-11 -20.5t-16.5 -29.5t-26.5 -53.5 h2l2 -6l2 2q20 16 46 34.5t49.5 37t41 36t21.5 31.5l4 9q82 76 174 141l4 2q2 0 3 3t3 5q6 25 18.5 34t24.5 12t22.5 5t12.5 13l2 10l8 4q8 6 20.5 17.5t26 22.5t27.5 19.5t31 8.5q35 0 53 -21.5t29 -28.5l12 -8l-4 -12q-10 -31 -29.5 -60.5t-38 -58.5t-33 -54.5 t-14.5 -47.5q0 -8 2 -8q0 -2 2 0q29 29 49.5 52t51.5 48l10 6l4 -2q102 102 196.5 165.5t153.5 104.5l10 6l9 -4q4 4 18 9.5t27 5.5q27 0 40 -16.5t19 -38t8 -43t6 -29.5l2 -6l-4 -7q-23 -51 -46 -92t-44 -63q-10 -33 -36.5 -59.5t-41.5 -55.5l-2 -4q-29 -33 -52.5 -56.5 t-29.5 -56.5l-6 -12q-10 -6 -14 -23.5t-27 -31.5q-4 -20 -13 -43t-13 -37q10 0 35.5 12.5t52.5 18.5l18 6l4 -4q20 4 68 30q12 16 33.5 20.5t29.5 12.5l11 6q12 2 32.5 13.5t40 21.5t37 19.5t25.5 9.5v10l18 2q4 0 7 1t7 1q10 0 12.5 -9t2.5 -20q0 -12 -2 -18z" />
<glyph unicode="n" horiz-adv-x="946" d="M1151 365q-4 -29 -19.5 -57.5t-34 -51.5t-37 -37t-24.5 -14h-6q-4 -8 -8 -10q-23 -10 -31 -19.5t-11 -15.5t-6 -11.5t-11 -7.5q-12 -2 -19.5 -11t-16.5 -19.5t-20.5 -21.5t-29.5 -15q-4 -4 -13.5 -14.5t-22 -22.5t-24.5 -21.5t-24 -9.5q-20 -4 -40 -26.5t-48 -32.5 q-16 -6 -36 -17.5t-39.5 -22.5t-39 -20.5t-35.5 -9.5q-10 -10 -18.5 -17t-32.5 -7q-14 0 -25.5 7t-15.5 11q2 0 2 -2q-14 6 -25.5 25.5t-18.5 44t-11 51t-4 49.5q0 55 21.5 100t37.5 82q6 12 14 32.5t15.5 41t15.5 36t14 17.5q23 37 44.5 77t47.5 77q-4 4 -6 4 q-6 0 -13 -8.5t-14.5 -17.5t-13.5 -16t-12 -7q-23 -8 -51.5 -41t-63.5 -56l-36 -38q-4 -6 -13 -7q-16 -27 -35.5 -39t-38.5 -34q-10 -14 -28.5 -30.5t-38 -32t-36.5 -30t-28 -24.5l-2 -2q-18 -18 -45.5 -41t-58.5 -23q-12 0 -32.5 10.5t-20.5 26.5q0 6 2 8l-2 -2 q0 8 -11.5 25.5t-11.5 34.5v-4q-4 10 -6 29.5t-2 37.5q0 29 8 65t27 72l4 15q8 16 12 33.5t14 21.5t7.5 19.5t9.5 27.5q4 10 16.5 30.5t18.5 27.5l-2 4q-2 2 -2 8q0 20 10 25.5t14 9.5q-2 4 -2 14l4 8q0 2 4 6q23 31 37.5 57.5t38.5 57.5q0 23 7 34t18 21q10 12 14 22.5 t7 16.5t7 9.5t15 3.5q8 0 14 -3.5t12 -7.5h-2q18 -12 33 -26q12 -12 23.5 -28.5t11.5 -33.5l-2 -10q0 -4 4 -14.5t4 -24.5q0 -8 -5 -22.5t-22 -14.5q-4 0 -6 -6t-7 -14t-14.5 -14.5t-27.5 -6.5q2 -4 2 -14q0 -14 -8 -27.5t-19 -23.5q-23 -23 -27.5 -46.5t-33.5 -41.5 q-6 -25 -21.5 -48.5t-32 -45t-28.5 -40t-12 -30.5l2 -6h12q0 2 8.5 8t10.5 8l20 23l37 32q14 8 27.5 16.5t25.5 24.5q16 20 41 37t47.5 31t40 25.5t21.5 19.5q78 78 168 138.5t178 117.5l6 2q8 4 12 4q6 0 21.5 18.5t42.5 18.5q10 0 31.5 -20.5t21.5 -45.5q0 -4 -1 -9 t-1 -13l4 -43q0 -29 -14.5 -51.5t-33 -44t-37.5 -43t-32 -45.5q-14 -31 -34.5 -54.5t-40 -44t-35 -40t-19.5 -38.5q-8 -35 -30.5 -57t-22.5 -43l2 -10q0 -2 -4 -10q-18 -27 -30.5 -55.5t-12.5 -45.5q0 -14 8 -14q14 0 34.5 8t40 17.5t36 18.5t22.5 11q-2 -2 3 4t16.5 13.5 t28 14.5t38.5 7q14 23 42 29t38 16l62 39q2 2 19 15.5t36.5 28.5t37 26.5t21.5 11.5l4 -2q0 -2 8.5 6t20.5 19.5t27.5 20.5t27.5 9q10 0 17 -8l6 -8q4 -4 4 -14z" />
<glyph unicode="o" horiz-adv-x="722" d="M913 737q0 -2 1 -6t1 -10q0 -16 -13 -44t-62 -59q-16 -10 -30.5 -30.5t-49.5 -36.5q2 2 4 2l-14 -8q-13 -8 -28 -17.5t-28.5 -19.5t-13.5 -12q-16 -33 -29 -60q-10 -23 -19 -42t-9 -23q0 -2 1 -6.5t1 -8.5q0 -12 -11 -18q-10 -6 -14 -18.5t-9 -28t-14.5 -30.5t-27.5 -23 q-6 0 -7 -8.5t-3 -19.5t-9.5 -19.5t-27.5 -8.5l-4 2q-8 -4 -6 -19t-15 -15h2q-4 -4 -17 -18.5t-32 -16.5q-6 -20 -17.5 -31.5t-23.5 -21t-24.5 -19.5t-20.5 -25l-18 -10q-19 -10 -43.5 -22.5t-52 -22.5t-46.5 -10l-49 4q-12 0 -18 10q-31 14 -50.5 35t-31.5 45.5t-19.5 53 t-13.5 57.5l-2 12q0 14 5 53t17.5 84t32 91t45.5 77q2 18 21.5 40t30.5 40q14 25 46.5 61.5t72.5 71.5t79 61.5t68 30.5q8 0 15 4t16.5 10.5t22.5 10.5t36 4q33 0 51.5 -16.5t28.5 -38t16 -45t14 -35.5l23 6q18 0 34.5 3t36 10t45 17.5t64.5 22.5h-2q0 4 24.5 14.5 t45.5 10.5q4 0 12 -3.5t12 -17.5zM535 463q-23 23 -41.5 55.5t-18.5 54.5q0 20 8.5 29.5t16.5 13.5l4 2l-2 7q-47 -2 -78 -29t-84 -70q-12 -10 -40 -48t-85 -95q-10 -33 -24.5 -55.5t-27.5 -44t-23.5 -44t-10.5 -55.5q0 -8 20.5 -18t40.5 -10q37 0 65 14t56 39q6 6 17 6 l4 -2q6 14 13 19.5t16.5 10.5t21.5 13t29 27l4 4q8 8 27.5 28.5t40 46t36 51t15.5 42.5v8z" />
<glyph unicode="p" horiz-adv-x="724" d="M877 504q0 -12 -18.5 -36t-43 -47.5t-47.5 -39.5t-31 -16q-16 -4 -27.5 -13.5t-22.5 -18.5t-23.5 -18.5t-30.5 -15.5q-47 -41 -85 -84t-91 -78q-2 -2 -26.5 -21.5t-56.5 -43t-65 -42t-53 -18.5l-10 -2q-4 -4 -11.5 -11t-21.5 -11q-4 0 -8 1t-8 1q-12 0 -35 -12.5 t-53 -12.5q-53 0 -68.5 25.5t-15.5 64.5q0 6 2 8q29 59 80 94.5t106 63.5q37 20 75 47t54 27l23 -2l4 4q10 10 21 19.5t32 17.5q10 0 14 -2h4q0 4 10.5 15t30.5 15q43 6 67.5 48.5t35.5 83.5q0 23 -7.5 40t-46.5 17q-27 0 -53 -7t-47.5 -16.5t-37 -16.5t-17.5 -7h-6 q-49 -25 -99.5 -56.5t-87.5 -76.5l-2 -2l-2 -2q0 -16 -20 -17h-4q-4 -10 -10.5 -20.5t-18.5 -16.5q-6 -33 -22.5 -53t-43 -57t-65.5 -103.5t-90 -189.5q-6 -14 -17.5 -32.5t-24 -38t-20.5 -39t-8 -33.5l-8 -23q-6 -14 -13.5 -35.5t-13.5 -42t-12 -38t-12 -23.5l-11 -8v-7 q0 -23 -5 -29.5t-12 -14t-13 -19.5t-8 -45q0 -12 -7.5 -36t-19.5 -46.5t-26.5 -39.5t-28.5 -17q-29 0 -42.5 27.5t-19.5 49.5l-6 21q-4 10 -4 27q0 10 4 29.5t10 40t11.5 35.5t7.5 17q14 20 24 39q10 16 17.5 31.5t7.5 26.5q2 18 12 37.5t21.5 37t20.5 29.5t9 19v6l3 8 q4 8 9 19.5t13 23.5t18 18q0 8 9.5 35t25 57.5t32.5 59.5t34 45q18 55 43.5 104.5t58.5 85.5l2 4l-4 27q0 14 9.5 28.5t20.5 27t20 25.5t12 30q4 10 15 22.5t21 30.5q14 37 29 65q12 25 24.5 46.5t22.5 25.5q16 10 22.5 40t28.5 46q0 16 8.5 27.5t17.5 22t17.5 19.5t8.5 21 v2q2 10 10 31t35 35v16q0 12 4 19q6 8 17 29.5t25.5 45t26 42t17.5 18.5q8 0 14 13t13.5 29.5t17.5 30t26 15.5q14 0 34 -15.5t20 -29.5l20 -57q4 0 5 -19.5t1 -30.5q0 -16 -5 -36.5t-21 -20.5q-14 -2 -18.5 -14.5t-9.5 -26.5t-16.5 -26.5t-37.5 -14.5q-20 -29 -42 -60.5 t-40 -68.5q8 8 18 8h8q31 0 60 12.5t63 12.5q8 0 14.5 -2t14.5 -6q6 2 18 2q39 0 66 -19.5t43 -47.5t23.5 -59.5t7.5 -58.5q0 -16 -2 -34.5t-9 -36.5h3q8 14 29.5 20t25.5 6q8 0 14 -6q10 8 25 17q12 6 30.5 11t40.5 5z" />
<glyph unicode="q" horiz-adv-x="954" d="M973 184q0 -20 -9.5 -38.5t-20.5 -32t-19 -21.5l-9 -8q-23 -6 -38 -15.5t-31 -21.5q-10 -8 -25.5 -18.5t-32 -20.5t-32 -20.5t-23.5 -20.5q-29 -31 -56.5 -46t-50 -30.5t-41 -36t-30.5 -61.5q-16 -16 -25.5 -37.5t-17.5 -45t-17.5 -48t-27.5 -45.5q0 -6 -3 -15.5 t-6 -19.5t-6 -18t-6 -10l-6 -13q-8 -14 -15 -32.5t-13 -34.5q-8 -20 -13 -39q-4 -4 -7 -19.5t-9 -35t-13.5 -42t-15.5 -40.5q2 0 2 4q0 -25 -11 -36t-11 -22l4 -14q0 -14 -14.5 -19.5t-22.5 -5.5q-16 0 -28.5 9.5t-16.5 13.5l-4 4q-10 0 -18.5 11.5t-13.5 26.5t-7 29.5 t-2 20.5q0 35 15.5 76t31.5 76q12 25 20.5 48t17.5 46.5t21.5 47.5t34.5 52v4q0 4 5 8.5t5 8.5q0 8 3.5 9t3.5 3l-2 6q0 2 5 10.5t11 17.5t11 17l5 8q-12 -10 -30 -12l-7 -8q-8 -8 -18 -17.5t-23.5 -17.5t-21.5 -8q-10 0 -16.5 11t-10.5 26.5t-6 33t-2 29.5q0 29 8.5 54.5 t26.5 46.5q12 14 19.5 15t19.5 3t34.5 11t69.5 38q29 4 46.5 25.5t21.5 48.5q4 25 23.5 62.5t45 82.5t52 96.5t47.5 102.5q0 8 -4 8q-8 0 -26.5 -18.5t-41 -42t-45 -46t-39.5 -30.5q-25 -20 -51.5 -51t-53 -60.5t-54 -55.5t-58.5 -38q-12 -4 -18 -10t-10.5 -12.5t-8.5 -10.5 t-16 -4h2q-4 -18 -10 -23t-12.5 -7.5t-12.5 -2.5t-8 -6q0 -10 -16.5 -19t-38 -16.5t-40 -11.5t-20.5 -4q-25 0 -43 18.5t-35 34.5q-18 55 -18 107q0 88 48 179t116.5 174t147.5 149.5t141 103.5q20 20 56 45t80 46.5t90 35.5t89 14q4 0 23.5 -5t41 -18t38 -37t16.5 -60 q0 -10 -5 -18.5t-5 -20.5l16 12t22 6t25.5 -22.5t11.5 -55.5q0 -10 -3 -33.5t-15 -29.5q-16 -10 -24.5 -26.5t-15.5 -33t-17.5 -34t-28.5 -31.5q-10 -29 -22.5 -52.5t-32.5 -45.5v-5q0 -16 -5.5 -24t-13.5 -18.5t-18.5 -29t-20.5 -52.5q-8 -29 -22.5 -55.5t-30.5 -61.5 q25 4 41 19.5t43 29.5q41 14 77 31.5t70 33.5l29 13q2 2 8 2q23 -1 23 -21zM696 610l2 4q0 8 -10 9q-45 -8 -85 -25.5t-77 -41.5t-71.5 -48.5t-69.5 -44.5q-41 -47 -78 -85t-84 -85q-23 -33 -53.5 -73t-32.5 -79q10 0 26.5 10.5t26.5 20.5q8 6 42 27.5t69 45t62.5 42 t25.5 18.5h4q29 29 50.5 44.5t39.5 29.5q6 2 15.5 10t19.5 16.5t19.5 14.5t15.5 6q10 4 21.5 25.5t29.5 31.5h-2q31 18 54.5 52t39.5 75z" />
<glyph unicode="r" horiz-adv-x="663" d="M817 354q-10 -25 -22.5 -42t-16.5 -36q0 -10 -9 -14t-19 -18q-2 -4 -15.5 -19.5t-29 -33t-29.5 -32t-19 -16.5q-18 -6 -31.5 -21.5t-27.5 -33.5t-29.5 -36.5t-38.5 -28.5l2 2q-16 -10 -40.5 -30t-54 -41.5t-58.5 -36.5t-49 -15q-6 0 -21.5 2t-21.5 8q-33 31 -46.5 74 t-13.5 90q0 14 1 36.5t5.5 45t9.5 41t15 28.5q0 2 -1 3t-1 6q0 4 4 18t11.5 32.5t17.5 38t22 31.5q0 10 6.5 26.5t20.5 25.5q-2 0 7 19t21.5 42t22.5 43t10 23q0 2 -2 2q-10 -2 -21 -3.5t-22 -1.5q-53 0 -67.5 25t-22.5 66v10q0 6 4 10v6q0 10 7.5 23.5t7.5 23.5h-2 q-8 0 -13 -8q-14 -10 -28 -24q-12 -12 -26.5 -33t-29.5 -47l-10 -11q0 -2 2 -4q0 2 -1 -4t-6 -15t-15.5 -20.5t-28.5 -21.5l2 2q-10 -8 -22.5 -29.5t-24.5 -44t-24.5 -40t-22.5 -17.5q-18 0 -29.5 10t-17.5 23.5t-10.5 26t-8.5 16.5q0 45 14.5 86t36.5 67q0 23 15.5 29 t15.5 10q8 16 25.5 21.5t17.5 9.5q41 45 76 73.5t70 57.5l14 12q4 4 8 4q2 4 25.5 29t54.5 52.5t64.5 50t56.5 22.5q31 0 38 -39t7 -76q0 -10 -4 -30q-6 -6 -21.5 -19.5t-31 -31t-27.5 -35t-12 -29.5q0 -10 18 -10q12 0 24.5 4t30.5 6q16 4 32.5 17.5t29.5 13.5 q14 0 23.5 -10.5t15.5 -24t8 -28.5t2 -25q0 -20 -4 -17q2 -2 2 -8q0 -8 -4 -12t-8 -9q-2 -2 -9.5 -13t-16.5 -26.5t-20.5 -32t-21.5 -26.5q-12 -12 -15 -31.5t-12 -35.5q-4 -12 -15 -31t-22.5 -39.5t-19.5 -36.5t-8 -25q0 2 -4 -10t-11.5 -28.5t-16.5 -35t-21 -26.5 q2 -4 4 -9t2 -13q0 -12 -10.5 -23.5t-10.5 -34.5q0 -8 6 -8q8 0 23.5 13.5t26.5 13.5q4 0 7 -2t7 -2q12 0 34.5 18t51.5 18l135 101q8 4 12 4l4 -2q12 12 18.5 20.5t11.5 12.5t11.5 7t16.5 7q20 6 31.5 26.5t37.5 20.5q10 0 17 -6l8 -6q6 -11 6 -21z" />
<glyph unicode="s" horiz-adv-x="718" d="M817 766q-2 -6 -2 -14t-4 -19v-2q-2 -10 -7 -25.5t-12.5 -31t-17.5 -26.5t-22 -11q-6 0 -21.5 -3t-17.5 -5l2 2q-8 -4 -13 -4q-14 0 -16 8q-33 -14 -70 -21q-20 -6 -48.5 -18t-37.5 -12h-6q-6 0 -24.5 -7.5t-40 -19.5t-45 -25.5t-39.5 -25.5l-29 -21q-2 -2 -10 -7 t-17.5 -12t-16.5 -14.5t-7 -13.5q0 -4 13.5 -7t31.5 -5t37.5 -5t32.5 -9h-2q2 0 28.5 -4.5t56 -12.5t54 -21.5t24.5 -29.5q2 -2 12.5 -4t21.5 -7t20.5 -17.5t9.5 -36.5q0 -27 -13.5 -44.5t-13.5 -39.5q-12 -18 -21 -40t-21.5 -42.5t-31 -38t-49.5 -23.5q-20 -20 -49.5 -39.5 t-48.5 -29.5h2l-17 -10q-16 -9 -42.5 -19t-60 -21.5t-66.5 -15.5q-29 -27 -78 -35t-98 -12h-4q-20 0 -34 12.5t-22 29.5t-11 33.5t-3 24.5q0 55 25.5 97.5t64.5 42.5q10 0 10 -9q0 -4 -2 -8q0 -4 4 -19.5t11 -29.5q2 4 10 7t14 3q8 0 15.5 -3t17.5 -3q14 0 39.5 9.5 t68.5 19.5q41 8 83 26.5t65 18.5q12 18 28.5 27.5t33 15.5t32.5 12t27 17l-2 6l2 2q0 6 -11 6h-10q-10 0 -12 6q-16 16 -30.5 20.5t-47.5 4.5h2q-8 0 -28.5 2t-46 6t-50 9t-41.5 13q-2 -2 -12 -2l-14 2q-23 6 -52.5 22.5t-29.5 63.5q0 51 29.5 98.5t74.5 87.5t95.5 71.5 t91.5 54.5l14 10q12 14 27.5 23.5t31.5 15.5q0 6 21.5 18t49.5 25.5t54.5 27t38.5 21.5q-2 0 9.5 4t28.5 10t38.5 12.5t40.5 8.5l8 4q4 4 14 4q23 0 29 -25.5t6 -36.5z" />
<glyph unicode="t" horiz-adv-x="565" d="M1096 993q2 -2 2 -8q0 -10 -1 -23.5t-10 -17.5q-8 -4 -14 -14t-15 -22.5t-22.5 -21.5t-34.5 -9l-45 -3q-8 -8 -20 -8h-10q-2 -4 -10.5 -8t-14.5 -4l-10 2q-23 0 -41.5 -15.5t-52.5 -15.5h-13q-59 -29 -127 -43l-71 -20q-35 -29 -72 -109q-6 -12 -10 -14t-8 -2t-4 -4 q2 -2 2 -8q0 -10 -7 -13l-2 -4q-16 -14 -16 -22v-4q0 -10 -7 -19.5t-15.5 -15.5t-15.5 -11.5t-7 -9.5t2 -7t2 -5t-4 -10l-29 -51q-4 -8 -15 -29t-23.5 -42.5t-25 -38.5t-18.5 -17v-13q0 -12 -8 -21t-17 -18.5t-16.5 -17.5t-7.5 -16l2 -11q0 -6 -8 -14q-4 -4 -9 -15.5 t-11.5 -25.5t-15.5 -27.5t-21 -19.5q2 -4 2 -12q0 -16 -9.5 -26.5t-9.5 -14.5q2 -2 2 -8q0 -12 -8 -21.5t-8 -15.5l6 -17q0 -8 -8 -14q-16 -14 -24.5 -39t-14.5 -51.5t-14.5 -52t-28.5 -41.5v-21q0 -18 -5 -41.5t-22 -23.5l-36 6q-10 2 -23.5 11t-26 21.5t-21.5 28t-11 29.5 v-4q-4 6 -4 14v12q0 16 6 44t10 32q20 35 40.5 78t43.5 92q27 27 37 65t32 72q39 49 64 107.5t66 105.5q0 27 14 34t18 16v8q0 16 9.5 26.5t19.5 18.5q16 12 17 22.5t12 18.5q6 4 7 11t3 15.5t7 17.5t15 17l45 84q0 4 -4 4t-16 -5t-28.5 -11t-35 -11.5t-32.5 -5.5h-13 q-12 0 -15 -5t-13 -5q-6 0 -10 2h2q-6 0 -13.5 -2t-17.5 -2q-31 0 -31 35q2 0 2 2q12 80 76 143q4 12 20.5 21.5t36 13.5t35.5 6t23 2h2q66 0 112 25q8 4 11 4q4 0 8 -2t12 -2q2 0 8 10l13.5 22.5t13.5 25t8 16.5q29 43 46.5 93t45.5 79l-2 10q0 16 12 29q6 6 13 10 q0 4 -1 5t-1 3l2 6q18 37 34.5 51.5t49.5 14.5q18 0 44.5 -3t26.5 -22v-4q0 -4 8.5 -10t8.5 -14l2 -9q10 -31 10 -69v-13q-6 -12 -14 -22t-17.5 -20.5t-21.5 -14.5q-4 -18 -16.5 -31.5t-25.5 -23.5t-23.5 -20.5t-10.5 -24.5q0 -12 -7 -16.5t-14.5 -8.5t-14.5 -9t-7 -17 q0 -2 2 -3.5t2 -5.5q18 4 35.5 10.5t42.5 6.5q16 0 35 -6l9 9t17 7q6 0 11.5 -2t13.5 -2t14 2t17 2q23 0 35 -10q10 4 21 6l22 4h12l102 18q17 0 21 -4z" />
<glyph unicode="u" horiz-adv-x="952" d="M1059 248q0 -23 -13.5 -44.5t-32 -41t-39 -38t-34.5 -36.5v2l-7 -8t-17.5 -17.5t-21.5 -16.5t-20 -7q0 2 -7 -6t-17 -18.5t-22.5 -19.5t-20.5 -9q-6 -2 -17.5 -16.5t-34 -31t-57 -29.5t-86.5 -13q-35 0 -58.5 18t-37.5 47t-20.5 63.5t-6.5 69.5q0 37 9.5 72t21.5 67.5 t24.5 62.5t18.5 56q0 2 -4 2q-8 0 -24.5 -20.5t-35 -45t-34.5 -47t-25 -26.5q-12 -16 -20 -25.5t-16.5 -18.5t-18.5 -19.5t-29 -28.5q-6 -6 -26.5 -21.5t-44 -31t-41.5 -28.5l-19 -13q0 -4 -11 -14.5t-29.5 -22.5t-42 -21.5t-48.5 -9.5q-8 0 -27.5 5t-19.5 18 q-16 33 -31.5 74.5t-15.5 89.5q0 23 8 47t17.5 44.5t17.5 34t8 15.5t-2 5t-2 7q0 8 5 14.5t9 12.5q14 18 24.5 39.5t19 43t18.5 43t27 40.5q2 12 18 42.5t36.5 63.5t42 58.5t34.5 25.5l-2 10q0 14 8 31.5t18 22.5l4 2q2 14 12.5 28.5t22.5 25.5t23.5 18t17.5 7 q35 -4 67.5 -28.5t32.5 -69.5q0 -8 -3 -12t-3 -16q0 -10 -8 -24.5t-19.5 -30t-24.5 -31t-21 -23.5l-17 -16q-27 -25 -43 -45.5t-31 -57.5q-4 -10 -17 -17t-24 -30q-6 -12 -18 -29.5t-26.5 -37t-24.5 -39t-10 -35.5l-2 -2q-16 -23 -29.5 -47.5t-18.5 -53.5h5q16 0 41.5 13.5 t53 34t52.5 41t41 36.5q74 53 135.5 105.5t130.5 130.5q20 23 42 42t38 36l23 24q8 8 21 24.5t26.5 33t27 27.5t19.5 11q27 0 43 -16t25.5 -36.5t11.5 -39t2 -20.5q0 -6 -2 -10q-14 -31 -35 -59.5t-42.5 -56.5t-40 -55.5t-26.5 -56.5q-6 -18 -20.5 -31.5t-14.5 -17.5 q0 -2 1.5 -3t1.5 -5q0 -10 -1.5 -12t-5.5 -4.5t-10 -9.5t-16 -25v-6q0 -8 -7.5 -14.5t-7.5 -10.5q2 -2 2 -6q0 -8 -4 -12.5t-8 -8.5q0 -4 -5 -18t-11 -31.5t-11.5 -37t-5.5 -33.5q0 -4 1 -7.5t1 -7.5q6 2 15 2h12q8 0 10 -2l37 4l15 4q20 8 33.5 14.5t24.5 11.5t26.5 12 t41.5 22q8 4 19.5 7t26 10t34 19.5t43.5 34.5l9 5q0 10 9 13t15 3q0 6 11.5 15.5t29.5 9.5q4 0 17.5 -4t13.5 -27z" />
<glyph unicode="v" horiz-adv-x="704" d="M958 854q-4 -12 -10 -14q-20 -12 -40.5 -35t-42 -50.5t-46 -58t-51.5 -57.5q-23 -16 -27 -33.5t-24 -30.5q-23 -10 -38 -27.5t-28.5 -38t-29 -42t-35.5 -39.5q-10 -37 -28.5 -45t-37.5 -27q-23 -41 -49.5 -76.5t-56.5 -72.5l-84 -88q-8 -14 -19.5 -28.5t-27.5 -24.5 q-12 -23 -27.5 -43.5t-32.5 -40.5q-12 -16 -24.5 -38t-25.5 -40.5t-26.5 -31.5t-29.5 -13q-4 0 -22.5 6t-24.5 16l2 -4q-33 33 -52.5 81t-19.5 95q0 20 2 59.5t18 82.5l13 63q12 66 27.5 134.5t37.5 131.5l6 27q0 4 5 12q6 31 17 71t24.5 75.5t31 60.5t39.5 25q18 0 30.5 -2 t16.5 -15l8 -16q10 -27 20.5 -56.5t10.5 -60.5q0 -12 -5 -30.5t-15.5 -39t-23.5 -40t-27 -31.5l-11 -35q-23 -41 -46 -107.5t-32 -125.5q0 -4 2.5 -9.5t2.5 -7.5q14 14 27.5 29.5t27.5 25.5l2 2q4 4 18.5 19.5t33 33t37.5 31t34 15.5q10 20 23.5 32.5t37.5 22.5 q10 25 37 45.5t35 20.5h4q6 20 16 36q8 14 20.5 27.5t29.5 20.5q6 0 15 15t21.5 32.5t26.5 33t27 15.5q18 6 35.5 32.5t54.5 51.5q18 10 25.5 22.5t17.5 22.5l2 4q6 8 24.5 26.5t41 39t48 36t46.5 15.5q27 -4 32.5 -31t5.5 -37v-4z" />
<glyph unicode="w" horiz-adv-x="970" d="M1212 905q2 -6 2 -14v-12q0 -41 -22.5 -71t-50.5 -52v-6q0 -10 -5.5 -19.5t-11.5 -19.5q-8 -10 -14 -21l-49 -65l-19 -19q-2 0 -11 -14t-20.5 -34.5t-24.5 -40t-23 -32.5q-8 -8 -9 -12v-4q0 -4 -9 -17.5t-52 -56.5l-2 -4q0 -18 -10 -22q-10 -6 -26.5 -28t-36 -51.5 t-44 -64.5t-53.5 -67q-35 -41 -65.5 -86t-71.5 -80q0 2 -4.5 -10.5t-13.5 -27.5t-23.5 -27.5t-32.5 -12.5q-16 0 -31.5 15.5t-28 38t-19.5 51t-7 57.5q0 14 4 22t4 27q0 27 7 52.5t16.5 50t16.5 48t7 48.5v-2l3 14t7.5 32.5t9.5 35t9 18.5l-2 14l10 37h-2l-4 8 q-6 -10 -14.5 -16t-16.5 -10t-9 -11.5t-4 -15.5t-12.5 -19.5t-31.5 -23.5q-12 -31 -31.5 -58.5t-38.5 -50.5l-14 -18q-6 -18 -17.5 -33.5t-22.5 -27t-19.5 -20.5t-8.5 -15v-4q0 -10 -6 -24.5t-15 -31t-19.5 -31t-16.5 -20.5q-4 -2 -11 -19.5t-19.5 -38t-28 -36.5t-31.5 -16 q-4 0 -17 4q-4 0 -20 11t-35.5 28.5t-35 42t-15.5 53.5q0 63 11.5 122.5t41.5 123.5q0 25 7.5 42t14.5 31.5t14 27.5t7 28l-4 16q0 27 16.5 45.5t16.5 32.5q0 12 4 15t10 5t10.5 6.5t4.5 20.5v18q0 14 7 26.5t16 26t16.5 28t7.5 30.5q0 8 -2 12q0 4 4 19.5t22 25.5v9 q0 12 6 30l2 4q8 23 20.5 49.5t25.5 26.5q25 0 39 -15.5t24 -31.5q4 -4 16.5 -26.5t12.5 -94.5v-2q0 -8 -1 -21.5t-5.5 -27.5t-15.5 -26.5t-30 -18.5l3 -8q4 -12 4 -23q0 -16 -11.5 -26.5t-15.5 -24.5l-2 -4q-12 -23 -32.5 -56.5t-41 -71.5t-37 -79t-18.5 -80h2l4 -8 q2 0 10.5 9t18.5 20.5t19 21.5t14 15q27 25 46 53t48 28q0 16 7 27.5t11 15.5v3q2 2 10 6v2q2 6 4.5 14t10.5 16q6 2 11 12.5t12 20.5t19.5 19.5t33.5 9.5l6 18q0 2 19.5 33t50 65.5t70.5 64.5t81 30q29 0 34 -8.5t5 -30.5q0 -10 -1 -27.5t-9 -34.5v-2q2 -4 2 -12 q-12 -68 -30 -118t-22 -107q-4 -39 -14 -66.5t-10 -68.5v-13q0 -6 -2 -10q0 -2 6 -2t6 -4q14 12 28.5 37.5t30 53.5t32 48.5t32.5 20.5l2 2q12 16 27 24q6 6 6 19q0 12 12 20q8 20 31.5 47t48 54.5t43 52t18.5 39.5v4l8 11q7 11 18 26.5t22.5 34t17.5 36.5q16 41 41.5 83 t36.5 87q0 10 9 14.5t9 6.5v8q0 2 10 2t22.5 -5t22.5 -15l-2 2q12 -14 23 -27q8 -10 15 -21.5t7 -15.5z" />
<glyph unicode="x" horiz-adv-x="813" d="M1022 803q-4 -23 -23 -25q-6 0 -14 4q-4 -4 -19.5 -9t-35 -11t-38 -14.5t-28.5 -18.5q-4 -4 -15 -17.5t-24 -13.5l-45 -41q-16 -16 -30.5 -27.5t-18.5 -11.5q-14 -20 -31.5 -38.5t-34 -34t-27.5 -29.5t-11 -29q-29 -39 -49.5 -55t-20.5 -41q0 -4 6 -15t13.5 -24.5 t13.5 -28t6 -20.5q0 -31 8 -33t12 -10q2 -4 10.5 -13t16.5 -21.5t15.5 -26t7.5 -25.5q0 -2 -4 -10l5 -7t11 -18.5t11 -26t5 -28.5l-2 -12q0 -10 19.5 -24.5t19.5 -41.5q0 -31 -14.5 -59.5t-33.5 -50t-37.5 -34t-24.5 -12.5q-10 0 -21.5 24t-25 58.5t-29 75.5t-31.5 76 l-25 51q-2 4 -2 10q-4 10 -19 26.5t-15 33.5v6l-15 29q-10 18 -19 36.5t-18 32.5v-2l-13 -19.5t-30 -25.5q-12 0 -23 -10t-22.5 -24.5t-22.5 -28t-22 -19.5q-29 -35 -61.5 -80t-81.5 -98q-18 -18 -36.5 -45t-37 -51.5t-35 -42t-28.5 -17.5q-6 0 -32 10.5t-54 59.5 q2 -4 -10.5 19.5t-12.5 54.5q0 18 22.5 47t51.5 57.5t55.5 49t36.5 20.5q68 55 144.5 111.5t136.5 123.5q14 14 18 11.5t4 7.5q0 6 -8 25.5t-18.5 43t-20.5 47t-16 39.5q-8 23 -20.5 45.5t-12.5 47.5q0 8 4 12q-10 6 -17.5 18.5t-11.5 24.5t-5 21.5t-1 7.5v4q8 27 28.5 47 t43 33.5t40 19.5t21.5 6q16 0 20.5 -7t8.5 -11l2 -6q14 -31 27.5 -69t27.5 -67l6 -16q4 -8 5 -14q0 -6 -2 -8q6 -23 15 -47.5t19 -49.5q8 6 20.5 15.5t23 17.5t17.5 14l7 6l96 82q6 6 15 7q4 0 5 -1t3 -1t4 3t6 7q6 16 14 24.5t18.5 13.5t18.5 9t14 12q8 14 20.5 21.5 t24 12.5t20.5 9t13 14q2 6 17.5 18.5t33 27t34 24.5t20.5 10h10q8 0 10 -2q8 4 19 4q10 0 19 -6t9 -16q2 -10 7.5 -13.5t9.5 -9.5t8 -17t4 -34q0 -8 -2 -14z" />
<glyph unicode="y" horiz-adv-x="768" d="M850 715q0 -12 -7 -21.5t-14.5 -16.5t-14.5 -14.5t-7 -17.5q0 -4 -10.5 -23.5t-22.5 -31.5q-16 -12 -23.5 -30.5t-13.5 -38t-13 -39t-22 -33.5q-20 -20 -36.5 -54.5t-33 -74t-32.5 -81.5t-35 -79q-49 -96 -74.5 -159.5t-41 -111t-31 -83t-43.5 -76.5q0 -27 -23 -37 q0 -33 -14 -61.5t-37 -51.5q-2 -10 -10 -27.5t-19.5 -35t-23.5 -29.5t-25 -12q-10 -27 -32.5 -54.5t-47 -50t-50 -37t-42.5 -14.5q-29 -25 -64.5 -35t-72.5 -10q-18 0 -43 8t-46.5 21.5t-36.5 34t-15 45.5q0 4 1 7t1 7l-4 53q0 16 8 39t31 23q-2 0 8 -6.5t24.5 -13.5 t25.5 -15t13 -10h15q20 0 28 -7q2 2 10 2q55 8 91 31t57.5 47.5t35 44t25.5 23.5q2 4 9.5 14t11.5 15q23 23 32 51t31 51q10 25 21.5 48.5t25.5 47.5q14 25 23.5 46.5t20 46t23.5 54t34 70.5q4 35 23.5 64.5t29.5 64.5q6 23 20.5 46.5l29 47t25.5 46t11 45.5q0 6 -2 6 q-27 -27 -47.5 -54.5t-40.5 -58.5q-4 -4 -21.5 -12t-33.5 -31q-14 -18 -35 -36.5t-43 -24.5v-4q0 -12 -20.5 -36t-48 -46.5t-55.5 -39t-42 -16.5q-10 0 -16 6h-9q-16 0 -26.5 11.5t-16.5 27t-8 34t-2 30.5q0 14 6 49t14.5 74t18.5 71.5t20 42.5q6 66 31 113t29 76h-2 q-14 0 -32.5 -18.5t-36 -40t-30 -40t-16.5 -18.5l-10 10q-20 0 -24.5 26t-4.5 40q0 53 31 93t72 69q8 4 10 4q8 10 37.5 30.5t64.5 41t66 36t43 15.5q29 0 46 -32t17 -56q0 -10 -2 -21.5t-12 -17.5q-6 -12 -14.5 -27.5t-20.5 -39t-31.5 -57.5t-50.5 -81q2 -2 2 -8 q0 -12 -7 -21.5t-17 -17.5q2 -4 2 -12q0 -20 -19 -21v-6q0 -18 -8 -29q-16 -23 -19 -45t-14 -47q4 -4 7 -4q6 0 15 8t19.5 18.5t19.5 20.5t13 14q74 68 138.5 129.5t133.5 139.5q4 4 14.5 16t21 25.5t20.5 23.5t14 10v5q0 16 8 24l19 19l-2 4q0 12 12 20q12 6 17.5 19.5 t11.5 29t14 28.5t27 19q-2 2 -2 9q0 23 14 30.5t33 7.5q18 0 44.5 -16t30.5 -35l21 -108v0z" />
<glyph unicode="z" horiz-adv-x="776" d="M858 809q4 -12 4 -21q0 -20 -10 -38.5t-23.5 -33t-24.5 -23.5t-13 -9h-5q-14 -14 -22 -17t-21 -16q4 -4 5 -12l-12 -13q-11 -14 -25.5 -28t-29.5 -26.5t-24 -12.5h-6q-18 0 -25.5 -7t-17.5 -22l-12 -12q-6 -4 -20.5 -15t-31 -23.5t-30.5 -23t-18 -10.5q-10 0 -17.5 -9 t-15.5 -20t-20.5 -23.5t-30.5 -18.5q-16 -6 -30.5 -33t-45.5 -41q-12 -12 -38 -33.5t-51.5 -45t-46 -45t-20.5 -32.5q0 -6 17.5 -8t42.5 -2l59 2q2 0 6 -4q4 2 10 2h31q8 0 12 -2q41 2 84 2h86h84q43 0 84 4l15 6q4 2 10 2q12 0 17 -9t5 -17q0 -6 -4 -15v3q0 -25 -13 -43.5 t-30.5 -28.5t-37 -15.5t-31.5 -5.5h-15q-6 0 -12 2q-4 0 -16.5 -10t-34.5 -10q-4 0 -9 3t-8 3q-4 0 -14 -9t-16 -9l-15 -6q-2 -2 -8 -3q-4 0 -12 5q-6 -6 -18 -7q-6 0 -11 2l-114 -16h-13q-16 -10 -42.5 -14t-55.5 -4l-27 2h-133l-53 -4q-16 0 -26.5 12t-16.5 27.5t-8 31 t-2 23.5v10q0 37 5 57.5t14 32.5t22.5 18.5t29.5 12.5t22.5 10t8.5 9t3 10.5t9 13.5l117 117q4 2 18.5 9t24.5 25q6 12 20.5 22.5t30 22t27.5 22.5t16 28q8 16 39 40.5t52 45.5q12 12 32.5 27.5t40 29.5t33.5 26.5t14 22.5q-2 2 -8 2q-16 0 -58 -6t-83 -20q-43 -6 -82 -28 t-59 -22q-10 0 -14.5 9.5t-4.5 19.5q0 16 9.5 39t9.5 49q37 66 81.5 83.5t116.5 17.5q10 6 22.5 11t18.5 5h21q10 0 18 -8q14 8 24.5 15t32.5 7q10 0 19.5 -1t15.5 -11q10 4 23 10q10 4 23.5 8t25.5 4q2 0 4 -1t6 -1q6 0 8 1t6 1q8 0 15 -6l6 4q4 2 10 2t8 -2q4 2 13 2 q10 0 22 -6q8 6 19 6q12 0 18 -5t8 -5l2 2q2 0 3 1t5 1q6 0 13 -6l6 -4q4 -2 6 -2t2 -4z" />
<glyph unicode="{" horiz-adv-x="487" d="M743 1520q-10 -4 -31.5 -23.5t-31.5 -30.5q-20 -18 -31.5 -31.5t-18.5 -24.5t-12.5 -23.5t-15.5 -26.5q-14 -18 -30.5 -56t-34 -82t-35 -92.5t-35.5 -87.5q-18 -41 -27.5 -77.5t-9.5 -42.5q-2 -8 -5 -15.5t-9 -17.5t-14.5 -26.5t-20.5 -45.5q-12 -25 -40 -48.5 t-55.5 -41.5t-49.5 -29l-21 -12q14 -10 28.5 -33.5t26.5 -81.5q0 -14 -1 -34.5t-1 -44.5q0 -2 -4 -11q-12 -27 -15 -38t-4 -19t-4 -18.5t-14 -32.5l-65 -178q2 -8 3 -11.5t1 -7.5t-1 -8l-3 -12q-4 -12 -10.5 -36t-16.5 -69q4 -12 4 -16q0 -14 -4 -24.5t-4 -22.5 q0 -14 16.5 -31.5t20.5 -38.5l4 -10q4 -6 14.5 -19.5t10.5 -17.5q0 -10 -10.5 -17.5t-20.5 -7.5q-33 0 -52.5 14.5t-21.5 16.5l-2 2q-23 16 -37 34.5t-28 51.5q-12 10 -13 29q0 16 -6 20l4 -4q-8 6 -8 17l-2 24q-2 16 -2 29v22q0 23 7 44.5t7 62.5q10 23 18.5 49.5t15.5 51 t14.5 45t19.5 32.5q2 18 11 48t20.5 61.5t19.5 60.5t8 47q0 43 -12 59.5t-14 16.5q-10 10 -12.5 16t-2.5 11q0 16 11.5 20t33 17.5t52 46t67.5 106.5q4 33 18.5 55.5t16.5 22.5q10 55 28.5 97t39.5 114q2 8 10 32.5t17 51t20.5 50t21.5 30.5q0 29 25.5 58.5t50.5 59.5 q2 2 15.5 14.5t33 27t42 25.5t40.5 11h8q16 8 45 8q35 0 48.5 -5t13.5 -15q-1 -6 -13 -14z" />
<glyph unicode="|" horiz-adv-x="843" d="M842 1456q0 -2 -10.5 -23.5t-25.5 -51t-31.5 -60.5t-29.5 -51v-8q0 -14 -8 -33t-19 -37t-20.5 -35.5t-11.5 -32.5v-4q0 -16 -11 -34.5t-20 -34.5q4 -8 4 -11q0 -4 -4 -12q-39 -68 -70.5 -134.5t-56.5 -113.5l-8 -16q-16 -29 -32.5 -67t-20.5 -54v-6q0 -12 -8 -20.5 t-19 -14.5q-6 -10 -7 -19.5t-1 -19.5q0 -8 -3 -19.5t-11 -25.5q-35 -57 -53.5 -108.5t-42.5 -108.5q2 -2 2 -6q0 -23 -19.5 -59.5t-36.5 -69.5q-33 -61 -46 -95t-25 -77q-2 -10 -7.5 -29.5t-22.5 -39t-47 -35t-81 -15.5q-12 0 -25.5 7t-13.5 24q0 6 2 12t4 10q-2 4 -2 15 q2 16 14.5 35.5t18.5 27.5q8 18 13 44t40 61q-2 4 -2 12q0 18 14 41q14 31 20.5 53.5t29.5 54.5q0 27 16 63t47 73q0 4 -3 9t-3 11q0 16 12 36.5t23 39.5l-2 6q0 10 4 15t10 12q0 2 -1 4t-1 6q0 12 17.5 37.5t29.5 40.5q0 4 -1 7t-1 7q0 23 19.5 46.5t19.5 35.5l-2 8 q0 2 4 10q23 31 37 63t24 58l9 21q0 4 6 8q18 14 25.5 24.5t10.5 18.5t4 16t3 19v-2q2 18 11 35.5t19.5 35t17.5 32.5t7 28l-4 18q0 8 2 10q20 27 28.5 48.5t14.5 44.5q2 8 11 24t18.5 33.5t16.5 34t7 26.5v13q0 10 10.5 23t10.5 30q0 25 17.5 43t40 30.5t42 17.5t25.5 5 t10 -4q2 2 8 2l31 6q4 0 21.5 -6t17.5 -35v-4z" />
<glyph unicode="}" horiz-adv-x="753" d="M754 1352q0 -16 1 -27.5t1 -21.5q0 -23 -3 -44.5t-12 -60.5q-8 -16 -16 -46t-17.5 -58.5t-18.5 -51t-17 -24.5q-8 -6 -9 -29.5t-12 -42.5v4q-23 -49 -30 -86t-7 -61q0 -39 6.5 -56.5t14.5 -24.5t14 -10t6 -14q0 -2 -2 -2v-2v-2q0 -10 -11 -11t-33.5 -17.5t-56.5 -61.5 t-81 -143q2 -4 2 -10q-2 -10 -7 -14.5t-9 -6.5q-8 -31 -15.5 -53.5t-15.5 -45t-17.5 -49t-19.5 -63.5q-2 -8 -9 -31.5t-16.5 -51.5t-21.5 -51.5t-25 -29.5q0 -25 -11 -36t-15 -11l2 -6q0 -10 -17.5 -29.5t-33.5 -36.5q0 4 -11.5 -8t-30 -27.5t-41 -28.5t-46.5 -13h-9 q-12 -6 -33.5 -7.5t-25.5 -1.5q-25 0 -36 8.5t-11 12.5t27.5 25.5t48.5 42.5q18 18 29.5 32.5t19.5 25.5t13 22.5t16 25.5q12 16 27.5 54t33.5 83t37.5 93.5t36.5 86.5q16 39 24 71t13 50l3 13q3 12 9 29.5t15 34.5t22 30q12 25 39.5 47t55.5 39.5t49.5 29t21.5 13.5 q-14 10 -28.5 33.5t-27.5 83.5v32t2 29q0 14 2 27q12 25 16.5 36t6.5 20t3 19.5t11 32.5q4 23 15.5 49.5t22.5 51t19.5 45t8.5 32.5l-2 21l30 123q-4 12 -4 20l9 47q0 10 -14.5 26.5t-24.5 39.5l-4 10q-2 4 -12.5 18.5t-10.5 18.5q0 10 9 17t22 7q35 0 53 -13t21 -17l2 -2 q23 -16 37 -35t28 -49q10 -12 12 -29.5t7 -21.5l-5 4q8 -8 9 -17l2 -24v0z" />
<glyph unicode="~" d="M1006 1167q0 -6 -2 -8q-14 -31 -44 -60.5t-67 -53t-76 -38t-74 -14.5q-12 0 -18 5.5t-12 9.5q-2 -6 -17 -7q-23 0 -33 8.5t-16 8.5h-4q2 0 -10 2t-30.5 5t-38 8t-27.5 11q-2 0 -3.5 -1t-5.5 -1l-63 -4q-6 0 -12.5 5.5t-16.5 5.5q-18 0 -34.5 -8.5t-41.5 -8.5h-14 q-25 0 -37 -10t-41 -10q-14 0 -23 11t-12 19q0 20 13.5 31.5t13.5 18.5q-2 -4 10.5 8t30.5 26.5t37.5 27.5t36.5 13q4 0 8 -4q16 16 43 19.5t41 17.5l-2 -2q4 8 27.5 10t37.5 2t27.5 -1t28.5 -3h10l4 -2q4 0 6 1t4 1h15l20 -4q14 -2 33 -10q37 0 56.5 -13.5t45.5 -13.5l25 2 q10 0 16 -10l10 -20q8 4 21.5 15t36.5 11q20 0 36.5 16.5t49.5 16.5q10 0 20.5 -6.5t10.5 -22.5z" />
<glyph unicode="&#xa1;" horiz-adv-x="647" d="M686 690q0 -8 -2 -23.5t-7 -33t-14.5 -31.5t-23.5 -22q0 -2 -1 -10.5t-5 -17.5t-12.5 -16.5t-22.5 -9.5q-25 0 -42 10.5t-29.5 26t-17.5 32.5t-5 30q2 4 2 10q0 8 -2 12q0 20 9 39t9 35q0 8 5 26.5t28 18.5q2 10 10 22.5t27 12.5q20 0 36.5 -10.5t29 -26.5t19.5 -36 t9 -38zM510 305q0 -12 -5 -32.5t-13.5 -41t-15.5 -35t-9 -16.5q-18 -23 -31.5 -48.5t-23 -51t-16.5 -48t-11 -34.5v2q0 -2 -1 -12.5t-5 -23.5t-12.5 -26.5t-20.5 -19.5q0 -4 1 -6t1 -4q0 -29 -14.5 -42t-14.5 -30v-6q0 -14 -10 -19.5t-10 -11.5l8 -20q0 -6 -4 -10 q-29 -51 -45 -107.5t-39 -110.5q-10 -12 -11 -31.5t-3 -40t-8.5 -41t-26.5 -36.5l2 -35q0 -29 -15.5 -60.5t-37.5 -31.5q-27 0 -49.5 18.5t-38 42t-23.5 46t-8 32.5l12 105v16q0 2 5.5 12.5t12.5 24.5t13 29.5t8 27.5q12 61 51 124t68 118q4 23 11 47.5t28 42.5 q2 20 11 36.5t19.5 32t17.5 29t7 29.5l-2 10q0 4 9.5 21.5t22.5 41t28.5 48t29.5 43.5q-2 4 -2 12q0 16 8.5 33.5t18.5 21.5q4 4 3 15.5t7 25.5q0 4 5 19.5t14.5 31t21.5 28t29 12.5q2 0 11 -3.5t19.5 -15.5t18.5 -35.5t8 -62.5q0 -21 -4 -29z" />
<glyph unicode="&#xa2;" horiz-adv-x="602" d="M803 365q10 -16 10 -35q0 -4 -2 -14.5t-5 -21.5t-8 -19.5t-12 -8.5l-8 -13t-23.5 -29.5t-34 -30t-38.5 -13.5v-4q0 -12 -12 -24l-29 -23q-29 -23 -54.5 -42t-66.5 -36q-4 -14 -20 -26l-2 -5q-4 -4 -13 -4h-4q-16 0 -33.5 -8t-41.5 -8h-9q-8 -10 -19 -18.5t-22 -14.5h-2 q-14 0 -25.5 -13t-25.5 -24v-2q4 -8 4 -10q-8 -20 -16 -39q-8 -16 -16.5 -33.5t-18.5 -29.5l-6 -6v-11q2 2 -4 -20.5t-16.5 -51t-22.5 -53t-25 -24.5q-6 0 -19 3t-25.5 12t-23 23.5t-10.5 39.5v10q-6 8 -6 18q0 20 11.5 34.5t15.5 19.5q0 4 -2 10t-2 10t4 14.5t10 22.5 t11.5 24.5t9.5 20.5q-49 0 -82 22q-8 8 -20.5 25.5t-25 42.5t-20.5 52.5t-8 56.5q0 27 10 68.5t27.5 86.5t40 88t47.5 72l-2 -2q0 2 12 24.5t29.5 48t37 46t34.5 20.5q16 37 44.5 68t61.5 57.5t66.5 52t60.5 52.5l16 12q18 12 41 14l37 19q4 2 12 2q12 35 22.5 54t20 35.5 t16.5 34t13 46.5q0 6 8 14q16 33 26.5 56.5t33.5 23.5q18 -2 28 -31q-2 -2 4.5 -7t13.5 -13.5t14 -21.5t7 -32q-14 -61 -34.5 -89.5t-32.5 -57.5v2q-2 -10 -4 -18q-4 -18 -9 -23l-2 -4q23 -14 33 -42t10 -52q0 -14 -5 -19.5t-5 -27.5q2 -4 2 -15q0 -35 -18.5 -63.5t-45 -51 t-56 -37t-52.5 -18.5q-20 0 -28.5 17.5t-8.5 31.5q0 35 20.5 67t20.5 52l-4 4l-6 -2q-14 -6 -26.5 -17t-24.5 -18q-12 -6 -16.5 -11t-6.5 -8t-4 -5t-8 -4q-29 -10 -55.5 -43t-48.5 -43h-2q-18 -8 -33 -33t-47 -39q-14 -20 -27.5 -52t-42.5 -54q-4 -31 -23.5 -45.5 t-23.5 -30.5q0 -23 -17.5 -39t-17.5 -39l2 -16q0 -18 -6 -25q10 -10 21.5 -12t27.5 -4l35 -2q39 0 69.5 9t59.5 21.5t57.5 25.5t61.5 24q25 6 39 14t24.5 15t19.5 13.5t21 10.5q12 10 25 18q10 8 23.5 16.5t25.5 14.5q18 10 40.5 31.5t33.5 21.5q10 0 18 -4h2q4 12 8 26.5 t33 14.5q6 0 14.5 -4t14.5 -16z" />
<glyph unicode="&#xa3;" horiz-adv-x="952" d="M1001 805q2 -2 3 -6q0 -10 -17.5 -27.5t-40 -33t-44 -27t-28.5 -11.5q-63 0 -77.5 -5t-22.5 -5t-15 3t-28 3h-20l-2 -2q-8 -8 -29 -8l-43 2q-14 0 -24.5 -6t-10.5 -23q0 -4 1 -6t1 -6q0 -14 -8 -15t-16 -24l4 -2q6 4 20 4h45q10 0 17 -6q12 12 32 12l58 -6q29 0 54.5 3 t51.5 8q4 0 19.5 -5.5t15.5 -33.5q0 -18 -15.5 -36t-37 -31t-45 -22.5t-37.5 -9.5h-21q-43 0 -54 -4t-19 -4t-11.5 3t-15.5 3l-37 -2l-2 -2q-8 -4 -20.5 -5t-28.5 -1h-45q-6 -16 -13.5 -33.5t-11.5 -27.5q-14 -12 -22 -32t-16.5 -40.5t-18.5 -41t-29 -36.5 q-14 -23 -17 -47.5t-24 -52.5l-4 -17q-4 -12 -9 -32.5t-9 -32.5q2 -2 10 -2h10q12 4 17 4q6 0 8 -2q4 2 10 2q10 0 23 -8l4 -4l2 2q2 0 3 1t5 1q8 0 12 -6q18 0 34.5 5t39.5 5q16 0 41 -10q12 4 22 4h25h18q10 0 21 -2h166q31 0 54.5 5t58.5 5h4q14 0 31.5 -3t17.5 -22 q0 -41 -30 -61.5t-77 -26.5q-25 0 -35 -8t-26 -8h-12q-29 0 -46.5 -5t-46.5 -10l-2 -2q-16 -4 -35.5 -5t-39.5 -3q-37 -4 -79 -14t-71 -10q-4 0 -6 2q-14 0 -29.5 -4t-36.5 -4l-20 2q-8 0 -12 -2l-7 -3q-25 0 -42 1.5t-21 1.5q-4 -4 -8 -5l-43 5q-31 0 -59.5 -4.5 t-63.5 -4.5h-29q-14 0 -31 4q-16 -8 -28 -8q-29 0 -34 20.5t-5 43.5q0 76 53 106q-2 0 -1 -1t3 -1q8 0 31.5 8.5t44.5 28.5q6 6 13 9t16.5 8.5t18.5 15.5t15 35q6 20 23.5 59t39 85t42 92t35.5 79h-15q-4 -2 -14 -2q-14 0 -22.5 4t-12.5 8q-16 0 -31.5 -10t-33.5 -10l-58 6 l-24 -2q-29 0 -39 15.5t-10 27.5q0 10 3 14t9 10q16 45 42 58.5t58 13.5q23 0 44.5 -2t39.5 -2q12 12 35 12t33 -12q12 0 17 7t16 7q8 0 14 -3t12 -3q8 16 17.5 36t17.5 42h-4q-4 -2 -14 -2q-16 0 -24.5 4t-10.5 6q-23 0 -41.5 -5t-30.5 -5l-43 4q-10 0 -17 -3t-14 -3h-24 q-10 0 -20.5 5t-10.5 17v11q0 4 1 11t7 13v6q0 6 4 11q20 39 45 52t58 13q23 0 44 -3t40 -3q14 12 35 12q20 0 32 -12q16 0 19.5 7t13.5 7q6 0 19 -4q18 43 28 81t39 48l6 2v17q0 31 12.5 56.5t26.5 47t26.5 43t12.5 43.5v8q0 10 4 13q2 4 13.5 18t23.5 32.5t22.5 37 t10.5 30.5q8 16 18 31q8 12 19.5 22.5t23.5 10.5q20 0 36.5 -12.5t29 -26.5t18.5 -27.5t6 -15.5l11 -80q0 -4 -2 -6q-6 -25 -17.5 -44t-25 -37.5t-24.5 -36t-15 -36.5q-12 -14 -21 -32q-8 -16 -17 -37t-16 -45q-8 -29 -25.5 -56.5t-29.5 -50.5l2 -2q12 8 19 8l4 -2h45 q10 0 16 -6q12 12 33 12l55 -4l115 11q4 0 15 -8.5t11 -24.5zM913 -23l-4 -2q2 0 4 2zM301 -106q-2 0 -4 -3l4 3v0z" />
<glyph unicode="&#xa4;" horiz-adv-x="1468" d="M1532 1343q0 -16 -9.5 -25t-19.5 -18q-10 -10 -26.5 -28.5t-40 -36.5t-55 -31.5t-72.5 -13.5q-12 0 -22.5 10t-20.5 17h-4q-12 0 -21 6h-2q-10 -6 -18 -6l-17 2q-2 -2 -8 -2l-86 6h-29q-10 -6 -20 -7.5t-21 -1.5h-18q-8 0 -12 -2q-4 -4 -28 -9t-54.5 -11t-61 -13.5 t-45.5 -13.5q8 -14 19.5 -51t11.5 -55q0 -23 -14.5 -33t-33 -16t-32.5 -14.5t-14 -22.5l2 -12q0 -4 -11.5 -20.5t-26.5 -37t-31.5 -40t-26.5 -29.5h45q8 0 14 -7q16 10 31 11l49 -4q23 0 45 5t45 5q10 0 35.5 -8.5t25.5 -28.5q0 -31 -28.5 -52.5t-65.5 -33.5t-74.5 -18.5 t-56.5 -6.5l-31 6q-29 0 -39 -3t-26 -3h-8q-29 0 -53.5 -5t-39.5 -38v-4q0 -20 -10 -27.5t-16 -23.5l4 -2q6 6 17.5 7t27.5 1q10 0 21.5 -2t15.5 -6q16 10 31 10l170 6q10 0 20 -13t10 -24q0 -23 -17.5 -41t-40 -31.5t-45 -20.5t-30.5 -7h2q-23 0 -54.5 -5t-41.5 -5 q-8 0 -13 3t-16 3q-23 0 -38 -4t-58 -4h-31q-12 0 -18 2q-16 -35 -43 -62.5t-43 -56.5q-10 -20 -21.5 -40.5t-27.5 -37.5q-16 -41 -29.5 -79.5t-30.5 -77.5q10 -16 33 -17q12 0 25.5 3t25.5 5q37 4 75 6.5t77 4.5l49 -2l242 14q10 0 23.5 -1t21.5 -5q10 6 21 7t22 1h18 q4 0 11.5 -2t11.5 -4l16 8t19 4q14 0 22 -4q10 4 23.5 3t23.5 1q4 6 10.5 8t12.5 2q33 0 32 -28q0 -18 -9 -28.5t-19 -19t-21.5 -14.5t-13.5 -18q-4 -10 -16.5 -15.5t-26.5 -5.5q-20 -16 -49 -26.5t-39 -10.5h-14q-29 0 -61 -13t-60 -13h-29q-8 0 -20 -4q-31 -31 -85.5 -33 t-103.5 -8q-29 -4 -64.5 -11.5t-62.5 -7.5l-22 2l-138 -20q-61 0 -76.5 40t-15.5 91v41l-4 63q16 86 64.5 183.5t97.5 173.5l-21 -2q-6 0 -15 1t-13 5q-16 -4 -25 -4h-10q-14 -8 -39 -8l-47 2l-33 -2q-51 0 -51 51q0 10 12 16q0 39 32 56.5t67 17.5l69 -4q14 0 24.5 6 t22.5 6q20 0 33 -12h8q6 12 25 12q6 0 13 -2t16 -4q6 12 15 26.5t18.5 29t15.5 25.5t6 15q-8 -4 -12 -4q-8 0 -18.5 3t-16.5 9q-23 -4 -34 -12t-32 -8q-18 0 -48 2t-34 6l-24 -2q-18 0 -23.5 8t-5.5 25q0 14 8 24q-2 0 -2 7q0 6 3 11t7 9l7 8q20 27 34.5 37t55.5 10l82 -6 q14 14 34 15q23 0 33 -13h8q8 12 25 13q10 0 18.5 -3.5t18.5 -3.5q2 12 22.5 35t30.5 33q8 39 34.5 64.5t43.5 60.5q16 35 45 69.5t61 57.5q-29 -4 -57.5 -9t-56.5 -5q-16 0 -32.5 -9.5t-31 -20.5t-26 -20.5t-15.5 -9.5q-20 0 -32.5 10.5t-19.5 24.5t-10 31.5t-3 29.5 q0 106 102 134q29 8 69 24t66 16l21 -2q10 0 32.5 2.5t48 3.5t50 3t39.5 2q4 0 7 -1t5 -1q4 2 12 2l19 -4l51 10q16 0 25 -4q10 2 23 3t24 1q12 0 18 -10q10 4 21.5 7t19.5 3q6 0 14 -4q4 4 20.5 6t26.5 2q6 0 19 -4q16 4 24 4l37 -4q12 0 14.5 7t16.5 9h80q6 8 21.5 10 t31.5 2q12 0 22.5 -1t18.5 -1l35 5q25 0 54.5 -6.5t29.5 -39.5z" />
<glyph unicode="&#xa5;" horiz-adv-x="921" d="M1270 1360q0 -18 -17.5 -28.5t-31.5 -14.5l-4 -6q0 -18 -21 -23q-10 -10 -12 -29.5t-29 -35.5q-4 -8 -13 -25.5t-21.5 -36t-24 -33t-19.5 -14.5l-2 -2l2 -14q0 -23 -12 -41.5t-27.5 -34.5t-28 -31.5t-12.5 -32.5l2 -14q0 -10 -7 -22.5t-15 -24.5t-16.5 -22.5t-8.5 -16.5 q4 -8 4 -10q0 2 -8 -12.5t-20.5 -36t-25.5 -44t-23 -34.5q-2 -25 -19.5 -44.5t-28.5 -41.5l9 2q4 0 16 -4q4 2 12 2h11q35 0 67.5 3t65.5 11h4q10 0 17 -6t7 -16q0 -20 -9 -42t-24.5 -40.5t-36 -29.5t-40.5 -11q-8 0 -19.5 3t-15.5 3t-9 -3t-14 -3h-4q-6 -2 -20 -2 q-12 0 -22.5 2t-20.5 4q-6 -4 -14 -4h-17h-16q-10 -18 -21.5 -41l-21.5 -43h6q6 0 14 -4q8 4 17 4q6 0 18 -4q4 2 10 2h13q70 0 133 14h4q23 0 22 -22q0 -33 -18.5 -51.5t-28.5 -47.5q-8 -16 -21.5 -22t-29.5 -6q-6 0 -23.5 1t-23.5 5q-4 -2 -10 -4t-13 -2q-4 0 -10 2t-10 4 q-6 -2 -21 -2q-16 0 -24 4h-2q-4 -4 -17 -4q-10 0 -30 4l-21 -2q-25 -47 -55.5 -90t-48.5 -95q0 -2 -9.5 -14t-18.5 -26.5t-19 -25.5l-9 -11q-6 -20 -16 -35t-23.5 -26t-25.5 -23.5t-21 -26.5q2 -2 3 -6q0 -23 -23 -23q-29 -39 -70 -78.5t-90 -71.5t-100 -51.5t-96 -19.5 q-20 0 -35 6q-12 -8 -23 -8q-12 0 -28.5 7t-31.5 20.5t-25.5 30t-10.5 34.5v25q0 14 1 27.5t5 23.5l2 2q4 6 12.5 19.5t18.5 27t21.5 23.5t23.5 10q16 0 25.5 -6t16.5 -14.5t12 -15.5t12 -9q16 -8 32 -8t31 -8l2 2q6 8 18 8q4 0 7.5 -1t7.5 -1q14 0 29.5 9t29 20.5 t26.5 20.5t25 9h5q4 12 17 21.5t23 15.5q0 14 19.5 27.5t28.5 35.5l-2 -2q4 14 20 27h2q-2 2 -2 6q0 12 14 21q18 8 21.5 23.5t15.5 27.5q16 14 26.5 35.5t17.5 44t17.5 45t26.5 39.5q-8 -4 -15 -6t-17 -2q-16 0 -27 8q-2 0 -4 -1t-6 -1q-12 0 -28.5 3t-33.5 3l-102 -10 q-16 0 -37 7t-21 29q0 31 18.5 60t47.5 43q0 6 6 6t12.5 -4t16.5 -4h71l39 -6q4 0 28 5t71 5h35q16 0 24 -2q8 25 20.5 46t24.5 44l-20 2q-10 0 -21.5 -6t-27.5 -6t-23 4l-12 -2q-12 0 -29.5 4t-34.5 4l-102 -12q-16 0 -37 8t-21 29q0 18 9.5 37.5t23 37t27.5 28.5t26 11 q2 0 18.5 -3t36 -6t35.5 -6l17 -3l20 -2l11 2q8 4 18 5t19 1q-4 29 -10.5 58.5t-6.5 58.5q0 14 -6 28.5t-14 29.5t-14.5 31.5t-6.5 37.5l2 18q-18 29 -18 51q0 12 6 25q-16 6 -16 20l2 23q0 10 -5.5 33.5t-11.5 47t-14 42t-14 18.5q-4 -4 -14.5 -13t-22 -21.5t-20.5 -25 t-9 -22.5q0 -8 -8 -16h2q-8 -10 -13.5 -19.5t-21.5 -9.5q-23 0 -28 21.5t-5 38.5q0 51 34 107t71 91q10 10 27.5 18.5t21.5 18.5q0 2 13.5 9t30.5 15.5t33.5 15.5t24.5 7q23 0 42.5 -6t25.5 -29q2 0 8 -15t13.5 -35.5t12.5 -42t5 -36.5l-2 -20q0 -6 2 -10t4 -9 q8 -88 20.5 -176t32.5 -174q2 -4 5 -18.5t8.5 -29.5t9.5 -27.5t6 -14.5q35 12 45 48t33 77l-2 6q0 12 10 28.5t23.5 34t23.5 34t10 26.5l-2 21q0 27 21 45q10 23 22 48t23 48q10 25 22 51l5 10q5 9 11.5 20t12.5 23.5t10 20.5q29 72 70 105.5t119 33.5q33 0 63.5 -11 t30.5 -40z" />
<glyph unicode="&#xa6;" horiz-adv-x="628" />
<glyph unicode="&#xa7;" horiz-adv-x="860" d="M922 778q-2 -10 -4.5 -18t-4.5 -19q-6 -33 -14 -58.5t-24.5 -47t-42 -39.5t-66.5 -39q-14 -10 -23.5 -16t-21.5 -15.5t-32.5 -21.5t-59.5 -33q23 -16 33 -39.5t10 -52.5q0 -49 -33 -88q-16 -31 -30.5 -52.5t-30 -36t-32 -25.5l-34.5 -23q-14 -10 -27.5 -19.5t-34 -21 t-50 -22.5t-78.5 -23l-3 -5q-6 -6 -16 -6q-6 0 -11 1t-9 1q-10 0 -15.5 -3t-14.5 -7t-26.5 -7t-50.5 -3l-35 2l-18 -2q-10 0 -23 4l-2 2q2 2 -4 -1t-16 -7t-22.5 -8t-22.5 -4q-14 0 -21.5 7t-10.5 17t-4 19.5t-1 15.5v12q0 39 14.5 63.5t38 39t53 18.5t62.5 4q16 0 30.5 -5 t22.5 -5q6 0 15.5 6t19.5 6h24q27 0 46 8q2 0 27.5 8.5t56 20.5t55 27.5t24.5 31.5q0 12 -25.5 29t-56 32t-55.5 26l-26 10q-8 0 -33 3t-50.5 7t-48 11t-24.5 16h-8q-8 2 -20.5 8t-16.5 22q-10 0 -23.5 5.5t-28 15.5t-23.5 28.5t-9 42.5q0 10 2 21.5t8 17.5l-2 4 q-2 10 -4 17.5t-2 15.5l2 13q10 47 31.5 98t74.5 65q14 18 39 37t50.5 34t46 26.5t28.5 15.5q-31 27 -30 72q0 31 13 58.5t30 45.5q39 72 104.5 113t124.5 69l18 9q16 23 42 23.5t38 4.5l23 6q20 12 35 13q10 0 20 -6q2 0 13.5 6t27.5 6t22.5 -4t26.5 -8l6 6q4 4 15 4 q6 0 18 -3t24.5 -10.5t21.5 -17.5t9 -24q0 -6 -2 -14.5t-2 -18.5v-6q0 -10 -5 -27.5t-14 -36t-20.5 -32t-23.5 -13.5q-10 0 -16.5 4t-10.5 6h-4q-8 0 -12 4.5t-8 8.5q-6 -2 -17 -2q-18 0 -29.5 7t-15.5 7t-11 -6t-17 -6h-11q-12 0 -21 -3.5t-22 -9.5l-28 -12 q-29 -12 -53.5 -24.5t-51.5 -34.5l-6 -7q-14 -27 -33 -40q10 -6 27.5 -9.5t38 -6.5t40 -7t33.5 -10q12 -2 40 -4t55.5 -7.5t50 -11.5t29.5 -14l4 -2q8 -2 21 -7t18 -22h2q6 -2 20 -6t29.5 -15.5t27 -29.5t11.5 -49q0 -20 -13 -33l2 -8q2 -6 4.5 -12.5t2.5 -14.5zM791 770 q-14 20 -24.5 19t-16.5 12q0 8 -9.5 14t-24 9t-28.5 5t-24 2q-6 0 -11 3l-10 4q-18 6 -26.5 9t-12.5 9q-10 0 -14 -4t-10 -4t-33 7t-55 7v-2q2 -2 2 -6q0 -14 -17 -20l-31 -7q-74 -14 -135 -47q-8 -12 -19 -16t-22 -6l-6 -2q0 -20 -14 -32.5t-32.5 -23t-35 -18.5t-20.5 -18 l4 -2q16 -25 24.5 -22t16.5 -9q20 -20 39.5 -26.5t54.5 -6.5l12 -2l78 -25l2 -2q6 0 9.5 -1t7.5 -1l6 2q8 0 16 -8q8 6 20.5 11.5t30.5 5.5l31 14q25 10 53.5 23.5t55 25.5t48 20.5t29.5 8.5q6 20 19.5 32.5t28 21.5t27.5 17.5t20 22.5z" />
<glyph unicode="&#xa8;" horiz-adv-x="917" d="M956 1137q4 -16 5 -21q0 -12 -5.5 -26.5t-12.5 -28.5t-15 -23.5t-13 -9.5q-2 0 -11 -8t-21.5 -17.5t-28.5 -16.5t-33 -7q-27 4 -38 12t-25 8h-4q-8 0 -13.5 7.5t-5.5 15.5v4q0 10 -8 26.5t-8 37.5q0 -2 7 19t22.5 47t39 48.5t54.5 22.5q10 0 15 -5t15 -5q4 4 15 4 q2 0 9 -1t15.5 -6.5t15.5 -16.5t7 -30q0 -12 3 -15t7 -4t7 -2t5 -9zM549 1137q4 -12 4 -21q0 -12 -5 -26.5t-12.5 -28.5t-15.5 -23.5t-12 -9.5q-2 0 -11.5 -8t-21.5 -17.5t-28.5 -16.5t-32.5 -7l-68 20q-8 0 -13 7.5t-5 15.5v4q0 10 -8.5 26.5t-8.5 37.5q0 -4 6.5 16 t20.5 47t37.5 50.5t58.5 23.5q10 0 15.5 -5t15.5 -5q4 4 14 4q12 -2 23 -9q10 -4 17 -15t7 -30q0 -10 2 -14t6.5 -5t7.5 -3t7 -8z" />
<glyph unicode="&#xaa;" horiz-adv-x="661" d="M690 723q-4 -18 -18.5 -28.5t-22.5 -26.5q2 4 -5 -9.5t-17 -15.5l2 2q-8 -8 -17 -14q-14 -14 -14 -17q-10 -16 -31.5 -29.5t-21.5 -23.5l-21 -16q-18 -12 -38.5 -28.5t-42 -30t-41 -23.5t-37.5 -10q-16 0 -26.5 12t-17 30.5t-8.5 38t-2 33.5q0 20 2 40t9 36v6 q0 16 6 22.5t10 14.5l-4 4l-12 -16q-4 -4 -6.5 -7t-4.5 -5q-2 -4 -4 -5h-4q-10 -20 -33 -26l-2 -15q-2 -4 -4 -5l-8 -4t-14.5 -9t-22.5 -20v-7q0 -10 -12 -19t-17 -9q-12 -2 -19 -13.5t-26 -17.5q-2 -4 -13 -15.5t-50 -11.5q-18 0 -29 4q-8 0 -15 11.5t-13.5 27t-9.5 29.5 t-3 23q0 16 7.5 36.5t17.5 41t20.5 36t14.5 19.5l24 39q6 6 10 6h5q2 25 19 42t24 17l6 9q6 8 15 19t17.5 19t10.5 8h2q8 0 17 11.5t26 15.5q14 18 34.5 35.5t43.5 28.5q10 6 20 14q10 4 21.5 9t21.5 5q10 14 29.5 15.5t36.5 5.5l12 -2q12 0 23.5 -8.5t21.5 -19.5 t16.5 -23.5t6.5 -20.5t-3.5 -15.5t-13.5 -7.5h-8q-16 0 -41 -1t-35 -9q16 0 38 -21.5t22 -49.5q0 -6 -10.5 -17.5t-16.5 -11.5l-4 2q4 -4 4 -10q-2 -8 -15.5 -32t-21.5 -38q-20 -31 -27.5 -60.5t-15.5 -62.5l-8 -22q0 -2 1 -4.5t1 -8.5q10 0 28.5 10.5t26.5 14.5 q-2 -2 23.5 11t50.5 30q31 25 51.5 36t40.5 27q10 10 30.5 26.5t37.5 16.5l12 -2q8 -4 8 -12v-4zM410 881q12 12 12 18l-2 2l-47 -20q-55 -23 -97.5 -56.5t-72.5 -66.5l-2 -6l-103 -119q0 4 -1 -11.5t-11 -15.5q0 -6 4 -7t8 -1q16 0 29.5 14.5t36.5 18.5q16 8 24.5 18 t28.5 17q35 33 70 71.5t67 73.5q0 -2 5.5 6t12.5 17.5t13 17.5l6 8h2h2q2 0 3 1t3 1v10q0 2 2 2q3 1 7 7z" />
<glyph unicode="&#xab;" horiz-adv-x="905" d="M993 1174q-4 -18 -26 -23q-6 0 -13 6q-2 -2 -12 -8t-24.5 -14.5t-29 -16.5t-22.5 -10q-12 0 -18 -8t-10 -17.5t-10.5 -17.5t-20.5 -8q-2 0 -15.5 -11.5t-31 -24.5t-33.5 -24.5t-22 -11.5q-27 -39 -64 -65.5t-47 -55.5q0 -12 -13.5 -23.5t-29.5 -22.5t-29.5 -22.5 t-13.5 -19.5q0 -4 5 -12t9 -16l2 -5l-2 2q16 -14 17 -40q0 -27 20 -66q16 -14 31 -29q10 -14 20.5 -30.5t10.5 -34.5q0 -2 -2.5 -4t-2.5 -6q8 -14 17 -29q6 -12 11 -26.5t5 -24.5q0 -4 -1 -6.5t-1 -4.5q0 -6 7.5 -13t16.5 -15t17 -18.5t8 -24.5q0 -18 -9 -42t-23.5 -44.5 t-33 -34.5t-36.5 -14t-31.5 30.5t-23.5 77.5q-14 29 -27.5 55.5t-26.5 53.5l-55 127v8q-31 63 -53.5 95t-22.5 69q0 4 -11 13t-11 26q0 20 16.5 36.5t22.5 20.5v-2q6 6 15 20.5t34 22.5q2 0 6 1t4 3l-2 8q0 10 13.5 22.5t29.5 25t29.5 21.5t15.5 11l4 4l96 82q6 6 13 6 q6 0 10 -4q2 2 5 6t7 6q4 16 13.5 24.5t18.5 13.5t18.5 9.5t13.5 12.5q8 14 20.5 21t23.5 12.5t21.5 10.5t14.5 15q0 4 14 17.5t32.5 27t35 23.5t20.5 10l21 -2q8 4 14 4t18 -4q-4 0 3.5 -6t15.5 -19.5t16 -32t8 -40.5v-6zM653 1217q0 -16 -10 -19.5t-18 -11.5q0 2 2 2 q-8 -6 -23 -19q-14 -10 -36.5 -27.5t-63.5 -43.5h-4q-8 0 -11.5 -5.5t-8.5 -12.5t-12 -14t-26 -11q-6 -10 -16 -21.5t-20.5 -22t-20.5 -17.5t-14 -7q-29 -41 -65 -66.5t-46 -54.5q0 -12 -13.5 -23.5t-29.5 -22.5t-29.5 -22.5t-13.5 -21.5q0 -4 5 -11t9 -15l5 -5q-2 0 -3 3 q12 -16 13 -35q0 -16 8 -23q6 -6 18.5 -42t32.5 -62q-4 2 10.5 -8.5t14.5 -30.5l-4 -8q0 2 16 -25t16 -57l-2 -13q0 -6 7.5 -12t16.5 -14t17 -18.5t8 -24.5q0 -20 -8 -44t-22.5 -44.5t-33.5 -33.5t-40 -13q-10 0 -21.5 20.5t-24.5 53t-28.5 70.5t-31.5 73l-25 51q-2 4 -2 12 l-29 66v6q-31 53 -53.5 92t-22.5 74q-4 4 -13 12t-9 25q0 20 16.5 35.5t24.5 19.5h-2q8 8 17 21.5t32 19.5q2 0 6 2t4 4v6q0 10 13.5 23.5t30 26t30.5 22.5t16 14l97 82q6 6 12 6t10 -4q4 0 11.5 8.5t15.5 17.5t14 17t10 10q2 0 16.5 10.5t31 24t29.5 26.5t18 21 q0 2 15 16.5t34.5 31t37 29.5t23.5 13h10q6 0 11 -2q8 4 16 4q10 0 16 -4l-4 2q2 -2 23.5 -16t21.5 -51q0 -10 -2 -14z" />
<glyph unicode="&#xad;" horiz-adv-x="788" d="M799 801q0 -2 2 -4q0 -6 -6 -13q-4 -6 -12.5 -20t-23 -28.5t-36 -26t-51.5 -11.5q-8 0 -13.5 5.5t-9.5 5.5q-6 0 -18.5 -7.5t-30.5 -7.5q-14 0 -31 8q-8 -4 -10 -4l-8 2q-6 -2 -19 -2l-38 4q-10 0 -13.5 -7t-13.5 -7l-6 2h-19q-20 0 -30 8q-16 -2 -37 -2h-39h-131 q-10 -6 -21.5 -7t-21.5 -1l-12 2l-5 -2q-4 0 -6 2q-8 -4 -14 -4l-8 2l-58 -4q-23 0 -41 7t-18 28l2 14q2 10 5 26.5t11.5 33t19.5 27.5t28 11h14q8 0 14 -6q16 -2 35 -2h39h41q20 0 43 -2q0 6 6 8t10 2l56 -10q29 0 57.5 6.5t62.5 6.5q12 0 25.5 -1.5t24.5 -7.5q2 6 12 6h12 q12 0 34.5 -5t39.5 -5q16 0 23.5 6.5t15.5 6.5q6 0 10 -5l6 2q6 0 10 -4q8 4 13 4l28 -2l60 5q12 0 22.5 -2.5t14.5 -14.5l4 -16v0z" />
<glyph unicode="&#xae;" horiz-adv-x="1105" d="M1155 907q-6 -12 -6 -18q0 -10 4 -22.5t4 -30.5q0 -12 -4 -24.5t-20 -25.5q-6 -68 -37 -129v-8q0 -12 -5.5 -19t-12.5 -13.5t-12 -14.5t-5 -20q-23 -25 -37 -47.5t-27.5 -45t-31 -48t-45.5 -54.5q-12 0 -18.5 -5t-10.5 -11l-2 -4q-10 -10 -21.5 -19.5t-29.5 -9.5h-4v-31 q6 -12 23 -34.5t17 -39.5q-4 -10 -16 -25t-29 -15q-16 0 -30.5 18t-24.5 22q-20 -14 -33 -18q-18 -49 -63 -74.5t-94 -42.5l-21 -20q-14 -14 -29.5 -27.5t-62.5 -32.5v2q-4 -4 -15.5 -5t-11.5 -7q-10 -14 -21 -18t-20.5 -7t-15.5 -6.5t-8 -15.5l-51 -14q-6 -4 -22.5 -10.5 t-35.5 -6.5q-16 0 -22 4q-18 -10 -45 -10q-47 0 -88 30t-71 79t-47 109.5t-17 121.5q0 82 30 154q10 66 28.5 107.5t43.5 88.5l20 39q6 37 24.5 62.5t42.5 49t44 48.5t31 59q20 12 30 27l-2 -2q10 18 34 32.5t49.5 30t50 36t36.5 48.5q16 4 25.5 11.5t15.5 15.5l9 14 q12 14 23 23.5t34 15.5q8 12 19.5 19.5t23.5 13.5t23.5 13.5t23.5 23.5l8 2q33 18 74 35.5t88 17.5h18l39 -22q0 -2 31 -18.5t61 -24.5q43 -4 79 -31t59 -68q25 -12 32 -32.5t9 -43t4 -43t12 -32.5zM621 305q25 4 36 21.5t25 31.5q-4 4 -12 17.5t-16.5 27t-14.5 25.5l-6 12 l2 11q-4 29 -24.5 53t-28.5 41q-4 -4 -11.5 -5t-13.5 -1q6 0 6 4q-33 -16 -52 -23.5t-30.5 -13.5t-15.5 -12.5t-4 -16.5v-12q0 -10 -3 -16.5t-8.5 -12.5t-10.5 -14t-11 -23q-4 -8 -14 -18h2q-2 -10 -7.5 -20.5t-11.5 -20.5v2q-8 -20 -8 -23q0 2 -3 -9t-7 -24.5t-9 -24.5 t-10 -11h-2v-17q0 -16 -20.5 -27t-34.5 -16h-2q-2 0 -4 -2q-18 16 -31.5 39t-13.5 45q4 14 14 39t22.5 48.5t25 44t20.5 30.5v6q0 2 1 4t1 5q0 2 2 4l10 22q4 12 4 14q0 10 -8 18.5t-8 24.5v3q6 27 29 28v8q23 0 43 20.5t35.5 45.5t25.5 46.5t12 25.5l11 10q12 16 29.5 44 t39.5 81q-18 -6 -29.5 -14.5t-39.5 -8.5l-5 -2q-10 -8 -28.5 -21.5t-39 -26.5t-35.5 -22.5t-17 -9.5v-8q0 -31 -27 -31q-10 0 -21.5 9.5t-21.5 19.5q-12 -16 -24.5 -50t-22.5 -50q-2 -31 -20.5 -52.5t-32.5 -50.5q0 -12 -11.5 -35.5t-25 -53t-24.5 -61.5t-11 -61 q0 -39 18 -77q-8 -10 -10 -18.5t-2 -12.5q0 -6 11.5 -13.5t26.5 -13.5t30.5 -13t25.5 -15q4 2 11 2h10h8t8 -2q23 10 42.5 12t39.5 4q47 4 98.5 23.5t92.5 50.5l53 26q6 8 10 15.5t10 13.5zM907 788q0 -41 -30.5 -72.5t-67.5 -58t-67.5 -49t-30.5 -43.5v4q2 -4 4 -11t2 -11 l-2 -25q4 -8 16 -24.5t14 -51.5h9q0 -10 4 -22l20 20q20 20 41 40t37 55h14q23 37 50.5 87t51 102t40 102.5t16.5 87.5v8q-2 20 -16.5 41.5t-34 41t-41 36t-39.5 28.5q-16 -6 -31 -6q-18 0 -28 4l-17 -2q-55 0 -110.5 -18.5t-92.5 -69.5q-8 10 -8 20q0 -2 -21.5 -12 t-31.5 -33v2q-4 -8 -7 -15t-7 -17q33 14 59 14l10 -4q10 4 30 6t42.5 3t44 2t35.5 1l10 -10h10q35 0 58.5 -13.5t38 -34t20.5 -46t6 -47.5v-9zM686 856h-4l2 -33q0 -4 -10 -14t-21 -23l-30 -30q-6 -4 -11.5 -22.5t-15.5 -28.5q-4 -23 -28.5 -43.5t-37.5 -45.5q12 6 31 7 q4 2 14.5 7t20.5 10t18 10l9 5q35 23 67.5 39.5t54.5 40.5q16 8 29 19q10 10 19.5 22t9.5 33zM616 934q2 0 7 -4z" />
<glyph unicode="&#xb0;" horiz-adv-x="636" d="M600 987q10 -20 10 -43t-5 -47.5t-13 -46.5q0 -4 -1 -8t-1 -6q-29 -16 -47.5 -36t-34.5 -42q-20 -23 -39.5 -44.5t-54.5 -33.5q-4 0 -6 -3t-9 -7q-10 -8 -24.5 -14.5t-38.5 -6.5q-16 20 -41 21l-62 -4q-27 0 -47 9t-34 36h-27l-2 28q-4 18 -8 42t-4 48q0 23 6 45.5 t22 38.5l11 19q16 31 37.5 55.5t68.5 28.5q35 29 82 53.5t100 24.5q18 0 38 -3.5t44 -13.5q4 -4 9.5 -8t15.5 -12l6 -4q16 -10 30.5 -24.5t20.5 -43.5zM434 942q0 10 -12 13t-29 3q-25 0 -39 -6q-23 -12 -45 -38.5t-33 -59.5q10 -20 37 -31q2 -4 5.5 -5t7.5 -5l6 -6h6 q6 0 12 2q4 2 10 2t11 2l-2 -2q10 4 17 6t17 4q8 6 25 10h2q14 14 19 29z" />
<glyph unicode="&#xb1;" horiz-adv-x="1024" d="M1049 889q-2 -35 -21.5 -53.5t-36.5 -28.5q-8 -6 -15 -14.5t-20.5 -16.5t-36 -14t-61.5 -6q-35 0 -63 14q-20 -8 -55 -14t-76 -6h-25q-10 0 -23 2l-10 -9q-20 -23 -33.5 -42t-17.5 -50q-35 -96 -56.5 -132t-33.5 -44q8 -8 8 -22t-7 -26.5t-13 -23.5l-4 -4q0 -10 -8.5 -17 t-19.5 -13.5t-21.5 -9.5t-16.5 -5q-14 -4 -21.5 -8t-13.5 -9t-12 -8t-19 -3q-27 0 -34 19.5t-9 35.5q0 12 6.5 32.5t15.5 42t21.5 43t24.5 33.5v23q0 6 4 10l4 8q29 35 47.5 67t26.5 79q0 6 3 11t5 7l-6 4q-2 2 -8 2l-244 -18q-14 0 -32.5 1t-36 4t-28.5 10.5t-11 17.5 q6 49 40.5 86t88.5 37l38 -9q10 0 29 1t51 6h4q10 0 19 -9h4q14 0 27.5 5.5t29.5 5.5l80 -7q18 0 31 7l-2 2v6q0 16 15.5 39.5t19.5 27.5q12 16 20 39t17.5 48.5t20.5 51t28 46.5q0 2 2 13t8 23.5t17.5 21.5t27.5 9h2q4 8 19.5 18.5t33.5 10.5l11 4q6 0 14 -1t20 -5 q6 2 17 2l4 -2l6 2q20 0 23.5 -17.5t3.5 -21.5q0 -12 -7.5 -24.5t-16.5 -23.5t-18.5 -19.5t-11.5 -8.5v-2q2 -4 2 -12q0 -12 -8 -23q-33 -47 -56.5 -93t-47.5 -95q6 -2 20 -2q18 0 40 4t46 4q14 0 23 -2h2q18 0 43 -10l180 16q2 0 4 2q6 0 12.5 -8t6.5 -12zM670 229 q-10 -16 -33 -27.5t-46.5 -18.5t-44 -10t-26.5 -3q-2 0 -10 4q-12 -4 -30.5 -7t-38 -6t-35 -4t-21.5 -1l-27 2q0 2 -2 2q-6 -2 -20 -2l-4 2h-4q-8 0 -15 6l-2 -2l-4 2q-8 -4 -14 -4q-8 0 -14.5 2t-10.5 2q-8 -4 -12 -4h-8q-16 0 -28.5 -6t-35.5 -6q-14 0 -24 2 q-12 -4 -19 -5l-8 3l-51 2q-16 0 -30.5 -2.5t-28.5 -10.5q-27 0 -35 10.5t-8 22.5q0 8 2 14.5t2 10.5q10 25 20 47q10 16 23.5 31.5t29.5 15.5h129q6 0 9 -2q2 2 6 2h51q2 0 10 -4q8 4 17 4h16l131 -10q10 0 14 3t13 7h155q8 0 13 -4q10 4 18 6t12 2q14 0 21.5 -12.5 t7.5 -22.5q0 -15 -10 -31z" />
<glyph unicode="&#xb2;" horiz-adv-x="1024" d="M682 1135q0 -29 -8 -48q-4 -20 -8 -28q0 -6 -3.5 -18.5t-7.5 -18.5q0 -6 -14 -17.5t-18 -33.5q-2 -6 -11 -8q-8 -6 -9 -11.5t-7 -11.5q-20 -18 -37.5 -35.5t-32.5 -46.5q-4 -6 -12 -6h-6q-10 0 -16.5 -16.5t-26.5 -20.5q-6 -10 -16.5 -19.5t-16.5 -19.5q0 -6 -5 -8t-9 -6 q-6 -4 -10.5 -8t-8.5 -6q-16 -12 -30.5 -27.5t-30.5 -32.5l-16 -10q-10 -4 -13.5 -9t-13.5 -14q-4 -4 -6 -4q-18 -12 -30.5 -26.5t-29.5 -30.5q-10 -10 -25.5 -9t-19.5 -10q-2 -2 -8 -6q-6 -2 -14 -17t-27 -17l-10 -11q4 -4 18 -4l41 2q10 0 17 -6l164 6l41 -6 q39 0 67.5 12.5t63.5 12.5h10l16 6l2 -2q0 -2 2 -2q2 -2 2 -4q0 -8 -4 -21.5t-10 -28t-13 -26.5t-14 -19q-2 -4 -6 -6t-6 -8q-4 -4 -12 -4q-6 0 -8 2q-4 -2 -9 -2h-8q-4 -4 -7 -12t-13 -8q-4 0 -12.5 5t-14.5 9q-12 -8 -22 -8l-35 6l-25 -8l-24 6q-6 -4 -23 -4l-78 -9h-14 t-16 3q-6 -2 -15 -3h-20q-6 0 -9.5 -2t-13.5 -2q-12 0 -25.5 -4t-23.5 -4q-16 0 -50 -4t-46 -4l-47 2q-8 0 -11 2q-29 8 -36 25.5t-7 42.5q0 29 10.5 57.5t26.5 48.5q2 8 13 8h8q10 10 22.5 15.5t16.5 17.5q2 6 6 6q6 2 12 2q16 0 30.5 10.5t30 21.5t32 21.5t34.5 10.5h2 q6 8 28.5 26.5t47.5 37t46.5 31.5t25.5 13q10 2 18 14.5t25 20.5q6 2 20 13.5t28.5 23.5t27 24.5l18.5 18.5q4 6 19.5 19.5t21.5 15.5q2 4 7 8t9 8q14 10 23.5 26.5t25.5 26.5q6 6 23 19q16 10 14 14t4 15q0 2 2 2q10 12 17 34q-12 14 -31 15l-39 -2q-6 0 -12 2h-6 q-16 0 -26.5 -7.5t-14.5 -7.5l-82 -14q-8 0 -11.5 -2t-7.5 -4q-8 -4 -10 -4q-10 -4 -31.5 -16.5t-27.5 -14.5l-6 -2q-18 -8 -29.5 -16t-26.5 -25q-2 0 -2 -2t-4 -2l-51 -37q-4 -4 -8 -15t-9.5 -21.5t-9.5 -18.5t-10 -8q-23 0 -35 12t-12 31v14t2 20.5t3 19.5t5 11 q4 53 38 81t75 56q10 2 20 9q20 8 29 16q6 4 13 8t18 8q12 0 14 2l16 5q6 6 25 6h14q2 0 3 1t6 1q16 10 31.5 16t31.5 8q25 2 51.5 1t48.5 3l13 2q6 0 11 -1t11 -3h12q18 0 41 -5t39 -11q10 0 11 -12l6 -6q6 -8 8 -19.5t2 -21.5z" />
<glyph unicode="&#xb3;" horiz-adv-x="757" d="M774 1198q-8 -16 -13 -35.5t-11.5 -39t-16.5 -38t-28 -32.5l-21 -17q-4 -4 -8 -4h-6q-16 0 -35 -11t-51 -20q2 -4 12 -8t21.5 -10t21.5 -14t12 -21l2 -2q0 -2 2 -4q10 -20 20.5 -44t10.5 -50q0 -10 -2 -21.5t-10 -21.5q-10 -16 -13.5 -43t-35.5 -53q-10 -10 -18.5 -33 t-31.5 -31l-8 -8q-12 -10 -26.5 -30.5t-22.5 -22.5q-33 -6 -58.5 -15.5t-45.5 -19.5q-12 -6 -25.5 -10t-23.5 -13q-6 -6 -23.5 -8t-30.5 -14q-16 -14 -34.5 -18.5t-38 -6.5t-38 -3t-32.5 -9l-49 -8q-18 10 -37 10q-12 0 -24.5 -3t-30.5 -3t-30.5 13t-12.5 38l12 64l-2 8 q0 -2 2 4t8 15t17.5 17.5t29.5 8.5q10 0 17 -8q6 -10 31.5 -9.5t41.5 -9.5q10 4 25.5 5t26.5 1q8 0 12 -2q6 2 16 2h15l14 6q10 0 10 -4t8 -4q4 0 10.5 4t16.5 4l14 -2q18 0 25.5 9.5t15.5 9.5h8q12 0 24.5 14.5t35.5 14.5h8q16 4 25.5 12t16.5 16t17.5 15.5t30.5 11.5 q10 10 31.5 33.5t38.5 31.5q6 4 8 15.5t2 15.5q0 6 -7 13.5t-11 11.5q-10 10 -15 10q-4 0 -16 6q-18 16 -46 23.5t-52 7.5h-15q-8 0 -12 4l-6 -2l-6 2q-8 -4 -19 -4q-8 0 -23.5 1t-19.5 3q-16 -4 -30.5 -8t-30.5 -4t-21.5 13t-5.5 21q0 14 3 25.5t3 21.5q0 4 -1 6.5t-1 4.5 q2 25 18.5 38t43 20t57.5 11t61 11q14 27 54 26q10 0 18 10.5t25 10.5q4 0 8 -1t8 -1q2 0 10 5t16.5 12t16.5 13t10 6q16 2 36 13.5t20 21.5t-29 13l-19 -2q-12 0 -26 5t-31 5h-69q-4 -4 -20.5 -6t-20.5 -2h-13q-16 0 -46 -11.5t-64 -19.5q-4 0 -7.5 -1t-5.5 -1l-2 -2 l-32 -17q0 -2 -2 -2h-3q-20 0 -26 22.5t-6 35.5q0 10 1 21t3 14q25 47 68.5 61t78.5 18l35 2q8 0 12 -2q4 4 15 4l4 -2l24 2q20 0 37 -6q16 4 25 4q12 0 25.5 -4t29.5 -4l35 6q6 0 8 -2l10 -2q16 0 38 -7t40.5 -19.5t30.5 -28.5t12 -35z" />
<glyph unicode="&#xb4;" horiz-adv-x="917" d="M999 1212q0 -68 -26.5 -97.5t-67.5 -49.5q-18 -10 -35.5 -25.5t-36 -30t-42 -24.5t-56.5 -10q-8 -10 -25.5 -19.5t-37 -18.5t-37 -14t-25.5 -5q-16 0 -29.5 13t-13.5 27t8.5 23.5t20.5 18t27.5 19.5t29.5 30q10 14 24.5 23t28 18.5t24.5 20.5t18 30q0 4 6 8 q20 16 42.5 44t44 53.5t41 45t33.5 19.5q29 -4 56.5 -31t27.5 -53v-15z" />
<glyph unicode="&#xb5;" horiz-adv-x="1443" d="M1556 248q0 -23 -13 -44.5t-31.5 -41t-39 -38t-34.5 -36.5q-6 -12 -16.5 -19.5t-25 -15.5t-34 -21.5t-45.5 -39.5q2 2 -5 -3t-17.5 -13.5t-20.5 -16.5t-14 -12h-3q-23 -14 -63.5 -31.5t-83.5 -17.5q-35 0 -58.5 18t-38 47t-20.5 63.5t-6 69.5q0 37 9.5 72t21.5 67.5 t24.5 62.5t18.5 56q0 2 -4 2q-8 0 -24.5 -20.5t-35 -45t-35 -47t-24.5 -26.5q-12 -16 -20.5 -25.5t-16.5 -18.5t-18.5 -19.5l-28.5 -28.5q-6 -6 -26.5 -21.5t-44 -31t-41.5 -28.5l-19 -13q0 -4 -11.5 -14.5t-29.5 -22.5t-42 -21.5t-48 -9.5q-27 0 -44.5 21.5t-33.5 70.5 q-29 -47 -56.5 -92t-56.5 -82q-20 -2 -39.5 -16.5t-40 -30.5t-41 -29.5t-40.5 -13.5h-21v-6q-23 10 -51.5 8t-50.5 8q2 0 6 4q-53 33 -84 84.5t-41 112.5l12 76q39 -4 55.5 -31t25.5 -56.5t21.5 -54t43.5 -24.5q80 0 140 37t105 91t78 115.5t56 110.5l12 27q-2 4 -2 10 q0 8 5 14.5t9 12.5q14 18 24.5 39.5t18.5 43t18.5 43t26.5 40.5v2q4 12 20.5 42.5t36 63.5t39 57.5t31.5 24.5h4l-2 10q0 14 8.5 31.5t18.5 22.5l4 2q2 14 12 28.5t22.5 25.5t24 18t17.5 7q35 -4 67.5 -28.5t32.5 -69.5q0 -8 -3 -12t-3 -16q0 -10 -8 -24.5t-19.5 -30 t-25 -31t-21.5 -23.5l-16 -16q-27 -25 -43.5 -45.5t-30.5 -57.5q-4 -10 -17.5 -17t-23.5 -30q-6 -12 -18.5 -29.5t-26.5 -37t-24.5 -39t-10.5 -35.5l-2 -2q-16 -23 -29.5 -47.5t-17.5 -53.5h4q16 0 42 13.5t53.5 34t52 41t41.5 36.5l14 11q68 51 127 100t125 125 q20 23 42.5 40t35.5 36l24 26q8 8 21.5 24.5l27 33t26.5 27.5t19 11q27 0 43.5 -16t25.5 -36.5t11 -39t2 -20.5q0 -6 -2 -10q-14 -31 -34.5 -59.5t-42 -56.5t-40 -55.5t-26.5 -56.5q-6 -18 -20.5 -31.5t-14.5 -17.5q0 -2 1 -3t1 -5q0 -10 -2 -12t-5 -4.5t-8 -7.5t-13 -19 l-5 -8v-6q0 -8 -7 -14.5t-7 -10.5q2 -2 2 -6q0 -12 -12 -19v-2q0 -4 -5 -18t-11.5 -31.5t-11.5 -37t-5 -33.5q0 -4 1 -7.5t1 -7.5q6 2 14 2h13q8 0 10 -2l37 4l16 4q18 8 39 17.5t31 17.5q4 4 20.5 12.5t73.5 26.5v2q10 10 37 23.5t47 31.5l8 5q0 10 9.5 13t15.5 3 q0 6 11 15.5t30 9.5q4 0 17 -4t13 -27z" />
<glyph unicode="&#xb6;" horiz-adv-x="1251" d="M1311 1382q-10 -18 -29.5 -32.5t-42.5 -22.5q-4 -14 -15.5 -19t-21.5 -5l-18 2q-16 0 -19.5 -7.5t-15.5 -7.5l-14 2q-10 0 -22.5 -15t-25 -39t-23.5 -50.5t-20 -46.5q-4 -4 -4 -8q-20 -47 -47.5 -96.5t-62.5 -84.5q0 -16 -8.5 -37.5t-19.5 -42t-19.5 -37t-8.5 -22.5 q0 -4 -16 -30.5t-27 -53.5q-8 -25 -21 -51.5t-26.5 -53t-23.5 -51t-12 -49.5q0 -4 -23 -46t-57 -77l16 5q-6 -8 -7 -20.5t-3 -25t-8.5 -25.5t-20.5 -22q-25 -59 -53.5 -117.5t-63.5 -107.5q0 -33 -11 -60.5t-25 -56.5l-7 -10q-2 -4 -5 -20.5t-8 -37t-15.5 -35.5t-28.5 -15 q-16 0 -28.5 12t-20.5 28.5t-13.5 36t-5.5 31.5q0 14 5 19l10 12q10 10 17 20.5t7 18.5l-4 16l2 6q12 31 24.5 69t28 78t34 81t42.5 75q29 96 78 188.5t88 184.5q6 25 18.5 50.5t26 49t23.5 45t14 37.5v-2l3 11q3 10 9.5 24t15.5 31.5t21 30.5q2 23 13.5 41t23.5 32.5 t22.5 25.5t10.5 19v9q0 8 3 10t9 8l2 2q0 6 2 8q12 33 20.5 49.5t8.5 38.5v17q0 10 -2 20l-6 -4q-18 -10 -39 -18.5t-33 -8.5v-4q-4 -16 -13 -30.5t-20 -28.5q-16 -27 -28.5 -54.5t-30.5 -45.5q-14 -14 -17.5 -33t-13.5 -25q-4 -2 -6 -8t-3 -14t-5 -15.5t-14 -13.5h2 q0 -8 -20.5 -51t-55.5 -96q-10 -16 -23.5 -39t-29.5 -76t-41 -105.5t-47 -91.5q-10 -18 -19.5 -40.5t-13.5 -26.5q-16 -16 -25.5 -40t-17.5 -48.5t-17.5 -49t-23.5 -43.5l-15 -30q-10 -18 -18 -37t-16 -41q-4 -41 -21.5 -65.5t-34.5 -59.5v-6q0 -29 -14 -42t-14 -34v-2 q0 -8 -7.5 -26.5t-14.5 -37t-14 -34t-9 -15.5l-2 -6q-2 -14 -11.5 -37.5t-42.5 -23.5q-31 0 -36 23.5t-5 45.5l23 142v16q0 6 6 15.5t10 17.5v10q0 16 7.5 34.5t17.5 35.5q10 20 24 39q0 35 13.5 64.5t29 55t28.5 51t13 52.5q0 10 -2 14q0 18 8.5 32.5t18.5 27t18.5 25 t8.5 26.5l-2 10q0 8 2 12l-111 4q-25 0 -38 7.5t-22.5 15.5t-15.5 15.5t-16 7.5q-59 29 -89 101.5t-30 149.5q0 104 47 187.5t107 152.5q16 18 38.5 31.5t34.5 30.5q39 51 84 69.5t105 32.5l12 2q27 14 58.5 20.5t64.5 10.5q47 6 79 16.5t73 10.5q33 0 46 16t35 16 q14 0 25 -12q16 0 29.5 1t23.5 3q12 2 25 6q10 0 22.5 -5t26.5 -5q16 0 30.5 5t24.5 5h23q12 0 26.5 -3t18.5 -3q6 6 14 6h17q6 0 12 -5t10 -5t6 1t6 1h13q8 0 16 -2q27 0 55.5 6t49.5 6q8 0 14 -6q-2 0 -4 -2h6q10 0 24.5 -4t14.5 -20q0 -7 -4 -11z" />
<glyph unicode="&#xb7;" horiz-adv-x="466" d="M240 575q4 -16 4 -20q0 -10 -5.5 -24.5t-11.5 -29t-14 -24.5t-14 -12q-4 0 -12.5 -7t-20.5 -16.5t-27.5 -16.5t-34.5 -7q-23 8 -42 13t-32.5 14.5t-21.5 29t-8 53.5q0 6 6 24.5t20.5 40t38 41t60.5 28.5q8 -6 16 -7h6q2 0 3 2l6 -2q12 4 18 4q23 0 33 -19t10 -36 q0 -10 3 -13t6 -4t7.5 -3.5t6.5 -8.5z" />
<glyph unicode="&#xb8;" horiz-adv-x="1024" d="M389 -4l-11 -7t-25.5 -17.5t-28 -18.5t-15.5 -8q-14 -8 -26 -19q-10 -10 -21.5 -22.5t-15.5 -28.5q35 -10 65.5 -32.5t30.5 -43.5q0 -37 -15.5 -53t-25.5 -27q-12 -27 -35.5 -47t-50.5 -34.5t-55.5 -21.5t-53.5 -7q-23 0 -49 5t-26 28q0 10 4 16t4 4q0 14 11 22.5 t26.5 11.5t31 4t21.5 1h27q16 0 26.5 6t26.5 25q0 16 -31 23t-53 7l-39 -2q-10 0 -16.5 11.5t-6.5 21.5q0 14 8.5 24.5t14.5 18.5q0 -2 24.5 21.5t47.5 68.5l-4 2q0 2 18 11.5t41 19.5t41 21.5t18 17.5q0 4 -2 4l-2 2q0 4 15 4q12 0 30.5 -2t34.5 -4q21 -4 41 -6z" />
<glyph unicode="&#xb9;" horiz-adv-x="675" d="M575 1184q0 -4 8.5 -13.5t8.5 -21.5q0 -4 -4 -12q-14 -14 -17.5 -33t-21.5 -29q-6 -16 -15.5 -27.5t-19.5 -23.5q-4 -16 -16 -23q-4 -10 -10.5 -21t-12.5 -22q-8 -12 -15 -25t-11 -28l-5 -8q-8 -6 -12 -14.5t-10 -16.5q-23 -31 -34 -66.5t-36 -64.5q-10 -25 -23.5 -47 t-29.5 -43l-14 -31q-6 -12 -13.5 -24t-13.5 -23l-37 -63l-7 -17.5t-13 -11.5q-8 -27 -13.5 -53.5t-15.5 -52.5v-19q0 -10 -7 -12t-15 -2q-23 0 -44.5 29.5t-25.5 50.5q-6 6 -6 14l2 25q0 2 7 20.5t11 22.5q6 16 13.5 31.5t21.5 27.5q6 18 16.5 34.5t20.5 33.5q10 14 17 29.5 t18 29.5q4 6 7 14.5t9 14.5q2 10 16.5 30.5t20.5 32.5q4 10 9 18.5t13 14.5q0 10 5.5 16t9.5 13v2q0 16 12 24t12 25q0 4 4 8q6 6 10.5 14.5t8.5 18.5q10 31 24 45q8 20 18.5 38.5t20.5 37.5q8 14 17.5 26.5t15.5 28.5q2 4 2 8v8q-8 -4 -10 -4t-8 -6q-14 -14 -24.5 -20.5 t-28.5 -12.5h-3q-10 -4 -19 -7t-17 -11q-4 -2 -15.5 -7t-17.5 -10q-16 -12 -31 -14q-8 -12 -22.5 -15t-18.5 -11q-2 -6 -12 -14.5t-22.5 -16.5t-24.5 -14.5t-19 -12.5q-2 -2 -10 -8t-10 -6q-10 0 -17.5 12t-11.5 19q-4 8 -5 22t-1 23q0 33 10 53q6 6 11 6q4 4 13 13.5 t17 13.5q2 2 12.5 6t20.5 9t19.5 9t11.5 4q29 4 48 14.5t44 24.5q4 4 6 4l14 -4l27 4q2 4 10 4h2q4 6 8 19q6 8 13 8q14 4 25.5 12.5t27.5 8.5q4 6 15.5 14t17.5 8h2q8 6 13 7t16 1q6 0 14 7.5t16 9.5q10 14 20.5 17t18.5 11q2 6 10 6l8.5 8.5t10.5 4.5q16 0 19 -13.5 t3 -25.5v-15q8 -10 14.5 -19t6.5 -21q0 -6 -2 -15.5t-13 -9.5q-10 0 -21.5 -2t-21.5 -6z" />
<glyph unicode="&#xba;" horiz-adv-x="618" d="M647 946q0 -2 1 -4t1 -8q0 -10 -8 -27.5t-41 -38.5q-12 -8 -21.5 -21t-31.5 -24l2 2q-16 -10 -29 -18q-10 -8 -18 -13.5t-8 -7.5l-19 -38q-8 -16 -13 -28.5t-5 -14.5v-5q0 -2 1 -3t1 -3q0 -6 -8 -10q-6 -4 -9.5 -13t-6.5 -19.5t-9 -19.5t-18 -16q-4 0 -5 -6q0 -6 -2 -12 t-7 -12t-19 -6h-2q-4 -2 -3 -12.5t-10 -10.5h2l-11 -11t-23 -11q-8 -27 -26.5 -34t-29.5 -28q0 -2 -11 -9t-28.5 -15.5t-36 -14.5t-30.5 -6l-31 4q-8 0 -14 6q-41 18 -54.5 52t-19.5 75l-2 6q0 10 4 35t11.5 55.5t19.5 61.5t31 51q2 10 14 24.5t20 26.5q8 16 30 41 t48.5 47.5t53 40t45.5 21.5q12 0 20 9t37 9q23 0 35 -10t19 -25.5t11.5 -31t10.5 -23.5l12 4q27 0 47.5 10.5t71.5 26.5q0 2 15 9.5t30 7.5q4 0 9 -3.5t7 -11.5zM397 764q-16 16 -26.5 36.5t-10.5 37.5q0 23 15 26l2 4l-2 4q-31 -2 -50.5 -19t-54.5 -46q-10 -6 -28.5 -31.5 t-55.5 -62.5q-6 -23 -15 -38.5t-18.5 -28.5t-15.5 -28.5t-6 -37.5q0 -4 13.5 -11.5t25.5 -7.5q25 0 44 10.5t36 26.5q4 2 10 2h2q10 18 21.5 19.5t33.5 25.5l2 4q6 6 18.5 19.5t26 31t23.5 34t10 26.5v4z" />
<glyph unicode="&#xbb;" horiz-adv-x="860" d="M924 774l-6 -10q-7 -10 -18 -23.5t-25.5 -29t-30.5 -23.5q-10 -6 -15.5 -13t-9.5 -15.5t-11 -16.5t-22 -16l-2 -2q-16 -8 -40.5 -35t-60.5 -67t-83 -93t-108 -115q-6 -41 -34 -61.5t-59 -20.5t-55.5 23t-24.5 70q0 6 18.5 27.5t46.5 50t59.5 59.5t58.5 57 q66 53 133 117.5t127 134.5q14 12 14 29q0 23 -16.5 49.5t-18.5 46.5q-10 29 -30.5 60.5t-20.5 54.5l2 6q-4 4 -9 10t-5 16q0 4 4 9q0 4 -4 16t-16 41q-18 4 -25.5 19.5t-9.5 23.5q0 10 -4.5 14t-4.5 11q0 39 25 56t41 34l2 2q6 4 14.5 5t12.5 3h4q4 2 14 2q10 -2 14.5 -9 t6.5 -7l2 -7q12 -31 26.5 -65.5t26.5 -63.5l12 -30q12 -29 20.5 -43.5t8.5 -20.5v-2q8 -29 25.5 -56.5t25.5 -62.5q0 -4 -1 -5t-1 -11l21 -55q4 -6 9 -17.5t5 -25.5q0 -15 -8 -25zM625 776q-10 -14 -36 -40.5t-54 -43.5q-10 -6 -15.5 -13t-9.5 -15.5t-11 -16.5t-22 -16 l-2 -2q-16 -10 -36.5 -28.5t-40 -40l-39 -43t-33.5 -34.5l-23 -20q-8 -12 -22.5 -24.5t-28.5 -22.5t-26.5 -21.5t-18.5 -21.5q0 -8 -10.5 -18.5t-22.5 -20.5t-23.5 -19.5t-15.5 -15.5l-12 -14q-20 -27 -37 -27q-10 0 -25 6h-4q-18 23 -37.5 38t-19.5 54q0 4 4 13 q0 12 22.5 38.5t50 54t54.5 49t37 21.5q66 53 147.5 116t141.5 132q14 14 20 11t6 10q0 10 -27.5 71.5t-62.5 139.5l-20 47q0 16 -6.5 20t-6.5 19q0 10 7 14q-12 4 -18.5 15.5t-10.5 23.5t-6 29q0 39 19.5 54t41.5 38l2 2q10 8 27 8h4q4 2 12 2q12 -4 17 -10q2 -4 4 -6l2 -6 q14 -27 30.5 -64t16.5 -59v-2q6 -4 10 -11l6 -16q2 -2 2 -8q0 -8 -2 -12q12 -35 35 -84.5t31 -81.5q6 -23 20.5 -39.5t14.5 -36.5v-4q2 -4 6 -14.5t4 -22.5q0 -15 -10 -31zM719 1278l-6 -2l4 2h2z" />
<glyph unicode="&#xbc;" horiz-adv-x="1198" d="M496 1184q0 -4 8 -13.5t8 -21.5q0 -4 -4 -12q-14 -14 -17.5 -33t-21.5 -29q-6 -16 -15.5 -27.5t-19.5 -23.5q-4 -16 -16 -23q-4 -10 -10.5 -21t-12.5 -22q-8 -12 -15 -25t-11 -28l-4 -8q-8 -6 -12.5 -14.5t-10.5 -16.5q-23 -31 -34 -66.5t-36 -64.5q-10 -25 -23 -47 t-30 -43l-14 -31q-6 -12 -13.5 -24t-13.5 -23l-37 -63l-7 -17.5t-13 -11.5q-8 -27 -13.5 -53.5t-15.5 -52.5v-19q0 -10 -7 -12t-15 -2q-23 0 -44.5 29.5t-25.5 50.5q-6 6 -6 14l2 25q0 2 7 20.5t11 22.5q6 16 13.5 31.5t21.5 27.5q6 18 16.5 34.5t20.5 33.5q10 14 17.5 29.5 t17.5 29.5q4 6 7 14.5t9 14.5q2 10 16.5 30.5t20.5 32.5q4 10 9 18.5t14 14.5q0 10 5 16t9 13v2q0 16 12.5 24t12.5 25q0 4 4 8q6 6 10 14.5t8 18.5q10 31 25 45q8 20 18 38.5t21 37.5q8 14 17 26.5t15 28.5q2 4 2 8v8q-8 -4 -10 -4t-8 -6q-14 -14 -24.5 -20.5t-28.5 -12.5 h-2q-10 -4 -19.5 -7t-17.5 -11q-4 -2 -15.5 -7t-17.5 -10q-16 -12 -31 -14q-8 -12 -22.5 -15t-18.5 -11q-2 -6 -12 -14.5t-22.5 -16.5t-24.5 -14.5t-19 -12.5q-2 -2 -10 -8t-10 -6q-10 0 -17.5 12t-11.5 19q-4 8 -5 22t-1 23q0 33 10 53q6 6 11 6q4 4 13 13.5t17 13.5 q2 2 12.5 6t20.5 9t19.5 9t11.5 4q29 4 48 14.5t44 24.5q4 4 6 4l15 -4l26 4q2 4 10 4h2q4 6 9 19q6 8 12 8q14 4 25.5 12.5t27.5 8.5q4 6 15.5 14t17.5 8h2q8 6 13 7t16 1q6 0 14 7.5t16 9.5q10 14 20.5 17t18.5 11q2 6 11 6q4 4 8 8.5t10 4.5q16 0 19 -13.5t3 -25.5v-15 q8 -10 14.5 -19t6.5 -21q0 -6 -2 -15.5t-12 -9.5t-21.5 -2t-21.5 -6zM1362 1444q0 -10 -11.5 -24.5t-26.5 -30t-33.5 -31t-30.5 -25.5q-29 -23 -55.5 -57.5t-61.5 -65.5q-12 -10 -25.5 -25.5t-28 -30.5t-24.5 -28.5t-16 -15.5q-25 -12 -42.5 -30.5t-34 -38t-32.5 -40 t-39 -38.5l-24.5 -24.5t-14.5 -16t-9 -13.5l-9 -18q-4 -8 -6 -14l-19 -19q-10 -10 -25.5 -30.5t-32 -41t-29.5 -37t-21 -20.5q-16 -10 -25.5 -23.5t-20 -26.5t-23.5 -27.5t-34 -22.5q-8 -16 -25.5 -46t-35.5 -34q-10 0 -14.5 -14.5t-14.5 -18.5q-10 -2 -20.5 -16.5 t-22.5 -30.5t-28.5 -30.5t-38.5 -18.5q-35 -74 -95.5 -129t-117.5 -121l-7 -6q-10 -12 -23 -24.5t-30 -18.5q-2 -8 -11 -24.5t-19.5 -32t-22.5 -26.5t-21 -11l2 -2q8 -12 9 -21q0 -16 -26 -30.5t-38 -24.5l-8 -4q-4 -4 -10 -4t-8 2l-23.5 -23.5t-40.5 -13.5l-27 4h-10 q-12 0 -30.5 3t-18.5 21q0 25 12.5 48.5t27.5 44t31.5 36t26.5 25.5q20 18 53 59t69 84t67 76t47 33l47 49q41 45 80 87t72 87q20 29 44.5 43.5t43.5 36.5v6q0 10 34.5 44t100.5 112q43 49 101.5 118.5t113.5 143.5q23 12 42 42t52 48l-4 -2q35 29 63.5 73t75.5 72 q27 35 55.5 75t53.5 75l8 10q4 12 15.5 22.5t22.5 16.5t20.5 9t11.5 3l4 -2l59 -2l10 -4q8 4 11 4q14 0 34.5 -14t24.5 -49zM1249 375q0 -14 -9 -29.5t-21.5 -29t-24.5 -22.5t-20 -9q-6 0 -12.5 7t-8.5 11h-14q-4 -4 -13.5 -6t-13.5 -2q-14 0 -24.5 4t-22.5 4l-27 -4h-20 q-12 0 -17.5 -6t-15.5 -8q-2 -23 -15.5 -28t-13.5 -21v-5q-2 -14 -6 -28.5t-8 -26.5q-4 -18 -12 -32.5t-15.5 -29t-13.5 -30.5t-6 -39l-4 -8q-10 -23 -21.5 -26t-11.5 -21q0 -6 -6 -13v-2l-3 -8t-7 -17t-10.5 -17.5t-14.5 -8.5q-16 0 -27.5 12.5t-17.5 29t-9 32.5t-3 27 q0 12 6 29.5t14 34.5t16.5 30.5t14.5 17.5l-4 -6q12 16 18 35.5t23 32.5q4 18 13 31.5t13 31.5v4q2 8 6.5 13.5t6.5 11.5h-10l-66 -15l-76 -6q-2 -4 -12 -5t-23.5 -3t-25.5 -2h-17q-8 -4 -14 -4h-2q-2 0 -4 2h-12q-18 0 -36 -7t-38 -7h-10q-4 0 -6 2h-5q-12 0 -26.5 8 t-14.5 18q0 4 3 7q-6 4 -11.5 27.5t-5.5 33.5q0 16 11.5 35.5t27.5 23.5q2 4 9 10.5t16 12.5q8 8 20 14q23 8 40 23.5t40 25.5q8 18 23.5 22.5t19.5 14.5q4 8 26.5 21.5t28.5 15.5q4 10 12.5 13t15.5 5.5t12 4.5t5 10q0 10 12.5 13t20.5 7q2 2 10.5 8.5t18.5 14.5l20 16 t17 17q2 4 11 10t15 6q10 12 27.5 16.5t34.5 18.5q8 6 26.5 19.5t37 26.5t33.5 23.5t17 10.5h11l49 51q2 0 10 -4q6 6 6 12q0 8 17 8q16 0 33.5 -20.5t17.5 -36.5l-2 -25q0 -8 4 -10t4 -8t-3 -9t-3 -7l4 -25q0 -16 -10 -25q-25 -23 -44.5 -56.5t-27.5 -37.5 q-8 -23 -22.5 -34t-18.5 -29q-6 -6 -4 -6q-25 -29 -33 -65t-37 -58l-2 -13l8 2q4 0 11.5 -4t17.5 -4q23 0 41 7.5t39 7.5l8 -2q4 2 23 2h24q4 0 24.5 -9.5t20.5 -25.5zM1057 653q-10 -4 -20.5 -6t-16.5 -12v2q-4 -10 -12.5 -14.5t-16.5 -8.5l-2 -2q-14 -4 -19 -11t-22 -13 q-12 -2 -22.5 -11.5t-19.5 -19.5t-20.5 -18.5t-25.5 -8.5l-2 2q-4 0 -11 -11t-18 -11h-2q2 0 -26.5 -24.5t-67.5 -43.5q-10 -16 -25.5 -22t-19.5 -10l8 -13q4 4 9 4l16 -2l12 2l51 -4q16 4 25 4q16 0 33.5 -5t34.5 -5q10 0 30 4q10 0 15 -4q8 0 14 4h-2q0 8 6 13 q10 6 16.5 23.5t12.5 39t14 41.5t25 31v6q0 10 5 16t5 13q0 2 6 10t13 19t13.5 23.5t6.5 22.5z" />
<glyph unicode="&#xbd;" horiz-adv-x="1259" d="M496 1184q0 -4 8 -13.5t8 -21.5q0 -4 -4 -12q-14 -14 -17.5 -33t-21.5 -29q-6 -16 -15.5 -27.5t-19.5 -23.5q-4 -16 -16 -23q-4 -10 -10.5 -21t-12.5 -22q-8 -12 -15 -25t-11 -28l-4 -8q-8 -6 -12.5 -14.5t-10.5 -16.5q-23 -31 -34 -66.5t-36 -64.5q-10 -25 -23 -47 t-30 -43l-14 -31q-6 -12 -13.5 -24t-13.5 -23l-37 -63l-7 -17.5t-13 -11.5q-8 -27 -13.5 -53.5t-15.5 -52.5v-19q0 -10 -7 -12t-15 -2q-23 0 -44.5 29.5t-25.5 50.5q-6 6 -6 14l2 25q0 2 7 20.5t11 22.5q6 16 13.5 31.5t21.5 27.5q6 18 16.5 34.5t20.5 33.5q10 14 17.5 29.5 t17.5 29.5q4 6 7 14.5t9 14.5q2 10 16.5 30.5t20.5 32.5q4 10 9 18.5t14 14.5q0 10 5 16t9 13v2q0 16 12.5 24t12.5 25q0 4 4 8q6 6 10 14.5t8 18.5q10 31 25 45q8 20 18 38.5t21 37.5q8 14 17 26.5t15 28.5q2 4 2 8v8q-8 -4 -10 -4t-8 -6q-14 -14 -24.5 -20.5t-28.5 -12.5 h-2q-10 -4 -19.5 -7t-17.5 -11q-4 -2 -15.5 -7t-17.5 -10q-16 -12 -31 -14q-8 -12 -22.5 -15t-18.5 -11q-2 -6 -12 -14.5t-22.5 -16.5t-24.5 -14.5t-19 -12.5q-2 -2 -10 -8t-10 -6q-10 0 -17.5 12t-11.5 19q-4 8 -5 22t-1 23q0 33 10 53q6 6 11 6q4 4 13 13.5t17 13.5 q2 2 12.5 6t20.5 9t19.5 9t11.5 4q29 4 48 14.5t44 24.5q4 4 6 4l15 -4l26 4q2 4 10 4h2q4 6 9 19q6 8 12 8q14 4 25.5 12.5t27.5 8.5q4 6 15.5 14t17.5 8h2q8 6 13 7t16 1q6 0 14 7.5t16 9.5q10 14 20.5 17t18.5 11q2 6 11 6q4 4 8 8.5t10 4.5q16 0 19 -13.5t3 -25.5v-15 q8 -10 14.5 -19t6.5 -21q0 -6 -2 -15.5t-12 -9.5t-21.5 -2t-21.5 -6zM1311 743q0 -29 -8 -47q-4 -20 -9 -28q0 -6 -3 -18.5t-7 -18.5q0 -6 -14.5 -17.5t-18.5 -33.5q-2 -6 -10 -9q-8 -6 -9 -11t-7 -11q-20 -18 -38 -35.5t-32 -46.5q-4 -6 -12 -6h-6q-10 0 -16.5 -16.5 t-26.5 -20.5q-6 -10 -16.5 -19.5t-16.5 -19.5q0 -6 -5 -8t-9 -6q-6 -4 -10.5 -8.5t-8.5 -6.5q-16 -12 -30.5 -27.5t-30.5 -31.5l-17 -10q-10 -4 -13 -9.5t-13 -13.5q-4 -4 -6 -4q-18 -12 -31 -26.5t-29 -30.5q-10 -10 -25.5 -9t-19.5 -10q-2 -2 -8 -6q-6 -2 -14.5 -17.5 t-26.5 -17.5l-10 -10q4 -4 18 -4l41 2q10 0 16 -6l164 6l41 -6q39 0 67.5 12.5t63.5 12.5h11l16 6l2 -2q0 -2 2 -2q2 -2 2 -5q0 -8 -4 -21t-10 -27.5t-13.5 -27t-13.5 -18.5q-2 -4 -6 -6t-6 -8q-4 -4 -12 -4q-6 0 -9 2q-4 -2 -8 -2h-8q-4 -4 -7 -12.5t-14 -8.5q-4 0 -12 5.5 t-14 9.5q-12 -8 -23 -9l-34 7l-25 -9l-25 7q-6 -4 -22 -5l-78 -8h-14t-17 2q-6 -2 -14 -2h-21q-6 0 -9 -2t-13 -2q-12 0 -25.5 -4t-23.5 -4q-16 0 -50 -4t-46 -4l-48 2q-8 0 -10 2q-29 8 -36 25.5t-7 41.5q0 29 10.5 58t26.5 49q2 8 12 8h9q10 10 22 15.5t16 17.5q2 6 7 6 q6 2 12 2q16 0 30.5 10.5t30 21.5t31.5 21.5t35 10.5h2q6 8 28.5 26.5t47 37t46 31.5t25.5 13q10 2 18.5 14.5t24.5 20.5q6 2 20.5 13.5t29 23.5t26.5 24.5t19 18.5q4 6 19 19.5t22 15.5q2 4 7 8t9 8q14 10 23.5 26.5t25.5 26.5q6 6 23 19q16 10 14 14t4 14q0 2 2 2 q10 12 16 35q-12 14 -30 15l-39 -2q-6 0 -12 2h-7q-16 0 -26 -7.5t-15 -7.5l-81 -14q-8 0 -11.5 -2t-7.5 -4q-8 -4 -10 -4q-10 -4 -31.5 -16.5t-28.5 -14.5l-6 -2q-18 -8 -29.5 -16.5t-25.5 -24.5q-2 0 -2 -2t-4 -2l-51 -37q-4 -4 -8.5 -15.5t-9.5 -21.5l-9 -18t-10 -8 q-23 0 -35 12t-12 31v14t2 20.5t3 19.5t5 11q4 53 38 81t75 56q10 2 20 8q20 8 29 17q6 4 13 8t17 8q12 0 15 2l16 4q6 6 25 7h14q2 0 3 1t5 1q16 10 31.5 16t32.5 8q25 2 51.5 1t48.5 3l12 2q6 0 11.5 -1t11.5 -3h12q18 0 41 -5t39 -11q10 0 10 -12l6 -7q6 -8 8.5 -19.5 t2.5 -21.5zM1362 1444q0 -10 -11.5 -24.5t-26.5 -30t-33.5 -31t-30.5 -25.5q-29 -23 -55.5 -57.5t-61.5 -65.5q-12 -10 -25.5 -25.5t-28 -30.5t-24.5 -28.5t-16 -15.5q-25 -12 -42.5 -30.5t-34 -38t-32.5 -40t-39 -38.5l-24.5 -24.5t-14.5 -16t-9 -13.5l-9 -18q-4 -8 -6 -14 l-19 -19q-10 -10 -25.5 -30.5t-32 -41t-29.5 -37t-21 -20.5q-16 -10 -25.5 -23.5t-20 -26.5t-23.5 -27.5t-34 -22.5q-8 -16 -25.5 -46t-35.5 -34q-10 0 -14.5 -14.5t-14.5 -18.5q-10 -2 -20.5 -16.5t-22.5 -30.5t-28.5 -30.5t-38.5 -18.5q-35 -74 -95.5 -129t-117.5 -121 l-7 -6q-10 -12 -23 -24.5t-30 -18.5q-2 -8 -11 -24.5t-19.5 -32t-22.5 -26.5t-21 -11l2 -2q8 -12 9 -21q0 -16 -26 -30.5t-38 -24.5l-8 -4q-4 -4 -10 -4t-8 2l-23.5 -23.5t-40.5 -13.5l-27 4h-10q-12 0 -30.5 3t-18.5 21q0 25 12.5 48.5t27.5 44t31.5 36t26.5 25.5 q20 18 53 59t69 84t67 76t47 33l47 49q41 45 80 87t72 87q20 29 44.5 43.5t43.5 36.5v6q0 10 34.5 44t100.5 112q43 49 101.5 118.5t113.5 143.5q23 12 42 42t52 48l-4 -2q35 29 63.5 73t75.5 72q27 35 55.5 75t53.5 75l8 10q4 12 15.5 22.5t22.5 16.5t20.5 9t11.5 3l4 -2 l59 -2l10 -4q8 4 11 4q14 0 34.5 -14t24.5 -49z" />
</font>
</defs>
</svg>
